G04 #@! TF.GenerationSoftware,KiCad,Pcbnew,9.99.0-4546-gb76221958b*
G04 #@! TF.CreationDate,2026-01-23T23:05:35+05:00*
G04 #@! TF.ProjectId,Reciver board,52656369-7665-4722-9062-6f6172642e6b,rev?*
G04 #@! TF.SameCoordinates,Original*
G04 #@! TF.FileFunction,Legend,Top*
G04 #@! TF.FilePolarity,Positive*
%FSLAX46Y46*%
G04 Gerber Fmt 4.6, Leading zero omitted, Abs format (unit mm)*
G04 Created by KiCad (PCBNEW 9.99.0-4546-gb76221958b) date 2026-01-23 23:05:35*
%MOMM*%
%LPD*%
G01*
G04 APERTURE LIST*
%ADD10C,0.238879*%
%ADD11C,0.500000*%
%ADD12C,0.150000*%
%ADD13C,0.120000*%
%ADD14C,0.127000*%
%ADD15C,0.200000*%
G04 APERTURE END LIST*
D10*
X39033145Y-50892685D02*
X39147619Y-50920721D01*
X39294796Y-50995473D01*
X39376561Y-51039862D01*
X39570698Y-51109669D01*
X39675430Y-51175350D01*
X39790808Y-51255229D01*
X39890220Y-51347533D01*
X40018028Y-51500198D01*
X40198584Y-51733478D01*
X40307705Y-51958987D01*
X40344078Y-52126305D01*
X40317381Y-52844976D01*
X40260145Y-53361940D01*
X40263598Y-53479719D01*
X40287485Y-53527493D01*
X40406924Y-53587217D01*
X40466646Y-53587217D01*
X40502477Y-53527493D01*
X40574138Y-53455830D01*
X40693583Y-53408055D01*
X40848853Y-53396114D01*
X40968290Y-53372222D01*
X41072650Y-53342124D01*
X41148392Y-53339987D01*
X41271076Y-53352792D01*
X41395891Y-53386929D01*
X41563308Y-53458168D01*
X41839730Y-53519006D01*
X42079864Y-53527542D01*
X42210524Y-53527492D01*
X42280291Y-53543169D01*
X42359160Y-53576538D01*
X42428420Y-53618999D01*
X42449724Y-53668226D01*
X42459233Y-53718831D01*
X42458471Y-53764494D01*
X42432474Y-53801395D01*
X42422329Y-53819656D01*
X42422329Y-53840958D01*
X42452761Y-53859221D01*
X42486235Y-53874435D01*
X42522753Y-53893708D01*
X42554199Y-53925156D01*
X42592750Y-53969791D01*
X42603906Y-54012398D01*
X42605466Y-54079049D01*
X42588403Y-54122773D01*
X42569206Y-54155837D01*
X42540414Y-54192093D01*
X42494558Y-54226219D01*
X42433771Y-54234753D01*
X42378314Y-54219822D01*
X42320728Y-54191028D01*
X42271670Y-54153700D01*
X42223683Y-54119575D01*
X42184221Y-54072653D01*
X42143699Y-54017198D01*
X42121304Y-54019332D01*
X42067986Y-54134504D01*
X42119167Y-54140906D01*
X42194881Y-54160099D01*
X42304734Y-54233685D01*
X42337794Y-54245419D01*
X42452964Y-54323262D01*
X42558945Y-54411379D01*
X42733647Y-54625589D01*
X42955042Y-55051147D01*
X43115869Y-55467291D01*
X43128625Y-55542219D01*
X43149402Y-55858883D01*
X43206441Y-56274491D01*
X43216177Y-56484937D01*
X43208995Y-56657321D01*
X43187832Y-56784385D01*
X43118125Y-56970274D01*
X43037856Y-57105465D01*
X42997719Y-57181507D01*
X42997719Y-57259669D01*
X43039966Y-57422326D01*
X43097429Y-57667517D01*
X43146392Y-57930141D01*
X43204263Y-58108514D01*
X43232740Y-58238254D01*
X43232740Y-58339516D01*
X43209008Y-58405966D01*
X43178943Y-58466093D01*
X43192558Y-58720231D01*
X43037821Y-58771084D01*
X43034595Y-58810086D01*
X43116723Y-59024747D01*
X43192057Y-59263566D01*
X43224099Y-59308152D01*
X43324415Y-59381993D01*
X43381538Y-59425184D01*
X43464109Y-59536376D01*
X43553483Y-59640645D01*
X43577069Y-59633200D01*
X43615552Y-59618304D01*
X43661482Y-59648094D01*
X43748377Y-59706439D01*
X43852650Y-59790850D01*
X43920924Y-59757339D01*
X44018990Y-59722578D01*
X44100917Y-59690305D01*
X44296937Y-59674239D01*
X44446084Y-59679270D01*
X44571771Y-59697702D01*
X44663942Y-59736248D01*
X44754434Y-59801602D01*
X44838226Y-59885395D01*
X44920342Y-59999352D01*
X44965588Y-60118333D01*
X44968322Y-60198104D01*
X44930146Y-60278039D01*
X44880033Y-60399736D01*
X44858771Y-60548187D01*
X44881161Y-60705727D01*
X44933058Y-60836416D01*
X45019916Y-60995235D01*
X45032647Y-61038909D01*
X45033974Y-61114564D01*
X44995486Y-61191547D01*
X44942308Y-61306469D01*
X44834833Y-61483683D01*
X44711299Y-61710152D01*
X44660519Y-61776032D01*
X44500000Y-61950000D01*
X44380892Y-62107464D01*
X44225451Y-62327503D01*
X44116436Y-62430458D01*
X43872168Y-62414311D01*
X43741065Y-62728125D01*
X43622414Y-62991467D01*
X43567735Y-63067260D01*
X43451671Y-63162095D01*
X43334899Y-63222958D01*
X43340725Y-63315489D01*
X43408666Y-63510477D01*
X43479236Y-63699505D01*
X43516245Y-63852924D01*
X43528460Y-64003195D01*
X43596156Y-64213429D01*
X43661277Y-64404306D01*
X43724157Y-64539045D01*
X43919229Y-64748039D01*
X44014312Y-64855227D01*
X44083467Y-64965876D01*
X44150891Y-65130112D01*
X44164722Y-65230383D01*
X44160238Y-65407514D01*
X44132005Y-65566740D01*
X44119473Y-65686706D01*
X44119473Y-65792595D01*
X44094556Y-65873563D01*
X44044048Y-65959540D01*
X43937561Y-66066021D01*
X43858074Y-66148509D01*
X43844576Y-66189003D01*
X43861078Y-66235498D01*
X43864074Y-66325487D01*
X43809878Y-66487856D01*
X43804491Y-66555687D01*
X43829257Y-66651521D01*
X43849543Y-66823165D01*
X43832736Y-67274779D01*
X43773926Y-67428120D01*
X43700403Y-67518444D01*
X43566897Y-67632493D01*
X43477713Y-67774638D01*
X43394096Y-67858256D01*
X43310481Y-67925142D01*
X43204567Y-67972526D01*
X43081941Y-68017123D01*
X42897987Y-68050566D01*
X42546806Y-68072863D01*
X42454830Y-68075650D01*
X42345877Y-68061375D01*
X42147179Y-67983175D01*
X41997185Y-67897282D01*
X41870274Y-67840879D01*
X41831817Y-67790884D01*
X41816434Y-67739605D01*
X41770281Y-67676786D01*
X41700751Y-67635916D01*
X41593453Y-67599600D01*
X41165934Y-67282671D01*
X40817387Y-66828416D01*
X40801076Y-66761391D01*
X40802629Y-66667745D01*
X40835755Y-66531848D01*
X40830384Y-66441105D01*
X40806653Y-66424327D01*
X40639398Y-66417961D01*
X40547018Y-66383016D01*
X40427205Y-66300709D01*
X40331354Y-66221530D01*
X40246965Y-66126721D01*
X40172842Y-65968901D01*
X40088586Y-65763637D01*
X40022192Y-65528495D01*
X39981053Y-65217033D01*
X39998683Y-65038772D01*
X40023695Y-64935376D01*
X40121419Y-64768670D01*
X40239841Y-64623803D01*
X40175457Y-64469743D01*
X40077145Y-64197674D01*
X39877049Y-63843069D01*
X39836030Y-63755383D01*
X39780558Y-63754377D01*
X39551614Y-63659569D01*
X38802043Y-63293874D01*
X38393340Y-63108380D01*
X38137573Y-62987105D01*
X37982305Y-62939325D01*
X37564268Y-62688505D01*
X37134284Y-62425737D01*
X36814785Y-62202289D01*
X36677587Y-62096532D01*
X36485284Y-61939146D01*
X36327853Y-61773763D01*
X36278558Y-62047282D01*
X36230317Y-62407778D01*
X36231756Y-62522732D01*
X36250433Y-62619001D01*
X36255376Y-62724191D01*
X36222728Y-62892501D01*
X36201334Y-63032640D01*
X36183924Y-63129992D01*
X36182651Y-63268790D01*
X36204021Y-63363363D01*
X36250432Y-63464860D01*
X36280017Y-63556970D01*
X36314393Y-63649248D01*
X36319825Y-63712577D01*
X36308965Y-63774099D01*
X36281587Y-63840470D01*
X36270973Y-63894187D01*
X36271636Y-63971779D01*
X36288211Y-64052689D01*
X36309275Y-64122121D01*
X36333484Y-64193361D01*
X36354790Y-64270863D01*
X36380378Y-64359225D01*
X36407528Y-64487347D01*
X36422112Y-64659921D01*
X36418794Y-64836400D01*
X36396494Y-65000453D01*
X36369905Y-65158578D01*
X36335166Y-65325102D01*
X36326184Y-65426833D01*
X36297011Y-65579188D01*
X36322976Y-66035727D01*
X36332324Y-66076044D01*
X36346283Y-66206320D01*
X36372651Y-66435854D01*
X36421629Y-66594490D01*
X36440702Y-66719804D01*
X36435251Y-66827409D01*
X36414823Y-66935017D01*
X36402183Y-67053909D01*
X36367624Y-67107295D01*
X36315391Y-67168229D01*
X36267104Y-67203695D01*
X36194225Y-67230334D01*
X36021031Y-67249143D01*
X35716731Y-67269985D01*
X35404134Y-67278546D01*
X35186459Y-67207892D01*
X35062741Y-67159996D01*
X35033530Y-67161489D01*
X34786156Y-67390280D01*
X34729930Y-67447733D01*
X34647890Y-67489507D01*
X34571890Y-67506618D01*
X34217291Y-67513913D01*
X33977493Y-67519855D01*
X33141162Y-67260241D01*
X32927863Y-67194742D01*
X32869483Y-67148709D01*
X32860498Y-67089203D01*
X32863869Y-66998264D01*
X32894990Y-66857734D01*
X32935565Y-66732837D01*
X32987760Y-66627250D01*
X33053623Y-66558887D01*
X33142831Y-66507195D01*
X33419996Y-66486959D01*
X33526522Y-66459017D01*
X33647882Y-66400519D01*
X33888039Y-66226891D01*
X33978652Y-66144986D01*
X34074494Y-66026486D01*
X34163373Y-65927157D01*
X34243532Y-65827823D01*
X34383747Y-65548864D01*
X34479842Y-65411590D01*
X34592001Y-65265603D01*
X34666021Y-65182882D01*
X34565883Y-65145872D01*
X34492958Y-65120835D01*
X34451596Y-65090359D01*
X34405807Y-64973966D01*
X34366369Y-64846454D01*
X34366369Y-64761005D01*
X34382279Y-64582954D01*
X34392232Y-64340905D01*
X34372334Y-63989439D01*
X34343426Y-63665328D01*
X34304347Y-63286857D01*
X34200486Y-61913301D01*
X34200486Y-61508471D01*
X34196477Y-61079596D01*
X34148377Y-60919267D01*
X34148377Y-60879183D01*
X34184451Y-60718857D01*
X34192467Y-60502411D01*
X34196073Y-60156384D01*
X34255790Y-59583076D01*
X34339400Y-59308367D01*
X34423006Y-59105320D01*
X34482731Y-58973937D01*
X34366174Y-58880670D01*
X34140366Y-58686760D01*
X34079630Y-58627563D01*
X35868224Y-58627563D01*
X36095163Y-58687280D01*
X36429593Y-58782834D01*
X36668471Y-58818662D01*
X36883462Y-58842555D01*
X36990959Y-58842555D01*
X37062619Y-58758944D01*
X37074564Y-58699224D01*
X37055649Y-58631378D01*
X36988711Y-58535567D01*
X36969582Y-58500144D01*
X36966039Y-58448255D01*
X36987264Y-58401080D01*
X36991987Y-58353910D01*
X36943633Y-58293757D01*
X36883486Y-58224169D01*
X36865792Y-58172280D01*
X36864826Y-58072521D01*
X36898399Y-58056853D01*
X37018131Y-58013214D01*
X37021486Y-57882292D01*
X36907347Y-57876699D01*
X36812235Y-57855433D01*
X36745100Y-57914742D01*
X36692503Y-57961740D01*
X36636555Y-58007619D01*
X36557107Y-58033353D01*
X36531368Y-58038951D01*
X36497800Y-58122873D01*
X36477654Y-58195611D01*
X36437997Y-58290920D01*
X36402608Y-58382928D01*
X36353950Y-58466976D01*
X36322781Y-58508752D01*
X36275564Y-58530789D01*
X36208203Y-58525748D01*
X36133909Y-58470347D01*
X36058989Y-58415576D01*
X36045138Y-58402984D01*
X36011140Y-58447682D01*
X35959502Y-58518370D01*
X35903171Y-58587511D01*
X35868224Y-58627563D01*
X34079630Y-58627563D01*
X33953294Y-58504427D01*
X33768590Y-58310252D01*
X33626513Y-58151596D01*
X33557179Y-58042812D01*
X33445956Y-57828420D01*
X33344401Y-57646274D01*
X33123033Y-57221207D01*
X33107917Y-57189708D01*
X33091535Y-57093963D01*
X33077680Y-57063727D01*
X32950350Y-56854211D01*
X32828315Y-56650821D01*
X32698394Y-56409171D01*
X32628791Y-56227887D01*
X32619083Y-56164757D01*
X32619083Y-56114579D01*
X32651454Y-56009366D01*
X32644976Y-55983474D01*
X32626423Y-55880503D01*
X32596198Y-55814561D01*
X32524762Y-55756863D01*
X32450574Y-55707403D01*
X32405085Y-55665462D01*
X33706369Y-55665462D01*
X33766091Y-55761012D01*
X33837758Y-55868512D01*
X33932270Y-55981530D01*
X34038008Y-56154557D01*
X34137007Y-56299143D01*
X34209121Y-56406816D01*
X34281497Y-56521616D01*
X34354059Y-56632326D01*
X34434738Y-56708623D01*
X34522643Y-56750577D01*
X34560601Y-56760566D01*
X34614542Y-56780547D01*
X34676475Y-56811510D01*
X34728421Y-56834489D01*
X34754390Y-56851469D01*
X34773371Y-56845476D01*
X34804333Y-56791535D01*
X34862270Y-56705625D01*
X34986364Y-56500606D01*
X35085334Y-56343742D01*
X35239105Y-56166194D01*
X35456465Y-55967516D01*
X35582128Y-55857138D01*
X35655147Y-55775627D01*
X35719675Y-55670341D01*
X35758532Y-55568929D01*
X35831062Y-55458433D01*
X35886791Y-55388106D01*
X35714300Y-55409334D01*
X35571006Y-55410663D01*
X35334831Y-55396067D01*
X35145098Y-55342995D01*
X35092459Y-55320596D01*
X35093312Y-55522174D01*
X35072282Y-55519305D01*
X35041695Y-55490632D01*
X35005854Y-55418945D01*
X34971442Y-55339134D01*
X34941335Y-55298987D01*
X34920780Y-55280827D01*
X34923121Y-55685680D01*
X34906018Y-55707986D01*
X34883718Y-55738466D01*
X34872563Y-55741441D01*
X34847284Y-55744415D01*
X33706369Y-55665462D01*
X32405085Y-55665462D01*
X32393167Y-55654473D01*
X32305101Y-55569205D01*
X32204459Y-55490928D01*
X32061879Y-55450391D01*
X31804676Y-55381897D01*
X31557128Y-55316911D01*
X31511575Y-55286942D01*
X31361715Y-55191031D01*
X31223850Y-55089128D01*
X31109798Y-54984434D01*
X35091039Y-54984434D01*
X35091161Y-55013377D01*
X35091870Y-54984654D01*
X35105911Y-54976428D01*
X35091039Y-54984434D01*
X31109798Y-54984434D01*
X31101888Y-54977173D01*
X31041354Y-54880118D01*
X31007958Y-54789323D01*
X30242626Y-54793556D01*
X30095943Y-54783610D01*
X30025752Y-54765890D01*
X29984680Y-54748295D01*
X29935232Y-54713090D01*
X29894156Y-54666151D01*
X29859794Y-54641005D01*
X29828779Y-54639330D01*
X29795254Y-54672860D01*
X29769267Y-54699679D01*
X29758372Y-54709740D01*
X29714787Y-54710575D01*
X29675392Y-54680397D01*
X29616722Y-54646033D01*
X29557211Y-54641848D01*
X29069583Y-54631995D01*
X29007867Y-54625038D01*
X28933486Y-54601204D01*
X28865682Y-54568743D01*
X28820481Y-54541212D01*
X28742212Y-54548644D01*
X28701011Y-54574271D01*
X28667849Y-54616979D01*
X28645739Y-54655171D01*
X28623124Y-54693832D01*
X28598941Y-54718386D01*
X28576992Y-54732152D01*
X28538301Y-54709828D01*
X28500721Y-54671883D01*
X28477658Y-54637656D01*
X28448639Y-54610125D01*
X28391039Y-54545745D01*
X28330151Y-54508471D01*
X28261914Y-54507424D01*
X28152738Y-54541017D01*
X28083449Y-54559913D01*
X28070316Y-54557629D01*
X28054325Y-54549064D01*
X28037189Y-54523928D01*
X28023483Y-54473105D01*
X28017077Y-54335964D01*
X27479848Y-54298220D01*
X24514798Y-54282480D01*
X22927746Y-54287592D01*
X22627197Y-54345027D01*
X22344750Y-54362859D01*
X21704020Y-54359037D01*
X21670576Y-54345662D01*
X21637974Y-54313056D01*
X21620420Y-54272091D01*
X21619470Y-54160525D01*
X21618531Y-54141727D01*
X21618069Y-54141728D01*
X21618075Y-54141355D01*
X21780959Y-54141355D01*
X22316341Y-54140626D01*
X22316278Y-54136635D01*
X32703079Y-54136635D01*
X33142482Y-54915910D01*
X33142484Y-54915910D01*
X32703079Y-54136635D01*
X22316278Y-54136635D01*
X22314452Y-54021238D01*
X21780994Y-54015555D01*
X21780959Y-54141355D01*
X21618075Y-54141355D01*
X21619094Y-54076918D01*
X21618845Y-53956797D01*
X21619094Y-53909700D01*
X21631043Y-53849982D01*
X21654927Y-53826096D01*
X21690761Y-53802205D01*
X22424697Y-53826870D01*
X22908705Y-53898374D01*
X29589347Y-53964157D01*
X30692269Y-53911343D01*
X31014809Y-53894013D01*
X31760221Y-53875146D01*
X31848285Y-53799662D01*
X29611252Y-53803860D01*
X29560536Y-53761965D01*
X29527300Y-53435677D01*
X29518459Y-53128485D01*
X29524916Y-53003703D01*
X29550729Y-52962827D01*
X29599141Y-52938084D01*
X31606845Y-52936277D01*
X32000435Y-52961598D01*
X32526913Y-53044720D01*
X32866353Y-53103601D01*
X32997690Y-53115651D01*
X33149270Y-53094626D01*
X33190553Y-53091451D01*
X33266769Y-53104157D01*
X33417611Y-53126384D01*
X33711451Y-53126478D01*
X34088745Y-53112947D01*
X34090321Y-52657287D01*
X34109593Y-52640285D01*
X34201411Y-52624415D01*
X34284553Y-52613945D01*
X34365182Y-52619864D01*
X34459131Y-52651676D01*
X34502035Y-52682741D01*
X34506051Y-53038870D01*
X34516261Y-53071782D01*
X34539525Y-53095044D01*
X34586623Y-53126253D01*
X35135502Y-53087771D01*
X35143417Y-52894955D01*
X35185971Y-52881801D01*
X35325998Y-52843894D01*
X35360814Y-52845439D01*
X35388663Y-52908101D01*
X35417295Y-53018740D01*
X35435082Y-53054328D01*
X35468356Y-53092234D01*
X35501617Y-53107708D01*
X35521607Y-53099889D01*
X35564840Y-53061680D01*
X35599031Y-53034535D01*
X35620147Y-53034535D01*
X35655342Y-53058667D01*
X35739806Y-53071737D01*
X35923820Y-53065703D01*
X36190219Y-53017701D01*
X36297466Y-53005696D01*
X36430331Y-53005696D01*
X36539304Y-53023610D01*
X36604993Y-53060185D01*
X36622160Y-53104967D01*
X36627443Y-53300599D01*
X36615766Y-53542392D01*
X36598895Y-53623010D01*
X35989621Y-53619258D01*
X35442878Y-53585195D01*
X35373425Y-53616944D01*
X35300000Y-53648696D01*
X35171075Y-53647319D01*
X35084448Y-53614678D01*
X35043019Y-53588315D01*
X35004104Y-53599617D01*
X35007871Y-53703813D01*
X35137180Y-53705070D01*
X35194923Y-53723902D01*
X35245147Y-53759052D01*
X35285319Y-53802991D01*
X35307918Y-53839400D01*
X35419646Y-53839400D01*
X35487439Y-53858230D01*
X35545192Y-53898403D01*
X35594154Y-53947365D01*
X35628051Y-53982516D01*
X35646805Y-53983456D01*
X35673999Y-53966575D01*
X35704010Y-53961884D01*
X35731212Y-53961884D01*
X35772475Y-53972199D01*
X35825928Y-53997523D01*
X35858756Y-54030346D01*
X35887828Y-54069739D01*
X35900956Y-54119443D01*
X35883138Y-54182275D01*
X35851252Y-54222599D01*
X35843558Y-54242323D01*
X35870493Y-54259639D01*
X35974769Y-54302740D01*
X36152722Y-54370863D01*
X36877397Y-54381220D01*
X36957251Y-54360688D01*
X37019989Y-54325328D01*
X37087288Y-54255744D01*
X37118089Y-54239774D01*
X37191093Y-54210118D01*
X37261816Y-54186160D01*
X37318850Y-54135970D01*
X37332984Y-54104322D01*
X37332984Y-54068286D01*
X37306268Y-54012366D01*
X37284518Y-53957067D01*
X37264787Y-53863350D01*
X37265669Y-53372222D01*
X37008664Y-53164272D01*
X36826564Y-53025535D01*
X36676989Y-52897630D01*
X36553419Y-52810918D01*
X36497905Y-52794262D01*
X36450721Y-52797040D01*
X36404921Y-52813691D01*
X36379937Y-52828955D01*
X36286954Y-52754015D01*
X36286954Y-52712382D01*
X36309160Y-52663807D01*
X36377164Y-52608295D01*
X36489576Y-52554166D01*
X37046519Y-52280344D01*
X37201658Y-52195723D01*
X37255258Y-52116739D01*
X37269361Y-52094173D01*
X37275001Y-52043401D01*
X37325772Y-51930570D01*
X37506307Y-51673876D01*
X37727233Y-51413645D01*
X37925810Y-51222082D01*
X38096348Y-51107612D01*
X38210818Y-51051542D01*
X38411729Y-50967443D01*
X38694402Y-50892685D01*
X38876626Y-50873996D01*
X39033145Y-50892685D01*
G36*
X39033145Y-50892685D02*
G01*
X39147619Y-50920721D01*
X39294796Y-50995473D01*
X39376561Y-51039862D01*
X39570698Y-51109669D01*
X39675430Y-51175350D01*
X39790808Y-51255229D01*
X39890220Y-51347533D01*
X40018028Y-51500198D01*
X40198584Y-51733478D01*
X40307705Y-51958987D01*
X40344078Y-52126305D01*
X40317381Y-52844976D01*
X40260145Y-53361940D01*
X40263598Y-53479719D01*
X40287485Y-53527493D01*
X40406924Y-53587217D01*
X40466646Y-53587217D01*
X40502477Y-53527493D01*
X40574138Y-53455830D01*
X40693583Y-53408055D01*
X40848853Y-53396114D01*
X40968290Y-53372222D01*
X41072650Y-53342124D01*
X41148392Y-53339987D01*
X41271076Y-53352792D01*
X41395891Y-53386929D01*
X41563308Y-53458168D01*
X41839730Y-53519006D01*
X42079864Y-53527542D01*
X42210524Y-53527492D01*
X42280291Y-53543169D01*
X42359160Y-53576538D01*
X42428420Y-53618999D01*
X42449724Y-53668226D01*
X42459233Y-53718831D01*
X42458471Y-53764494D01*
X42432474Y-53801395D01*
X42422329Y-53819656D01*
X42422329Y-53840958D01*
X42452761Y-53859221D01*
X42486235Y-53874435D01*
X42522753Y-53893708D01*
X42554199Y-53925156D01*
X42592750Y-53969791D01*
X42603906Y-54012398D01*
X42605466Y-54079049D01*
X42588403Y-54122773D01*
X42569206Y-54155837D01*
X42540414Y-54192093D01*
X42494558Y-54226219D01*
X42433771Y-54234753D01*
X42378314Y-54219822D01*
X42320728Y-54191028D01*
X42271670Y-54153700D01*
X42223683Y-54119575D01*
X42184221Y-54072653D01*
X42143699Y-54017198D01*
X42121304Y-54019332D01*
X42067986Y-54134504D01*
X42119167Y-54140906D01*
X42194881Y-54160099D01*
X42304734Y-54233685D01*
X42337794Y-54245419D01*
X42452964Y-54323262D01*
X42558945Y-54411379D01*
X42733647Y-54625589D01*
X42955042Y-55051147D01*
X43115869Y-55467291D01*
X43128625Y-55542219D01*
X43149402Y-55858883D01*
X43206441Y-56274491D01*
X43216177Y-56484937D01*
X43208995Y-56657321D01*
X43187832Y-56784385D01*
X43118125Y-56970274D01*
X43037856Y-57105465D01*
X42997719Y-57181507D01*
X42997719Y-57259669D01*
X43039966Y-57422326D01*
X43097429Y-57667517D01*
X43146392Y-57930141D01*
X43204263Y-58108514D01*
X43232740Y-58238254D01*
X43232740Y-58339516D01*
X43209008Y-58405966D01*
X43178943Y-58466093D01*
X43192558Y-58720231D01*
X43037821Y-58771084D01*
X43034595Y-58810086D01*
X43116723Y-59024747D01*
X43192057Y-59263566D01*
X43224099Y-59308152D01*
X43324415Y-59381993D01*
X43381538Y-59425184D01*
X43464109Y-59536376D01*
X43553483Y-59640645D01*
X43577069Y-59633200D01*
X43615552Y-59618304D01*
X43661482Y-59648094D01*
X43748377Y-59706439D01*
X43852650Y-59790850D01*
X43920924Y-59757339D01*
X44018990Y-59722578D01*
X44100917Y-59690305D01*
X44296937Y-59674239D01*
X44446084Y-59679270D01*
X44571771Y-59697702D01*
X44663942Y-59736248D01*
X44754434Y-59801602D01*
X44838226Y-59885395D01*
X44920342Y-59999352D01*
X44965588Y-60118333D01*
X44968322Y-60198104D01*
X44930146Y-60278039D01*
X44880033Y-60399736D01*
X44858771Y-60548187D01*
X44881161Y-60705727D01*
X44933058Y-60836416D01*
X45019916Y-60995235D01*
X45032647Y-61038909D01*
X45033974Y-61114564D01*
X44995486Y-61191547D01*
X44942308Y-61306469D01*
X44834833Y-61483683D01*
X44711299Y-61710152D01*
X44660519Y-61776032D01*
X44500000Y-61950000D01*
X44380892Y-62107464D01*
X44225451Y-62327503D01*
X44116436Y-62430458D01*
X43872168Y-62414311D01*
X43741065Y-62728125D01*
X43622414Y-62991467D01*
X43567735Y-63067260D01*
X43451671Y-63162095D01*
X43334899Y-63222958D01*
X43340725Y-63315489D01*
X43408666Y-63510477D01*
X43479236Y-63699505D01*
X43516245Y-63852924D01*
X43528460Y-64003195D01*
X43596156Y-64213429D01*
X43661277Y-64404306D01*
X43724157Y-64539045D01*
X43919229Y-64748039D01*
X44014312Y-64855227D01*
X44083467Y-64965876D01*
X44150891Y-65130112D01*
X44164722Y-65230383D01*
X44160238Y-65407514D01*
X44132005Y-65566740D01*
X44119473Y-65686706D01*
X44119473Y-65792595D01*
X44094556Y-65873563D01*
X44044048Y-65959540D01*
X43937561Y-66066021D01*
X43858074Y-66148509D01*
X43844576Y-66189003D01*
X43861078Y-66235498D01*
X43864074Y-66325487D01*
X43809878Y-66487856D01*
X43804491Y-66555687D01*
X43829257Y-66651521D01*
X43849543Y-66823165D01*
X43832736Y-67274779D01*
X43773926Y-67428120D01*
X43700403Y-67518444D01*
X43566897Y-67632493D01*
X43477713Y-67774638D01*
X43394096Y-67858256D01*
X43310481Y-67925142D01*
X43204567Y-67972526D01*
X43081941Y-68017123D01*
X42897987Y-68050566D01*
X42546806Y-68072863D01*
X42454830Y-68075650D01*
X42345877Y-68061375D01*
X42147179Y-67983175D01*
X41997185Y-67897282D01*
X41870274Y-67840879D01*
X41831817Y-67790884D01*
X41816434Y-67739605D01*
X41770281Y-67676786D01*
X41700751Y-67635916D01*
X41593453Y-67599600D01*
X41165934Y-67282671D01*
X40817387Y-66828416D01*
X40801076Y-66761391D01*
X40802629Y-66667745D01*
X40835755Y-66531848D01*
X40830384Y-66441105D01*
X40806653Y-66424327D01*
X40639398Y-66417961D01*
X40547018Y-66383016D01*
X40427205Y-66300709D01*
X40331354Y-66221530D01*
X40246965Y-66126721D01*
X40172842Y-65968901D01*
X40088586Y-65763637D01*
X40022192Y-65528495D01*
X39981053Y-65217033D01*
X39998683Y-65038772D01*
X40023695Y-64935376D01*
X40121419Y-64768670D01*
X40239841Y-64623803D01*
X40175457Y-64469743D01*
X40077145Y-64197674D01*
X39877049Y-63843069D01*
X39836030Y-63755383D01*
X39780558Y-63754377D01*
X39551614Y-63659569D01*
X38802043Y-63293874D01*
X38393340Y-63108380D01*
X38137573Y-62987105D01*
X37982305Y-62939325D01*
X37564268Y-62688505D01*
X37134284Y-62425737D01*
X36814785Y-62202289D01*
X36677587Y-62096532D01*
X36485284Y-61939146D01*
X36327853Y-61773763D01*
X36278558Y-62047282D01*
X36230317Y-62407778D01*
X36231756Y-62522732D01*
X36250433Y-62619001D01*
X36255376Y-62724191D01*
X36222728Y-62892501D01*
X36201334Y-63032640D01*
X36183924Y-63129992D01*
X36182651Y-63268790D01*
X36204021Y-63363363D01*
X36250432Y-63464860D01*
X36280017Y-63556970D01*
X36314393Y-63649248D01*
X36319825Y-63712577D01*
X36308965Y-63774099D01*
X36281587Y-63840470D01*
X36270973Y-63894187D01*
X36271636Y-63971779D01*
X36288211Y-64052689D01*
X36309275Y-64122121D01*
X36333484Y-64193361D01*
X36354790Y-64270863D01*
X36380378Y-64359225D01*
X36407528Y-64487347D01*
X36422112Y-64659921D01*
X36418794Y-64836400D01*
X36396494Y-65000453D01*
X36369905Y-65158578D01*
X36335166Y-65325102D01*
X36326184Y-65426833D01*
X36297011Y-65579188D01*
X36322976Y-66035727D01*
X36332324Y-66076044D01*
X36346283Y-66206320D01*
X36372651Y-66435854D01*
X36421629Y-66594490D01*
X36440702Y-66719804D01*
X36435251Y-66827409D01*
X36414823Y-66935017D01*
X36402183Y-67053909D01*
X36367624Y-67107295D01*
X36315391Y-67168229D01*
X36267104Y-67203695D01*
X36194225Y-67230334D01*
X36021031Y-67249143D01*
X35716731Y-67269985D01*
X35404134Y-67278546D01*
X35186459Y-67207892D01*
X35062741Y-67159996D01*
X35033530Y-67161489D01*
X34786156Y-67390280D01*
X34729930Y-67447733D01*
X34647890Y-67489507D01*
X34571890Y-67506618D01*
X34217291Y-67513913D01*
X33977493Y-67519855D01*
X33141162Y-67260241D01*
X32927863Y-67194742D01*
X32869483Y-67148709D01*
X32860498Y-67089203D01*
X32863869Y-66998264D01*
X32894990Y-66857734D01*
X32935565Y-66732837D01*
X32987760Y-66627250D01*
X33053623Y-66558887D01*
X33142831Y-66507195D01*
X33419996Y-66486959D01*
X33526522Y-66459017D01*
X33647882Y-66400519D01*
X33888039Y-66226891D01*
X33978652Y-66144986D01*
X34074494Y-66026486D01*
X34163373Y-65927157D01*
X34243532Y-65827823D01*
X34383747Y-65548864D01*
X34479842Y-65411590D01*
X34592001Y-65265603D01*
X34666021Y-65182882D01*
X34565883Y-65145872D01*
X34492958Y-65120835D01*
X34451596Y-65090359D01*
X34405807Y-64973966D01*
X34366369Y-64846454D01*
X34366369Y-64761005D01*
X34382279Y-64582954D01*
X34392232Y-64340905D01*
X34372334Y-63989439D01*
X34343426Y-63665328D01*
X34304347Y-63286857D01*
X34200486Y-61913301D01*
X34200486Y-61508471D01*
X34196477Y-61079596D01*
X34148377Y-60919267D01*
X34148377Y-60879183D01*
X34184451Y-60718857D01*
X34192467Y-60502411D01*
X34196073Y-60156384D01*
X34255790Y-59583076D01*
X34339400Y-59308367D01*
X34423006Y-59105320D01*
X34482731Y-58973937D01*
X34366174Y-58880670D01*
X34140366Y-58686760D01*
X34079630Y-58627563D01*
X35868224Y-58627563D01*
X36095163Y-58687280D01*
X36429593Y-58782834D01*
X36668471Y-58818662D01*
X36883462Y-58842555D01*
X36990959Y-58842555D01*
X37062619Y-58758944D01*
X37074564Y-58699224D01*
X37055649Y-58631378D01*
X36988711Y-58535567D01*
X36969582Y-58500144D01*
X36966039Y-58448255D01*
X36987264Y-58401080D01*
X36991987Y-58353910D01*
X36943633Y-58293757D01*
X36883486Y-58224169D01*
X36865792Y-58172280D01*
X36864826Y-58072521D01*
X36898399Y-58056853D01*
X37018131Y-58013214D01*
X37021486Y-57882292D01*
X36907347Y-57876699D01*
X36812235Y-57855433D01*
X36745100Y-57914742D01*
X36692503Y-57961740D01*
X36636555Y-58007619D01*
X36557107Y-58033353D01*
X36531368Y-58038951D01*
X36497800Y-58122873D01*
X36477654Y-58195611D01*
X36437997Y-58290920D01*
X36402608Y-58382928D01*
X36353950Y-58466976D01*
X36322781Y-58508752D01*
X36275564Y-58530789D01*
X36208203Y-58525748D01*
X36133909Y-58470347D01*
X36058989Y-58415576D01*
X36045138Y-58402984D01*
X36011140Y-58447682D01*
X35959502Y-58518370D01*
X35903171Y-58587511D01*
X35868224Y-58627563D01*
X34079630Y-58627563D01*
X33953294Y-58504427D01*
X33768590Y-58310252D01*
X33626513Y-58151596D01*
X33557179Y-58042812D01*
X33445956Y-57828420D01*
X33344401Y-57646274D01*
X33123033Y-57221207D01*
X33107917Y-57189708D01*
X33091535Y-57093963D01*
X33077680Y-57063727D01*
X32950350Y-56854211D01*
X32828315Y-56650821D01*
X32698394Y-56409171D01*
X32628791Y-56227887D01*
X32619083Y-56164757D01*
X32619083Y-56114579D01*
X32651454Y-56009366D01*
X32644976Y-55983474D01*
X32626423Y-55880503D01*
X32596198Y-55814561D01*
X32524762Y-55756863D01*
X32450574Y-55707403D01*
X32405085Y-55665462D01*
X33706369Y-55665462D01*
X33766091Y-55761012D01*
X33837758Y-55868512D01*
X33932270Y-55981530D01*
X34038008Y-56154557D01*
X34137007Y-56299143D01*
X34209121Y-56406816D01*
X34281497Y-56521616D01*
X34354059Y-56632326D01*
X34434738Y-56708623D01*
X34522643Y-56750577D01*
X34560601Y-56760566D01*
X34614542Y-56780547D01*
X34676475Y-56811510D01*
X34728421Y-56834489D01*
X34754390Y-56851469D01*
X34773371Y-56845476D01*
X34804333Y-56791535D01*
X34862270Y-56705625D01*
X34986364Y-56500606D01*
X35085334Y-56343742D01*
X35239105Y-56166194D01*
X35456465Y-55967516D01*
X35582128Y-55857138D01*
X35655147Y-55775627D01*
X35719675Y-55670341D01*
X35758532Y-55568929D01*
X35831062Y-55458433D01*
X35886791Y-55388106D01*
X35714300Y-55409334D01*
X35571006Y-55410663D01*
X35334831Y-55396067D01*
X35145098Y-55342995D01*
X35092459Y-55320596D01*
X35093312Y-55522174D01*
X35072282Y-55519305D01*
X35041695Y-55490632D01*
X35005854Y-55418945D01*
X34971442Y-55339134D01*
X34941335Y-55298987D01*
X34920780Y-55280827D01*
X34923121Y-55685680D01*
X34906018Y-55707986D01*
X34883718Y-55738466D01*
X34872563Y-55741441D01*
X34847284Y-55744415D01*
X33706369Y-55665462D01*
X32405085Y-55665462D01*
X32393167Y-55654473D01*
X32305101Y-55569205D01*
X32204459Y-55490928D01*
X32061879Y-55450391D01*
X31804676Y-55381897D01*
X31557128Y-55316911D01*
X31511575Y-55286942D01*
X31361715Y-55191031D01*
X31223850Y-55089128D01*
X31109798Y-54984434D01*
X35091039Y-54984434D01*
X35091161Y-55013377D01*
X35091870Y-54984654D01*
X35105911Y-54976428D01*
X35091039Y-54984434D01*
X31109798Y-54984434D01*
X31101888Y-54977173D01*
X31041354Y-54880118D01*
X31007958Y-54789323D01*
X30242626Y-54793556D01*
X30095943Y-54783610D01*
X30025752Y-54765890D01*
X29984680Y-54748295D01*
X29935232Y-54713090D01*
X29894156Y-54666151D01*
X29859794Y-54641005D01*
X29828779Y-54639330D01*
X29795254Y-54672860D01*
X29769267Y-54699679D01*
X29758372Y-54709740D01*
X29714787Y-54710575D01*
X29675392Y-54680397D01*
X29616722Y-54646033D01*
X29557211Y-54641848D01*
X29069583Y-54631995D01*
X29007867Y-54625038D01*
X28933486Y-54601204D01*
X28865682Y-54568743D01*
X28820481Y-54541212D01*
X28742212Y-54548644D01*
X28701011Y-54574271D01*
X28667849Y-54616979D01*
X28645739Y-54655171D01*
X28623124Y-54693832D01*
X28598941Y-54718386D01*
X28576992Y-54732152D01*
X28538301Y-54709828D01*
X28500721Y-54671883D01*
X28477658Y-54637656D01*
X28448639Y-54610125D01*
X28391039Y-54545745D01*
X28330151Y-54508471D01*
X28261914Y-54507424D01*
X28152738Y-54541017D01*
X28083449Y-54559913D01*
X28070316Y-54557629D01*
X28054325Y-54549064D01*
X28037189Y-54523928D01*
X28023483Y-54473105D01*
X28017077Y-54335964D01*
X27479848Y-54298220D01*
X24514798Y-54282480D01*
X22927746Y-54287592D01*
X22627197Y-54345027D01*
X22344750Y-54362859D01*
X21704020Y-54359037D01*
X21670576Y-54345662D01*
X21637974Y-54313056D01*
X21620420Y-54272091D01*
X21619470Y-54160525D01*
X21618531Y-54141727D01*
X21618069Y-54141728D01*
X21618075Y-54141355D01*
X21780959Y-54141355D01*
X22316341Y-54140626D01*
X22316278Y-54136635D01*
X32703079Y-54136635D01*
X33142482Y-54915910D01*
X33142484Y-54915910D01*
X32703079Y-54136635D01*
X22316278Y-54136635D01*
X22314452Y-54021238D01*
X21780994Y-54015555D01*
X21780959Y-54141355D01*
X21618075Y-54141355D01*
X21619094Y-54076918D01*
X21618845Y-53956797D01*
X21619094Y-53909700D01*
X21631043Y-53849982D01*
X21654927Y-53826096D01*
X21690761Y-53802205D01*
X22424697Y-53826870D01*
X22908705Y-53898374D01*
X29589347Y-53964157D01*
X30692269Y-53911343D01*
X31014809Y-53894013D01*
X31760221Y-53875146D01*
X31848285Y-53799662D01*
X29611252Y-53803860D01*
X29560536Y-53761965D01*
X29527300Y-53435677D01*
X29518459Y-53128485D01*
X29524916Y-53003703D01*
X29550729Y-52962827D01*
X29599141Y-52938084D01*
X31606845Y-52936277D01*
X32000435Y-52961598D01*
X32526913Y-53044720D01*
X32866353Y-53103601D01*
X32997690Y-53115651D01*
X33149270Y-53094626D01*
X33190553Y-53091451D01*
X33266769Y-53104157D01*
X33417611Y-53126384D01*
X33711451Y-53126478D01*
X34088745Y-53112947D01*
X34090321Y-52657287D01*
X34109593Y-52640285D01*
X34201411Y-52624415D01*
X34284553Y-52613945D01*
X34365182Y-52619864D01*
X34459131Y-52651676D01*
X34502035Y-52682741D01*
X34506051Y-53038870D01*
X34516261Y-53071782D01*
X34539525Y-53095044D01*
X34586623Y-53126253D01*
X35135502Y-53087771D01*
X35143417Y-52894955D01*
X35185971Y-52881801D01*
X35325998Y-52843894D01*
X35360814Y-52845439D01*
X35388663Y-52908101D01*
X35417295Y-53018740D01*
X35435082Y-53054328D01*
X35468356Y-53092234D01*
X35501617Y-53107708D01*
X35521607Y-53099889D01*
X35564840Y-53061680D01*
X35599031Y-53034535D01*
X35620147Y-53034535D01*
X35655342Y-53058667D01*
X35739806Y-53071737D01*
X35923820Y-53065703D01*
X36190219Y-53017701D01*
X36297466Y-53005696D01*
X36430331Y-53005696D01*
X36539304Y-53023610D01*
X36604993Y-53060185D01*
X36622160Y-53104967D01*
X36627443Y-53300599D01*
X36615766Y-53542392D01*
X36598895Y-53623010D01*
X35989621Y-53619258D01*
X35442878Y-53585195D01*
X35373425Y-53616944D01*
X35300000Y-53648696D01*
X35171075Y-53647319D01*
X35084448Y-53614678D01*
X35043019Y-53588315D01*
X35004104Y-53599617D01*
X35007871Y-53703813D01*
X35137180Y-53705070D01*
X35194923Y-53723902D01*
X35245147Y-53759052D01*
X35285319Y-53802991D01*
X35307918Y-53839400D01*
X35419646Y-53839400D01*
X35487439Y-53858230D01*
X35545192Y-53898403D01*
X35594154Y-53947365D01*
X35628051Y-53982516D01*
X35646805Y-53983456D01*
X35673999Y-53966575D01*
X35704010Y-53961884D01*
X35731212Y-53961884D01*
X35772475Y-53972199D01*
X35825928Y-53997523D01*
X35858756Y-54030346D01*
X35887828Y-54069739D01*
X35900956Y-54119443D01*
X35883138Y-54182275D01*
X35851252Y-54222599D01*
X35843558Y-54242323D01*
X35870493Y-54259639D01*
X35974769Y-54302740D01*
X36152722Y-54370863D01*
X36877397Y-54381220D01*
X36957251Y-54360688D01*
X37019989Y-54325328D01*
X37087288Y-54255744D01*
X37118089Y-54239774D01*
X37191093Y-54210118D01*
X37261816Y-54186160D01*
X37318850Y-54135970D01*
X37332984Y-54104322D01*
X37332984Y-54068286D01*
X37306268Y-54012366D01*
X37284518Y-53957067D01*
X37264787Y-53863350D01*
X37265669Y-53372222D01*
X37008664Y-53164272D01*
X36826564Y-53025535D01*
X36676989Y-52897630D01*
X36553419Y-52810918D01*
X36497905Y-52794262D01*
X36450721Y-52797040D01*
X36404921Y-52813691D01*
X36379937Y-52828955D01*
X36286954Y-52754015D01*
X36286954Y-52712382D01*
X36309160Y-52663807D01*
X36377164Y-52608295D01*
X36489576Y-52554166D01*
X37046519Y-52280344D01*
X37201658Y-52195723D01*
X37255258Y-52116739D01*
X37269361Y-52094173D01*
X37275001Y-52043401D01*
X37325772Y-51930570D01*
X37506307Y-51673876D01*
X37727233Y-51413645D01*
X37925810Y-51222082D01*
X38096348Y-51107612D01*
X38210818Y-51051542D01*
X38411729Y-50967443D01*
X38694402Y-50892685D01*
X38876626Y-50873996D01*
X39033145Y-50892685D01*
G37*
X50993802Y-57856008D02*
X51276475Y-57930765D01*
X51477386Y-58014866D01*
X51591856Y-58070936D01*
X51762394Y-58185403D01*
X51960971Y-58376969D01*
X52181897Y-58637203D01*
X52362432Y-58893889D01*
X52413203Y-59006718D01*
X52418843Y-59057496D01*
X52432946Y-59080063D01*
X52486546Y-59159044D01*
X52641685Y-59243665D01*
X53198628Y-59517487D01*
X53311040Y-59571608D01*
X53379044Y-59627128D01*
X53401250Y-59675702D01*
X53401250Y-59717334D01*
X53308267Y-59792280D01*
X53283283Y-59777011D01*
X53237483Y-59760361D01*
X53190299Y-59757582D01*
X53134785Y-59774238D01*
X53011215Y-59860952D01*
X52861640Y-59988856D01*
X52679540Y-60127595D01*
X52422535Y-60335545D01*
X52423417Y-60826675D01*
X52403686Y-60920390D01*
X52381936Y-60975684D01*
X52355220Y-61031605D01*
X52355220Y-61067643D01*
X52369354Y-61099290D01*
X52426388Y-61149482D01*
X52497111Y-61173436D01*
X52570115Y-61203098D01*
X52600916Y-61219062D01*
X52668215Y-61288646D01*
X52730953Y-61324007D01*
X52810807Y-61344538D01*
X53535482Y-61334181D01*
X53713435Y-61266059D01*
X53817711Y-61222960D01*
X53844646Y-61205645D01*
X53836952Y-61185923D01*
X53805066Y-61145598D01*
X53787248Y-61082763D01*
X53800376Y-61033057D01*
X53829448Y-60993671D01*
X53862276Y-60960844D01*
X53915729Y-60935522D01*
X53956992Y-60925205D01*
X53984194Y-60925205D01*
X54014205Y-60929901D01*
X54041399Y-60946779D01*
X54060153Y-60945839D01*
X54094050Y-60910687D01*
X54143012Y-60861724D01*
X54200765Y-60821554D01*
X54268558Y-60802721D01*
X54380286Y-60802721D01*
X54402885Y-60766317D01*
X54443057Y-60722375D01*
X54493281Y-60687224D01*
X54551024Y-60668390D01*
X54680333Y-60667137D01*
X54684100Y-60562936D01*
X54645185Y-60551635D01*
X54603756Y-60578002D01*
X54517129Y-60610640D01*
X54388204Y-60612019D01*
X54314779Y-60580268D01*
X54245326Y-60548517D01*
X53698583Y-60582582D01*
X53089309Y-60586328D01*
X53072438Y-60505715D01*
X53060761Y-60263919D01*
X53066044Y-60068294D01*
X53083211Y-60023506D01*
X53148900Y-59986930D01*
X53257873Y-59969017D01*
X53390738Y-59969017D01*
X53497985Y-59981025D01*
X53764384Y-60029027D01*
X53948398Y-60035056D01*
X54032862Y-60021990D01*
X54068057Y-59997854D01*
X54089173Y-59997854D01*
X54123364Y-60025001D01*
X54166597Y-60063214D01*
X54186587Y-60071033D01*
X54219848Y-60055555D01*
X54253122Y-60017648D01*
X54270909Y-59982061D01*
X54299541Y-59871427D01*
X54327390Y-59808760D01*
X54362206Y-59807215D01*
X54502233Y-59845119D01*
X54544787Y-59858277D01*
X54552702Y-60051090D01*
X55101581Y-60089573D01*
X55148679Y-60058364D01*
X55171943Y-60035103D01*
X55182153Y-60002194D01*
X55186169Y-59646062D01*
X55229073Y-59614995D01*
X55323022Y-59583187D01*
X55403651Y-59577265D01*
X55486793Y-59587734D01*
X55578611Y-59603604D01*
X55597883Y-59620609D01*
X55599459Y-60076263D01*
X55976753Y-60089798D01*
X56270593Y-60089704D01*
X56421435Y-60067474D01*
X56497651Y-60054776D01*
X56538934Y-60057947D01*
X56690514Y-60078977D01*
X56821851Y-60066925D01*
X57161291Y-60008042D01*
X57687769Y-59924913D01*
X58081359Y-59899596D01*
X60089063Y-59901403D01*
X60137475Y-59926145D01*
X60163288Y-59967026D01*
X60169745Y-60091807D01*
X60160904Y-60398998D01*
X60127668Y-60725282D01*
X60076952Y-60767181D01*
X57839919Y-60762983D01*
X57927983Y-60838466D01*
X58673395Y-60857337D01*
X58995935Y-60874665D01*
X60098857Y-60927484D01*
X66779499Y-60861696D01*
X67263507Y-60790191D01*
X67997443Y-60765529D01*
X68033277Y-60789414D01*
X68057161Y-60813303D01*
X68069110Y-60873022D01*
X68069359Y-60920120D01*
X68069110Y-61040240D01*
X68070135Y-61105049D01*
X68069672Y-61105048D01*
X68068734Y-61123847D01*
X68067784Y-61235413D01*
X68050230Y-61276376D01*
X68017628Y-61308983D01*
X67984184Y-61322360D01*
X67343454Y-61326176D01*
X67061007Y-61308354D01*
X66760458Y-61250914D01*
X65173406Y-61245800D01*
X62208356Y-61261536D01*
X61671127Y-61299287D01*
X61664721Y-61436421D01*
X61651015Y-61487254D01*
X61633879Y-61512381D01*
X61617888Y-61520949D01*
X61604755Y-61523235D01*
X61535466Y-61504338D01*
X61426290Y-61470746D01*
X61358053Y-61471797D01*
X61297165Y-61509064D01*
X61239565Y-61573443D01*
X61210546Y-61600976D01*
X61187483Y-61635200D01*
X61149903Y-61673150D01*
X61111212Y-61695474D01*
X61089263Y-61681708D01*
X61065080Y-61657156D01*
X61042465Y-61618491D01*
X61020355Y-61580302D01*
X60987193Y-61537594D01*
X60945992Y-61511968D01*
X60867723Y-61504534D01*
X60822522Y-61532067D01*
X60754718Y-61564530D01*
X60680337Y-61588361D01*
X60618621Y-61595317D01*
X60130993Y-61605166D01*
X60071482Y-61609358D01*
X60012812Y-61643725D01*
X59973417Y-61673896D01*
X59929832Y-61673059D01*
X59918937Y-61663002D01*
X59892950Y-61636174D01*
X59859425Y-61602652D01*
X59828410Y-61604330D01*
X59794048Y-61629473D01*
X59752972Y-61676413D01*
X59703524Y-61711612D01*
X59662452Y-61729215D01*
X59592261Y-61746936D01*
X59445578Y-61756874D01*
X58680246Y-61752643D01*
X58646850Y-61843440D01*
X58586316Y-61940491D01*
X58464354Y-62052447D01*
X58326489Y-62154354D01*
X58176629Y-62250261D01*
X58131076Y-62280233D01*
X57883528Y-62345218D01*
X57626325Y-62413715D01*
X57483745Y-62454250D01*
X57383103Y-62532529D01*
X57295037Y-62617794D01*
X57237630Y-62670730D01*
X57163442Y-62720187D01*
X57092006Y-62777883D01*
X57061781Y-62843828D01*
X57043228Y-62946792D01*
X57036750Y-62972687D01*
X57069121Y-63077902D01*
X57069121Y-63128079D01*
X57059413Y-63191208D01*
X56989810Y-63372489D01*
X56859889Y-63614141D01*
X56737854Y-63817535D01*
X56610524Y-64027047D01*
X56596669Y-64057281D01*
X56580287Y-64153030D01*
X56565171Y-64184526D01*
X56343803Y-64609595D01*
X56242248Y-64791745D01*
X56131025Y-65006131D01*
X56061691Y-65114919D01*
X55919614Y-65273576D01*
X55734910Y-65467750D01*
X55547838Y-65650083D01*
X55322030Y-65843988D01*
X55205473Y-65937259D01*
X55265198Y-66068639D01*
X55348804Y-66271688D01*
X55432414Y-66546400D01*
X55492131Y-67119706D01*
X55495737Y-67465733D01*
X55503753Y-67682179D01*
X55539827Y-67842507D01*
X55539827Y-67882585D01*
X55491727Y-68042916D01*
X55487718Y-68471794D01*
X55487718Y-68876620D01*
X55383857Y-70250179D01*
X55344778Y-70628650D01*
X55315870Y-70952758D01*
X55295972Y-71304228D01*
X55305925Y-71546276D01*
X55321835Y-71724328D01*
X55321835Y-71809775D01*
X55282397Y-71937288D01*
X55236608Y-72053682D01*
X55195246Y-72084160D01*
X55122321Y-72109192D01*
X55022183Y-72146202D01*
X55096203Y-72228923D01*
X55208362Y-72374910D01*
X55304457Y-72512188D01*
X55444672Y-72791147D01*
X55524831Y-72890474D01*
X55613710Y-72989808D01*
X55709552Y-73108302D01*
X55800165Y-73190211D01*
X56040322Y-73363836D01*
X56161682Y-73422337D01*
X56268208Y-73450283D01*
X56545373Y-73470517D01*
X56634581Y-73522206D01*
X56700444Y-73590571D01*
X56752639Y-73696161D01*
X56793214Y-73821058D01*
X56824335Y-73961587D01*
X56827706Y-74052524D01*
X56818721Y-74112030D01*
X56760341Y-74158060D01*
X56547042Y-74223560D01*
X55710711Y-74483178D01*
X55470913Y-74477231D01*
X55116314Y-74469938D01*
X55040314Y-74452830D01*
X54958274Y-74411052D01*
X54902048Y-74353603D01*
X54654674Y-74124816D01*
X54625463Y-74123315D01*
X54501745Y-74171214D01*
X54284070Y-74241868D01*
X53971473Y-74233305D01*
X53667173Y-74212467D01*
X53493979Y-74193657D01*
X53421100Y-74167014D01*
X53372813Y-74131548D01*
X53320580Y-74070616D01*
X53286021Y-74017235D01*
X53273381Y-73898340D01*
X53252953Y-73790726D01*
X53247502Y-73683123D01*
X53266575Y-73557817D01*
X53315553Y-73399174D01*
X53341921Y-73169636D01*
X53355880Y-73039368D01*
X53365228Y-72999046D01*
X53391193Y-72542507D01*
X53362020Y-72390156D01*
X53353038Y-72288424D01*
X53318299Y-72121895D01*
X53291710Y-71963778D01*
X53269410Y-71799720D01*
X53266092Y-71623239D01*
X53280676Y-71450673D01*
X53307826Y-71322546D01*
X53333414Y-71234185D01*
X53354720Y-71156681D01*
X53378929Y-71085445D01*
X53399993Y-71016015D01*
X53416568Y-70935104D01*
X53417231Y-70857509D01*
X53406617Y-70803787D01*
X53379239Y-70737419D01*
X53368379Y-70675901D01*
X53373811Y-70612566D01*
X53408187Y-70520288D01*
X53437772Y-70428184D01*
X53484183Y-70326684D01*
X53505553Y-70232110D01*
X53504280Y-70093315D01*
X53486870Y-69995958D01*
X53465476Y-69855822D01*
X53432828Y-69687514D01*
X53437771Y-69582323D01*
X53456448Y-69486049D01*
X53457887Y-69371097D01*
X53409646Y-69010601D01*
X53360351Y-68737086D01*
X53202920Y-68902468D01*
X53010617Y-69059853D01*
X52873419Y-69165607D01*
X52553920Y-69389060D01*
X52123936Y-69651827D01*
X51705899Y-69902650D01*
X51550631Y-69950425D01*
X51294864Y-70071701D01*
X50886161Y-70257191D01*
X50136590Y-70622888D01*
X49907646Y-70717694D01*
X49852174Y-70718702D01*
X49811155Y-70806388D01*
X49611059Y-71160996D01*
X49512747Y-71433061D01*
X49448363Y-71587126D01*
X49566785Y-71731991D01*
X49664509Y-71898699D01*
X49689521Y-72002092D01*
X49707151Y-72180351D01*
X49666012Y-72491812D01*
X49599618Y-72726961D01*
X49515362Y-72932219D01*
X49441239Y-73090041D01*
X49356850Y-73184852D01*
X49260999Y-73264031D01*
X49141186Y-73346337D01*
X49048806Y-73381276D01*
X48881551Y-73387648D01*
X48857820Y-73404426D01*
X48852449Y-73495167D01*
X48885575Y-73631064D01*
X48887128Y-73724710D01*
X48870817Y-73791736D01*
X48522270Y-74245991D01*
X48094751Y-74562924D01*
X47987453Y-74599235D01*
X47917923Y-74640109D01*
X47871770Y-74702923D01*
X47856387Y-74754200D01*
X47817930Y-74804197D01*
X47691019Y-74860605D01*
X47541025Y-74946494D01*
X47342327Y-75024696D01*
X47233374Y-75038971D01*
X47141398Y-75036184D01*
X46790217Y-75013888D01*
X46606263Y-74980445D01*
X46483637Y-74935842D01*
X46377723Y-74888470D01*
X46294108Y-74821575D01*
X46210491Y-74737963D01*
X46121307Y-74595819D01*
X45987801Y-74481768D01*
X45914278Y-74391443D01*
X45855468Y-74238101D01*
X45838661Y-73786484D01*
X45858947Y-73614841D01*
X45883713Y-73519011D01*
X45878326Y-73451180D01*
X45824130Y-73288807D01*
X45827126Y-73198814D01*
X45843628Y-73152322D01*
X45830130Y-73111831D01*
X45750643Y-73029341D01*
X45644156Y-72922860D01*
X45593648Y-72836881D01*
X45568731Y-72755914D01*
X45568731Y-72650029D01*
X45556199Y-72530060D01*
X45527966Y-72370830D01*
X45523482Y-72193704D01*
X45537313Y-72093430D01*
X45604737Y-71929197D01*
X45673892Y-71818550D01*
X45768975Y-71711363D01*
X45964047Y-71502367D01*
X46026927Y-71367623D01*
X46092048Y-71176753D01*
X46159744Y-70966510D01*
X46171959Y-70816243D01*
X46208968Y-70662827D01*
X46279538Y-70473796D01*
X46347479Y-70278811D01*
X46353305Y-70186278D01*
X46236533Y-70125414D01*
X46120469Y-70030581D01*
X46065790Y-69954790D01*
X45947139Y-69691450D01*
X45816036Y-69377630D01*
X45571768Y-69393783D01*
X45462753Y-69290825D01*
X45307312Y-69070784D01*
X45188204Y-68913317D01*
X45027685Y-68739356D01*
X44976905Y-68673475D01*
X44853371Y-68447004D01*
X44745896Y-68269791D01*
X44692718Y-68154866D01*
X44654230Y-68077886D01*
X44655557Y-68002231D01*
X44668288Y-67958560D01*
X44755146Y-67799733D01*
X44807043Y-67669046D01*
X44829433Y-67511509D01*
X44808171Y-67363057D01*
X44758058Y-67241365D01*
X44719882Y-67161428D01*
X44722616Y-67081658D01*
X44767862Y-66962673D01*
X44849978Y-66848718D01*
X44933770Y-66764927D01*
X45024262Y-66699567D01*
X45116433Y-66661022D01*
X45242120Y-66642589D01*
X45391267Y-66637561D01*
X45587287Y-66653622D01*
X45669214Y-66685901D01*
X45767280Y-66720656D01*
X45835554Y-66754170D01*
X45939827Y-66669763D01*
X46026722Y-66611419D01*
X46072652Y-66581624D01*
X46111135Y-66596525D01*
X46134721Y-66603968D01*
X46224095Y-66499696D01*
X46306666Y-66388509D01*
X46363789Y-66345316D01*
X46464105Y-66271471D01*
X46496147Y-66226892D01*
X46571481Y-65988069D01*
X46653609Y-65773410D01*
X46650383Y-65734406D01*
X46495646Y-65683552D01*
X46496771Y-65662544D01*
X52613640Y-65662544D01*
X52625585Y-65722266D01*
X52697245Y-65805874D01*
X52804742Y-65805874D01*
X53019733Y-65781987D01*
X53258611Y-65746157D01*
X53593041Y-65650602D01*
X53819980Y-65590885D01*
X53785033Y-65550829D01*
X53728702Y-65481691D01*
X53677064Y-65411004D01*
X53643066Y-65366302D01*
X53629215Y-65378896D01*
X53554295Y-65433671D01*
X53480001Y-65489070D01*
X53412640Y-65494109D01*
X53365423Y-65472072D01*
X53334254Y-65430298D01*
X53285596Y-65346252D01*
X53250207Y-65254240D01*
X53210550Y-65158931D01*
X53190404Y-65086197D01*
X53156836Y-65002272D01*
X53131097Y-64996679D01*
X53051649Y-64970940D01*
X52995701Y-64925064D01*
X52943104Y-64878064D01*
X52875969Y-64818759D01*
X52780857Y-64840020D01*
X52666718Y-64845614D01*
X52670073Y-64976535D01*
X52789805Y-65020177D01*
X52823378Y-65035847D01*
X52822412Y-65135602D01*
X52804718Y-65187494D01*
X52744571Y-65257076D01*
X52696217Y-65317224D01*
X52700940Y-65364397D01*
X52722165Y-65411576D01*
X52718622Y-65463466D01*
X52699493Y-65498888D01*
X52632555Y-65594702D01*
X52613640Y-65662544D01*
X46496771Y-65662544D01*
X46509261Y-65429410D01*
X46479196Y-65369288D01*
X46455464Y-65302838D01*
X46455464Y-65201573D01*
X46483941Y-65071835D01*
X46541812Y-64893465D01*
X46590775Y-64630843D01*
X46648238Y-64385645D01*
X46690485Y-64222995D01*
X46690485Y-64144834D01*
X46650348Y-64068788D01*
X46570079Y-63933591D01*
X46500372Y-63747707D01*
X46479209Y-63620640D01*
X46472027Y-63448262D01*
X46481763Y-63237811D01*
X46538802Y-62822205D01*
X46559579Y-62505540D01*
X46572335Y-62430617D01*
X46602939Y-62351428D01*
X53801413Y-62351428D01*
X53857142Y-62421754D01*
X53929672Y-62532252D01*
X53968529Y-62633664D01*
X54033057Y-62738948D01*
X54106076Y-62820453D01*
X54231739Y-62930837D01*
X54449099Y-63129516D01*
X54602870Y-63307062D01*
X54701840Y-63463926D01*
X54825934Y-63668951D01*
X54883871Y-63754855D01*
X54914833Y-63808797D01*
X54933814Y-63814793D01*
X54959783Y-63797810D01*
X55011729Y-63774832D01*
X55073662Y-63743866D01*
X55127603Y-63723888D01*
X55165561Y-63713899D01*
X55253466Y-63671947D01*
X55334145Y-63595649D01*
X55406707Y-63484932D01*
X55479083Y-63370139D01*
X55551197Y-63262465D01*
X55650196Y-63117880D01*
X55755934Y-62944851D01*
X55850446Y-62831832D01*
X55922113Y-62724335D01*
X55981835Y-62628786D01*
X54840920Y-62707739D01*
X54815641Y-62704765D01*
X54804486Y-62701792D01*
X54782186Y-62671305D01*
X54765083Y-62649000D01*
X54767424Y-62244147D01*
X54746869Y-62262309D01*
X54716762Y-62302456D01*
X54682350Y-62382268D01*
X54646509Y-62453953D01*
X54615922Y-62482628D01*
X54594892Y-62485496D01*
X54595744Y-62283915D01*
X54543106Y-62306316D01*
X54353373Y-62359386D01*
X54117198Y-62373986D01*
X53973904Y-62372658D01*
X53801413Y-62351428D01*
X46602939Y-62351428D01*
X46733162Y-62014468D01*
X46772050Y-61939720D01*
X54582234Y-61939720D01*
X54596334Y-61947980D01*
X54597042Y-61976702D01*
X54597165Y-61947758D01*
X54582234Y-61939720D01*
X46772050Y-61939720D01*
X46803518Y-61879234D01*
X56545719Y-61879234D01*
X56545722Y-61879234D01*
X56982878Y-61103947D01*
X67371863Y-61103947D01*
X67907244Y-61104675D01*
X67907210Y-60978878D01*
X67373752Y-60984558D01*
X67371863Y-61103947D01*
X56982878Y-61103947D01*
X56985125Y-61099962D01*
X56545719Y-61879234D01*
X46803518Y-61879234D01*
X46954557Y-61588912D01*
X47129259Y-61374699D01*
X47235240Y-61286587D01*
X47350410Y-61208734D01*
X47383470Y-61197005D01*
X47493323Y-61123419D01*
X47569037Y-61104223D01*
X47620218Y-61097824D01*
X47566900Y-60982652D01*
X47544505Y-60980521D01*
X47503983Y-61035971D01*
X47464521Y-61082897D01*
X47416534Y-61117021D01*
X47367476Y-61154350D01*
X47309890Y-61183143D01*
X47254433Y-61198072D01*
X47193646Y-61189541D01*
X47147790Y-61155410D01*
X47118998Y-61119153D01*
X47099801Y-61086096D01*
X47082738Y-61042372D01*
X47084298Y-60975717D01*
X47095454Y-60933114D01*
X47134005Y-60888475D01*
X47165451Y-60857029D01*
X47201969Y-60837759D01*
X47235443Y-60822545D01*
X47265875Y-60804282D01*
X47265875Y-60782982D01*
X47255730Y-60764720D01*
X47229733Y-60727813D01*
X47228971Y-60682152D01*
X47238480Y-60631545D01*
X47259784Y-60582320D01*
X47329044Y-60539854D01*
X47407913Y-60506487D01*
X47477680Y-60490817D01*
X47608340Y-60490866D01*
X47848474Y-60482327D01*
X48124896Y-60421490D01*
X48292313Y-60350248D01*
X48417128Y-60316113D01*
X48539812Y-60303312D01*
X48615554Y-60305447D01*
X48719914Y-60335545D01*
X48839351Y-60359433D01*
X48994621Y-60371378D01*
X49114066Y-60419153D01*
X49185727Y-60490818D01*
X49221558Y-60550537D01*
X49281280Y-60550537D01*
X49400719Y-60490818D01*
X49424606Y-60443041D01*
X49428059Y-60325259D01*
X49370823Y-59808297D01*
X49344126Y-59089629D01*
X49380499Y-58922311D01*
X49489620Y-58696803D01*
X49670176Y-58463518D01*
X49797984Y-58310862D01*
X49897396Y-58218548D01*
X50012774Y-58138673D01*
X50117506Y-58072992D01*
X50311643Y-58003183D01*
X50393408Y-57958798D01*
X50540585Y-57884040D01*
X50655059Y-57856008D01*
X50811578Y-57837317D01*
X50993802Y-57856008D01*
G36*
X50993802Y-57856008D02*
G01*
X51276475Y-57930765D01*
X51477386Y-58014866D01*
X51591856Y-58070936D01*
X51762394Y-58185403D01*
X51960971Y-58376969D01*
X52181897Y-58637203D01*
X52362432Y-58893889D01*
X52413203Y-59006718D01*
X52418843Y-59057496D01*
X52432946Y-59080063D01*
X52486546Y-59159044D01*
X52641685Y-59243665D01*
X53198628Y-59517487D01*
X53311040Y-59571608D01*
X53379044Y-59627128D01*
X53401250Y-59675702D01*
X53401250Y-59717334D01*
X53308267Y-59792280D01*
X53283283Y-59777011D01*
X53237483Y-59760361D01*
X53190299Y-59757582D01*
X53134785Y-59774238D01*
X53011215Y-59860952D01*
X52861640Y-59988856D01*
X52679540Y-60127595D01*
X52422535Y-60335545D01*
X52423417Y-60826675D01*
X52403686Y-60920390D01*
X52381936Y-60975684D01*
X52355220Y-61031605D01*
X52355220Y-61067643D01*
X52369354Y-61099290D01*
X52426388Y-61149482D01*
X52497111Y-61173436D01*
X52570115Y-61203098D01*
X52600916Y-61219062D01*
X52668215Y-61288646D01*
X52730953Y-61324007D01*
X52810807Y-61344538D01*
X53535482Y-61334181D01*
X53713435Y-61266059D01*
X53817711Y-61222960D01*
X53844646Y-61205645D01*
X53836952Y-61185923D01*
X53805066Y-61145598D01*
X53787248Y-61082763D01*
X53800376Y-61033057D01*
X53829448Y-60993671D01*
X53862276Y-60960844D01*
X53915729Y-60935522D01*
X53956992Y-60925205D01*
X53984194Y-60925205D01*
X54014205Y-60929901D01*
X54041399Y-60946779D01*
X54060153Y-60945839D01*
X54094050Y-60910687D01*
X54143012Y-60861724D01*
X54200765Y-60821554D01*
X54268558Y-60802721D01*
X54380286Y-60802721D01*
X54402885Y-60766317D01*
X54443057Y-60722375D01*
X54493281Y-60687224D01*
X54551024Y-60668390D01*
X54680333Y-60667137D01*
X54684100Y-60562936D01*
X54645185Y-60551635D01*
X54603756Y-60578002D01*
X54517129Y-60610640D01*
X54388204Y-60612019D01*
X54314779Y-60580268D01*
X54245326Y-60548517D01*
X53698583Y-60582582D01*
X53089309Y-60586328D01*
X53072438Y-60505715D01*
X53060761Y-60263919D01*
X53066044Y-60068294D01*
X53083211Y-60023506D01*
X53148900Y-59986930D01*
X53257873Y-59969017D01*
X53390738Y-59969017D01*
X53497985Y-59981025D01*
X53764384Y-60029027D01*
X53948398Y-60035056D01*
X54032862Y-60021990D01*
X54068057Y-59997854D01*
X54089173Y-59997854D01*
X54123364Y-60025001D01*
X54166597Y-60063214D01*
X54186587Y-60071033D01*
X54219848Y-60055555D01*
X54253122Y-60017648D01*
X54270909Y-59982061D01*
X54299541Y-59871427D01*
X54327390Y-59808760D01*
X54362206Y-59807215D01*
X54502233Y-59845119D01*
X54544787Y-59858277D01*
X54552702Y-60051090D01*
X55101581Y-60089573D01*
X55148679Y-60058364D01*
X55171943Y-60035103D01*
X55182153Y-60002194D01*
X55186169Y-59646062D01*
X55229073Y-59614995D01*
X55323022Y-59583187D01*
X55403651Y-59577265D01*
X55486793Y-59587734D01*
X55578611Y-59603604D01*
X55597883Y-59620609D01*
X55599459Y-60076263D01*
X55976753Y-60089798D01*
X56270593Y-60089704D01*
X56421435Y-60067474D01*
X56497651Y-60054776D01*
X56538934Y-60057947D01*
X56690514Y-60078977D01*
X56821851Y-60066925D01*
X57161291Y-60008042D01*
X57687769Y-59924913D01*
X58081359Y-59899596D01*
X60089063Y-59901403D01*
X60137475Y-59926145D01*
X60163288Y-59967026D01*
X60169745Y-60091807D01*
X60160904Y-60398998D01*
X60127668Y-60725282D01*
X60076952Y-60767181D01*
X57839919Y-60762983D01*
X57927983Y-60838466D01*
X58673395Y-60857337D01*
X58995935Y-60874665D01*
X60098857Y-60927484D01*
X66779499Y-60861696D01*
X67263507Y-60790191D01*
X67997443Y-60765529D01*
X68033277Y-60789414D01*
X68057161Y-60813303D01*
X68069110Y-60873022D01*
X68069359Y-60920120D01*
X68069110Y-61040240D01*
X68070135Y-61105049D01*
X68069672Y-61105048D01*
X68068734Y-61123847D01*
X68067784Y-61235413D01*
X68050230Y-61276376D01*
X68017628Y-61308983D01*
X67984184Y-61322360D01*
X67343454Y-61326176D01*
X67061007Y-61308354D01*
X66760458Y-61250914D01*
X65173406Y-61245800D01*
X62208356Y-61261536D01*
X61671127Y-61299287D01*
X61664721Y-61436421D01*
X61651015Y-61487254D01*
X61633879Y-61512381D01*
X61617888Y-61520949D01*
X61604755Y-61523235D01*
X61535466Y-61504338D01*
X61426290Y-61470746D01*
X61358053Y-61471797D01*
X61297165Y-61509064D01*
X61239565Y-61573443D01*
X61210546Y-61600976D01*
X61187483Y-61635200D01*
X61149903Y-61673150D01*
X61111212Y-61695474D01*
X61089263Y-61681708D01*
X61065080Y-61657156D01*
X61042465Y-61618491D01*
X61020355Y-61580302D01*
X60987193Y-61537594D01*
X60945992Y-61511968D01*
X60867723Y-61504534D01*
X60822522Y-61532067D01*
X60754718Y-61564530D01*
X60680337Y-61588361D01*
X60618621Y-61595317D01*
X60130993Y-61605166D01*
X60071482Y-61609358D01*
X60012812Y-61643725D01*
X59973417Y-61673896D01*
X59929832Y-61673059D01*
X59918937Y-61663002D01*
X59892950Y-61636174D01*
X59859425Y-61602652D01*
X59828410Y-61604330D01*
X59794048Y-61629473D01*
X59752972Y-61676413D01*
X59703524Y-61711612D01*
X59662452Y-61729215D01*
X59592261Y-61746936D01*
X59445578Y-61756874D01*
X58680246Y-61752643D01*
X58646850Y-61843440D01*
X58586316Y-61940491D01*
X58464354Y-62052447D01*
X58326489Y-62154354D01*
X58176629Y-62250261D01*
X58131076Y-62280233D01*
X57883528Y-62345218D01*
X57626325Y-62413715D01*
X57483745Y-62454250D01*
X57383103Y-62532529D01*
X57295037Y-62617794D01*
X57237630Y-62670730D01*
X57163442Y-62720187D01*
X57092006Y-62777883D01*
X57061781Y-62843828D01*
X57043228Y-62946792D01*
X57036750Y-62972687D01*
X57069121Y-63077902D01*
X57069121Y-63128079D01*
X57059413Y-63191208D01*
X56989810Y-63372489D01*
X56859889Y-63614141D01*
X56737854Y-63817535D01*
X56610524Y-64027047D01*
X56596669Y-64057281D01*
X56580287Y-64153030D01*
X56565171Y-64184526D01*
X56343803Y-64609595D01*
X56242248Y-64791745D01*
X56131025Y-65006131D01*
X56061691Y-65114919D01*
X55919614Y-65273576D01*
X55734910Y-65467750D01*
X55547838Y-65650083D01*
X55322030Y-65843988D01*
X55205473Y-65937259D01*
X55265198Y-66068639D01*
X55348804Y-66271688D01*
X55432414Y-66546400D01*
X55492131Y-67119706D01*
X55495737Y-67465733D01*
X55503753Y-67682179D01*
X55539827Y-67842507D01*
X55539827Y-67882585D01*
X55491727Y-68042916D01*
X55487718Y-68471794D01*
X55487718Y-68876620D01*
X55383857Y-70250179D01*
X55344778Y-70628650D01*
X55315870Y-70952758D01*
X55295972Y-71304228D01*
X55305925Y-71546276D01*
X55321835Y-71724328D01*
X55321835Y-71809775D01*
X55282397Y-71937288D01*
X55236608Y-72053682D01*
X55195246Y-72084160D01*
X55122321Y-72109192D01*
X55022183Y-72146202D01*
X55096203Y-72228923D01*
X55208362Y-72374910D01*
X55304457Y-72512188D01*
X55444672Y-72791147D01*
X55524831Y-72890474D01*
X55613710Y-72989808D01*
X55709552Y-73108302D01*
X55800165Y-73190211D01*
X56040322Y-73363836D01*
X56161682Y-73422337D01*
X56268208Y-73450283D01*
X56545373Y-73470517D01*
X56634581Y-73522206D01*
X56700444Y-73590571D01*
X56752639Y-73696161D01*
X56793214Y-73821058D01*
X56824335Y-73961587D01*
X56827706Y-74052524D01*
X56818721Y-74112030D01*
X56760341Y-74158060D01*
X56547042Y-74223560D01*
X55710711Y-74483178D01*
X55470913Y-74477231D01*
X55116314Y-74469938D01*
X55040314Y-74452830D01*
X54958274Y-74411052D01*
X54902048Y-74353603D01*
X54654674Y-74124816D01*
X54625463Y-74123315D01*
X54501745Y-74171214D01*
X54284070Y-74241868D01*
X53971473Y-74233305D01*
X53667173Y-74212467D01*
X53493979Y-74193657D01*
X53421100Y-74167014D01*
X53372813Y-74131548D01*
X53320580Y-74070616D01*
X53286021Y-74017235D01*
X53273381Y-73898340D01*
X53252953Y-73790726D01*
X53247502Y-73683123D01*
X53266575Y-73557817D01*
X53315553Y-73399174D01*
X53341921Y-73169636D01*
X53355880Y-73039368D01*
X53365228Y-72999046D01*
X53391193Y-72542507D01*
X53362020Y-72390156D01*
X53353038Y-72288424D01*
X53318299Y-72121895D01*
X53291710Y-71963778D01*
X53269410Y-71799720D01*
X53266092Y-71623239D01*
X53280676Y-71450673D01*
X53307826Y-71322546D01*
X53333414Y-71234185D01*
X53354720Y-71156681D01*
X53378929Y-71085445D01*
X53399993Y-71016015D01*
X53416568Y-70935104D01*
X53417231Y-70857509D01*
X53406617Y-70803787D01*
X53379239Y-70737419D01*
X53368379Y-70675901D01*
X53373811Y-70612566D01*
X53408187Y-70520288D01*
X53437772Y-70428184D01*
X53484183Y-70326684D01*
X53505553Y-70232110D01*
X53504280Y-70093315D01*
X53486870Y-69995958D01*
X53465476Y-69855822D01*
X53432828Y-69687514D01*
X53437771Y-69582323D01*
X53456448Y-69486049D01*
X53457887Y-69371097D01*
X53409646Y-69010601D01*
X53360351Y-68737086D01*
X53202920Y-68902468D01*
X53010617Y-69059853D01*
X52873419Y-69165607D01*
X52553920Y-69389060D01*
X52123936Y-69651827D01*
X51705899Y-69902650D01*
X51550631Y-69950425D01*
X51294864Y-70071701D01*
X50886161Y-70257191D01*
X50136590Y-70622888D01*
X49907646Y-70717694D01*
X49852174Y-70718702D01*
X49811155Y-70806388D01*
X49611059Y-71160996D01*
X49512747Y-71433061D01*
X49448363Y-71587126D01*
X49566785Y-71731991D01*
X49664509Y-71898699D01*
X49689521Y-72002092D01*
X49707151Y-72180351D01*
X49666012Y-72491812D01*
X49599618Y-72726961D01*
X49515362Y-72932219D01*
X49441239Y-73090041D01*
X49356850Y-73184852D01*
X49260999Y-73264031D01*
X49141186Y-73346337D01*
X49048806Y-73381276D01*
X48881551Y-73387648D01*
X48857820Y-73404426D01*
X48852449Y-73495167D01*
X48885575Y-73631064D01*
X48887128Y-73724710D01*
X48870817Y-73791736D01*
X48522270Y-74245991D01*
X48094751Y-74562924D01*
X47987453Y-74599235D01*
X47917923Y-74640109D01*
X47871770Y-74702923D01*
X47856387Y-74754200D01*
X47817930Y-74804197D01*
X47691019Y-74860605D01*
X47541025Y-74946494D01*
X47342327Y-75024696D01*
X47233374Y-75038971D01*
X47141398Y-75036184D01*
X46790217Y-75013888D01*
X46606263Y-74980445D01*
X46483637Y-74935842D01*
X46377723Y-74888470D01*
X46294108Y-74821575D01*
X46210491Y-74737963D01*
X46121307Y-74595819D01*
X45987801Y-74481768D01*
X45914278Y-74391443D01*
X45855468Y-74238101D01*
X45838661Y-73786484D01*
X45858947Y-73614841D01*
X45883713Y-73519011D01*
X45878326Y-73451180D01*
X45824130Y-73288807D01*
X45827126Y-73198814D01*
X45843628Y-73152322D01*
X45830130Y-73111831D01*
X45750643Y-73029341D01*
X45644156Y-72922860D01*
X45593648Y-72836881D01*
X45568731Y-72755914D01*
X45568731Y-72650029D01*
X45556199Y-72530060D01*
X45527966Y-72370830D01*
X45523482Y-72193704D01*
X45537313Y-72093430D01*
X45604737Y-71929197D01*
X45673892Y-71818550D01*
X45768975Y-71711363D01*
X45964047Y-71502367D01*
X46026927Y-71367623D01*
X46092048Y-71176753D01*
X46159744Y-70966510D01*
X46171959Y-70816243D01*
X46208968Y-70662827D01*
X46279538Y-70473796D01*
X46347479Y-70278811D01*
X46353305Y-70186278D01*
X46236533Y-70125414D01*
X46120469Y-70030581D01*
X46065790Y-69954790D01*
X45947139Y-69691450D01*
X45816036Y-69377630D01*
X45571768Y-69393783D01*
X45462753Y-69290825D01*
X45307312Y-69070784D01*
X45188204Y-68913317D01*
X45027685Y-68739356D01*
X44976905Y-68673475D01*
X44853371Y-68447004D01*
X44745896Y-68269791D01*
X44692718Y-68154866D01*
X44654230Y-68077886D01*
X44655557Y-68002231D01*
X44668288Y-67958560D01*
X44755146Y-67799733D01*
X44807043Y-67669046D01*
X44829433Y-67511509D01*
X44808171Y-67363057D01*
X44758058Y-67241365D01*
X44719882Y-67161428D01*
X44722616Y-67081658D01*
X44767862Y-66962673D01*
X44849978Y-66848718D01*
X44933770Y-66764927D01*
X45024262Y-66699567D01*
X45116433Y-66661022D01*
X45242120Y-66642589D01*
X45391267Y-66637561D01*
X45587287Y-66653622D01*
X45669214Y-66685901D01*
X45767280Y-66720656D01*
X45835554Y-66754170D01*
X45939827Y-66669763D01*
X46026722Y-66611419D01*
X46072652Y-66581624D01*
X46111135Y-66596525D01*
X46134721Y-66603968D01*
X46224095Y-66499696D01*
X46306666Y-66388509D01*
X46363789Y-66345316D01*
X46464105Y-66271471D01*
X46496147Y-66226892D01*
X46571481Y-65988069D01*
X46653609Y-65773410D01*
X46650383Y-65734406D01*
X46495646Y-65683552D01*
X46496771Y-65662544D01*
X52613640Y-65662544D01*
X52625585Y-65722266D01*
X52697245Y-65805874D01*
X52804742Y-65805874D01*
X53019733Y-65781987D01*
X53258611Y-65746157D01*
X53593041Y-65650602D01*
X53819980Y-65590885D01*
X53785033Y-65550829D01*
X53728702Y-65481691D01*
X53677064Y-65411004D01*
X53643066Y-65366302D01*
X53629215Y-65378896D01*
X53554295Y-65433671D01*
X53480001Y-65489070D01*
X53412640Y-65494109D01*
X53365423Y-65472072D01*
X53334254Y-65430298D01*
X53285596Y-65346252D01*
X53250207Y-65254240D01*
X53210550Y-65158931D01*
X53190404Y-65086197D01*
X53156836Y-65002272D01*
X53131097Y-64996679D01*
X53051649Y-64970940D01*
X52995701Y-64925064D01*
X52943104Y-64878064D01*
X52875969Y-64818759D01*
X52780857Y-64840020D01*
X52666718Y-64845614D01*
X52670073Y-64976535D01*
X52789805Y-65020177D01*
X52823378Y-65035847D01*
X52822412Y-65135602D01*
X52804718Y-65187494D01*
X52744571Y-65257076D01*
X52696217Y-65317224D01*
X52700940Y-65364397D01*
X52722165Y-65411576D01*
X52718622Y-65463466D01*
X52699493Y-65498888D01*
X52632555Y-65594702D01*
X52613640Y-65662544D01*
X46496771Y-65662544D01*
X46509261Y-65429410D01*
X46479196Y-65369288D01*
X46455464Y-65302838D01*
X46455464Y-65201573D01*
X46483941Y-65071835D01*
X46541812Y-64893465D01*
X46590775Y-64630843D01*
X46648238Y-64385645D01*
X46690485Y-64222995D01*
X46690485Y-64144834D01*
X46650348Y-64068788D01*
X46570079Y-63933591D01*
X46500372Y-63747707D01*
X46479209Y-63620640D01*
X46472027Y-63448262D01*
X46481763Y-63237811D01*
X46538802Y-62822205D01*
X46559579Y-62505540D01*
X46572335Y-62430617D01*
X46602939Y-62351428D01*
X53801413Y-62351428D01*
X53857142Y-62421754D01*
X53929672Y-62532252D01*
X53968529Y-62633664D01*
X54033057Y-62738948D01*
X54106076Y-62820453D01*
X54231739Y-62930837D01*
X54449099Y-63129516D01*
X54602870Y-63307062D01*
X54701840Y-63463926D01*
X54825934Y-63668951D01*
X54883871Y-63754855D01*
X54914833Y-63808797D01*
X54933814Y-63814793D01*
X54959783Y-63797810D01*
X55011729Y-63774832D01*
X55073662Y-63743866D01*
X55127603Y-63723888D01*
X55165561Y-63713899D01*
X55253466Y-63671947D01*
X55334145Y-63595649D01*
X55406707Y-63484932D01*
X55479083Y-63370139D01*
X55551197Y-63262465D01*
X55650196Y-63117880D01*
X55755934Y-62944851D01*
X55850446Y-62831832D01*
X55922113Y-62724335D01*
X55981835Y-62628786D01*
X54840920Y-62707739D01*
X54815641Y-62704765D01*
X54804486Y-62701792D01*
X54782186Y-62671305D01*
X54765083Y-62649000D01*
X54767424Y-62244147D01*
X54746869Y-62262309D01*
X54716762Y-62302456D01*
X54682350Y-62382268D01*
X54646509Y-62453953D01*
X54615922Y-62482628D01*
X54594892Y-62485496D01*
X54595744Y-62283915D01*
X54543106Y-62306316D01*
X54353373Y-62359386D01*
X54117198Y-62373986D01*
X53973904Y-62372658D01*
X53801413Y-62351428D01*
X46602939Y-62351428D01*
X46733162Y-62014468D01*
X46772050Y-61939720D01*
X54582234Y-61939720D01*
X54596334Y-61947980D01*
X54597042Y-61976702D01*
X54597165Y-61947758D01*
X54582234Y-61939720D01*
X46772050Y-61939720D01*
X46803518Y-61879234D01*
X56545719Y-61879234D01*
X56545722Y-61879234D01*
X56982878Y-61103947D01*
X67371863Y-61103947D01*
X67907244Y-61104675D01*
X67907210Y-60978878D01*
X67373752Y-60984558D01*
X67371863Y-61103947D01*
X56982878Y-61103947D01*
X56985125Y-61099962D01*
X56545719Y-61879234D01*
X46803518Y-61879234D01*
X46954557Y-61588912D01*
X47129259Y-61374699D01*
X47235240Y-61286587D01*
X47350410Y-61208734D01*
X47383470Y-61197005D01*
X47493323Y-61123419D01*
X47569037Y-61104223D01*
X47620218Y-61097824D01*
X47566900Y-60982652D01*
X47544505Y-60980521D01*
X47503983Y-61035971D01*
X47464521Y-61082897D01*
X47416534Y-61117021D01*
X47367476Y-61154350D01*
X47309890Y-61183143D01*
X47254433Y-61198072D01*
X47193646Y-61189541D01*
X47147790Y-61155410D01*
X47118998Y-61119153D01*
X47099801Y-61086096D01*
X47082738Y-61042372D01*
X47084298Y-60975717D01*
X47095454Y-60933114D01*
X47134005Y-60888475D01*
X47165451Y-60857029D01*
X47201969Y-60837759D01*
X47235443Y-60822545D01*
X47265875Y-60804282D01*
X47265875Y-60782982D01*
X47255730Y-60764720D01*
X47229733Y-60727813D01*
X47228971Y-60682152D01*
X47238480Y-60631545D01*
X47259784Y-60582320D01*
X47329044Y-60539854D01*
X47407913Y-60506487D01*
X47477680Y-60490817D01*
X47608340Y-60490866D01*
X47848474Y-60482327D01*
X48124896Y-60421490D01*
X48292313Y-60350248D01*
X48417128Y-60316113D01*
X48539812Y-60303312D01*
X48615554Y-60305447D01*
X48719914Y-60335545D01*
X48839351Y-60359433D01*
X48994621Y-60371378D01*
X49114066Y-60419153D01*
X49185727Y-60490818D01*
X49221558Y-60550537D01*
X49281280Y-60550537D01*
X49400719Y-60490818D01*
X49424606Y-60443041D01*
X49428059Y-60325259D01*
X49370823Y-59808297D01*
X49344126Y-59089629D01*
X49380499Y-58922311D01*
X49489620Y-58696803D01*
X49670176Y-58463518D01*
X49797984Y-58310862D01*
X49897396Y-58218548D01*
X50012774Y-58138673D01*
X50117506Y-58072992D01*
X50311643Y-58003183D01*
X50393408Y-57958798D01*
X50540585Y-57884040D01*
X50655059Y-57856008D01*
X50811578Y-57837317D01*
X50993802Y-57856008D01*
G37*
D11*
G36*
X44956926Y-55169846D02*
G01*
X44604483Y-55169846D01*
X44604483Y-57030000D01*
X44286113Y-57030000D01*
X44286113Y-55169846D01*
X43933670Y-55169846D01*
X43933670Y-54888478D01*
X44956926Y-54888478D01*
X44956926Y-55169846D01*
G37*
G36*
X46195359Y-57030000D02*
G01*
X45872959Y-57030000D01*
X45872959Y-56068660D01*
X45439916Y-56068660D01*
X45439916Y-57030000D01*
X45120202Y-57030000D01*
X45120202Y-54888478D01*
X45439916Y-54888478D01*
X45439916Y-55771660D01*
X45872959Y-55771660D01*
X45872959Y-54888478D01*
X46195359Y-54888478D01*
X46195359Y-57030000D01*
G37*
G36*
X47335485Y-57030000D02*
G01*
X46448883Y-57030000D01*
X46448883Y-54888478D01*
X47327303Y-54888478D01*
X47327303Y-55169846D01*
X46768597Y-55169846D01*
X46768597Y-55795108D01*
X47249511Y-55795108D01*
X47249511Y-56068660D01*
X46768597Y-56068660D01*
X46768597Y-56748632D01*
X47335485Y-56748632D01*
X47335485Y-57030000D01*
G37*
G36*
X49155827Y-56860617D02*
G01*
X49143374Y-56935585D01*
X49109474Y-56985752D01*
X49052344Y-57017696D01*
X48961898Y-57030000D01*
X48318318Y-57030000D01*
X48228615Y-57017734D01*
X48171872Y-56985851D01*
X48138140Y-56935690D01*
X48125733Y-56860617D01*
X48125733Y-56326580D01*
X48445446Y-56326580D01*
X48445446Y-56764263D01*
X48836113Y-56764263D01*
X48836113Y-56342212D01*
X48195464Y-55734413D01*
X48156926Y-55685949D01*
X48133772Y-55629712D01*
X48125733Y-55563321D01*
X48125733Y-55057861D01*
X48138140Y-54982788D01*
X48171872Y-54932627D01*
X48228615Y-54900744D01*
X48318318Y-54888478D01*
X48961898Y-54888478D01*
X49052624Y-54900667D01*
X49109733Y-54932225D01*
X49143472Y-54981576D01*
X49155827Y-55055052D01*
X49155827Y-55560635D01*
X48836113Y-55560635D01*
X48836113Y-55154214D01*
X48445446Y-55154214D01*
X48445446Y-55548911D01*
X49086095Y-56153900D01*
X49124374Y-56201636D01*
X49147650Y-56258682D01*
X49155827Y-56327801D01*
X49155827Y-56860617D01*
G37*
G36*
X50492446Y-57030000D02*
G01*
X50212421Y-57030000D01*
X49700122Y-55682145D01*
X49716149Y-55775771D01*
X49720516Y-55836751D01*
X49720516Y-57030000D01*
X49409107Y-57030000D01*
X49409107Y-54888478D01*
X49689131Y-54888478D01*
X50201430Y-56208977D01*
X50185404Y-56115352D01*
X50181036Y-56054371D01*
X50181036Y-54888478D01*
X50492446Y-54888478D01*
X50492446Y-57030000D01*
G37*
G36*
X51074599Y-57030000D02*
G01*
X50754885Y-57030000D01*
X50754885Y-54888478D01*
X51074599Y-54888478D01*
X51074599Y-57030000D01*
G37*
G36*
X52264392Y-54900819D02*
G01*
X52321909Y-54932823D01*
X52355977Y-54982998D01*
X52368475Y-55057861D01*
X52368475Y-56086856D01*
X52355977Y-56161719D01*
X52321909Y-56211893D01*
X52264392Y-56243898D01*
X52173203Y-56256238D01*
X51655408Y-56256238D01*
X51655408Y-57030000D01*
X51335694Y-57030000D01*
X51335694Y-55982686D01*
X51655408Y-55982686D01*
X52046075Y-55982686D01*
X52046075Y-55162030D01*
X51655408Y-55162030D01*
X51655408Y-55982686D01*
X51335694Y-55982686D01*
X51335694Y-54888478D01*
X52173203Y-54888478D01*
X52264392Y-54900819D01*
G37*
G36*
X53524685Y-54900819D02*
G01*
X53582202Y-54932823D01*
X53616270Y-54982998D01*
X53628768Y-55057861D01*
X53628768Y-56086856D01*
X53616270Y-56161719D01*
X53582202Y-56211893D01*
X53524685Y-56243898D01*
X53433496Y-56256238D01*
X52915701Y-56256238D01*
X52915701Y-57030000D01*
X52595987Y-57030000D01*
X52595987Y-55982686D01*
X52915701Y-55982686D01*
X53306368Y-55982686D01*
X53306368Y-55162030D01*
X52915701Y-55162030D01*
X52915701Y-55982686D01*
X52595987Y-55982686D01*
X52595987Y-54888478D01*
X53433496Y-54888478D01*
X53524685Y-54900819D01*
G37*
G36*
X54742882Y-57030000D02*
G01*
X53856280Y-57030000D01*
X53856280Y-54888478D01*
X54734700Y-54888478D01*
X54734700Y-55169846D01*
X54175994Y-55169846D01*
X54175994Y-55795108D01*
X54656908Y-55795108D01*
X54656908Y-56068660D01*
X54175994Y-56068660D01*
X54175994Y-56748632D01*
X54742882Y-56748632D01*
X54742882Y-57030000D01*
G37*
G36*
X56056542Y-57030000D02*
G01*
X55723151Y-57030000D01*
X55370708Y-56034954D01*
X55370708Y-55842002D01*
X55684927Y-55842002D01*
X55684927Y-55162030D01*
X55281926Y-55162030D01*
X55281926Y-57030000D01*
X54962212Y-57030000D01*
X54962212Y-54888478D01*
X55810590Y-54888478D01*
X55900360Y-54900747D01*
X55957138Y-54932636D01*
X55990886Y-54982798D01*
X56003297Y-55057861D01*
X56003297Y-55883646D01*
X55992089Y-55955535D01*
X55961782Y-56003975D01*
X55911706Y-56035321D01*
X55848990Y-56047294D01*
X55703978Y-56053028D01*
X56056542Y-57030000D01*
G37*
G36*
X57764826Y-54900668D02*
G01*
X57820794Y-54932428D01*
X57854189Y-54982576D01*
X57866504Y-55057861D01*
X57866504Y-55628900D01*
X57858271Y-55701147D01*
X57835289Y-55758277D01*
X57798238Y-55803778D01*
X57631542Y-55912344D01*
X57803733Y-56025429D01*
X57844037Y-56074017D01*
X57868736Y-56133648D01*
X57877495Y-56207634D01*
X57877495Y-56860617D01*
X57864992Y-56935471D01*
X57830909Y-56985646D01*
X57773357Y-57017655D01*
X57682100Y-57030000D01*
X56828227Y-57030000D01*
X56828227Y-56764263D01*
X57147941Y-56764263D01*
X57556437Y-56764263D01*
X57556437Y-56149870D01*
X57399267Y-56045212D01*
X57147941Y-56045212D01*
X57147941Y-56764263D01*
X56828227Y-56764263D01*
X56828227Y-55787292D01*
X57147941Y-55787292D01*
X57393772Y-55787292D01*
X57548133Y-55676894D01*
X57548133Y-55154214D01*
X57147941Y-55154214D01*
X57147941Y-55787292D01*
X56828227Y-55787292D01*
X56828227Y-54888478D01*
X57676605Y-54888478D01*
X57764826Y-54900668D01*
G37*
G36*
X59103981Y-54900785D02*
G01*
X59161147Y-54932734D01*
X59195062Y-54982903D01*
X59207519Y-55057861D01*
X59207519Y-56860617D01*
X59195062Y-56935575D01*
X59161147Y-56985744D01*
X59103981Y-57017693D01*
X59013468Y-57030000D01*
X58319452Y-57030000D01*
X58231231Y-57017809D01*
X58175263Y-56986050D01*
X58141868Y-56935902D01*
X58129553Y-56860617D01*
X58129553Y-56756448D01*
X58449267Y-56756448D01*
X58887805Y-56756448D01*
X58887805Y-55162030D01*
X58449267Y-55162030D01*
X58449267Y-56756448D01*
X58129553Y-56756448D01*
X58129553Y-55057861D01*
X58141868Y-54982576D01*
X58175263Y-54932428D01*
X58231231Y-54900668D01*
X58319452Y-54888478D01*
X59013468Y-54888478D01*
X59103981Y-54900785D01*
G37*
G36*
X60547435Y-57030000D02*
G01*
X60230530Y-57030000D01*
X60166294Y-56623579D01*
X59765980Y-56623579D01*
X59701744Y-57030000D01*
X59386183Y-57030000D01*
X59386183Y-57024504D01*
X59516906Y-56350027D01*
X59808356Y-56350027D01*
X60121232Y-56350027D01*
X59965405Y-55384780D01*
X59808356Y-56350027D01*
X59516906Y-56350027D01*
X59800174Y-54888478D01*
X60136252Y-54888478D01*
X60547435Y-57030000D01*
G37*
G36*
X61820673Y-57030000D02*
G01*
X61487282Y-57030000D01*
X61134839Y-56034954D01*
X61134839Y-55842002D01*
X61449058Y-55842002D01*
X61449058Y-55162030D01*
X61046057Y-55162030D01*
X61046057Y-57030000D01*
X60726343Y-57030000D01*
X60726343Y-54888478D01*
X61574721Y-54888478D01*
X61664492Y-54900747D01*
X61721270Y-54932636D01*
X61755017Y-54982798D01*
X61767428Y-55057861D01*
X61767428Y-55883646D01*
X61756221Y-55955535D01*
X61725913Y-56003975D01*
X61675837Y-56035321D01*
X61613121Y-56047294D01*
X61468109Y-56053028D01*
X61820673Y-57030000D01*
G37*
G36*
X62789824Y-54901541D02*
G01*
X62888741Y-54938211D01*
X62969470Y-54997288D01*
X63030408Y-55076303D01*
X63068132Y-55173725D01*
X63081577Y-55294898D01*
X63081577Y-56623579D01*
X63068085Y-56745643D01*
X63030322Y-56843251D01*
X62969470Y-56921922D01*
X62888797Y-56980572D01*
X62789879Y-57017012D01*
X62667585Y-57030000D01*
X62015945Y-57030000D01*
X62015945Y-56756448D01*
X62335659Y-56756448D01*
X62565125Y-56756448D01*
X62655133Y-56743586D01*
X62712775Y-56709824D01*
X62747579Y-56655889D01*
X62760520Y-56574120D01*
X62760520Y-55341671D01*
X62747960Y-55260663D01*
X62714349Y-55207551D01*
X62659089Y-55174544D01*
X62573308Y-55162030D01*
X62335659Y-55162030D01*
X62335659Y-56756448D01*
X62015945Y-56756448D01*
X62015945Y-54888478D01*
X62667585Y-54888478D01*
X62789824Y-54901541D01*
G37*
D12*
X36368238Y-50030847D02*
X36817241Y-50030847D01*
X35874335Y-50345149D02*
X36368238Y-50030847D01*
X36368238Y-50030847D02*
X35874335Y-49716545D01*
X36817241Y-48908340D02*
X36817241Y-49447143D01*
X36817241Y-49177742D02*
X35874335Y-49177742D01*
X35874335Y-49177742D02*
X36009036Y-49267542D01*
X36009036Y-49267542D02*
X36098836Y-49357343D01*
X36098836Y-49357343D02*
X36143737Y-49447143D01*
X34107580Y-43151857D02*
X34155200Y-43199476D01*
X34155200Y-43199476D02*
X34202819Y-43342333D01*
X34202819Y-43342333D02*
X34202819Y-43437571D01*
X34202819Y-43437571D02*
X34155200Y-43580428D01*
X34155200Y-43580428D02*
X34059961Y-43675666D01*
X34059961Y-43675666D02*
X33964723Y-43723285D01*
X33964723Y-43723285D02*
X33774247Y-43770904D01*
X33774247Y-43770904D02*
X33631390Y-43770904D01*
X33631390Y-43770904D02*
X33440914Y-43723285D01*
X33440914Y-43723285D02*
X33345676Y-43675666D01*
X33345676Y-43675666D02*
X33250438Y-43580428D01*
X33250438Y-43580428D02*
X33202819Y-43437571D01*
X33202819Y-43437571D02*
X33202819Y-43342333D01*
X33202819Y-43342333D02*
X33250438Y-43199476D01*
X33250438Y-43199476D02*
X33298057Y-43151857D01*
X33536152Y-42294714D02*
X34202819Y-42294714D01*
X33155200Y-42532809D02*
X33869485Y-42770904D01*
X33869485Y-42770904D02*
X33869485Y-42151857D01*
X33298057Y-41818523D02*
X33250438Y-41770904D01*
X33250438Y-41770904D02*
X33202819Y-41675666D01*
X33202819Y-41675666D02*
X33202819Y-41437571D01*
X33202819Y-41437571D02*
X33250438Y-41342333D01*
X33250438Y-41342333D02*
X33298057Y-41294714D01*
X33298057Y-41294714D02*
X33393295Y-41247095D01*
X33393295Y-41247095D02*
X33488533Y-41247095D01*
X33488533Y-41247095D02*
X33631390Y-41294714D01*
X33631390Y-41294714D02*
X34202819Y-41866142D01*
X34202819Y-41866142D02*
X34202819Y-41247095D01*
X28856666Y-26574819D02*
X28856666Y-27289104D01*
X28856666Y-27289104D02*
X28809047Y-27431961D01*
X28809047Y-27431961D02*
X28713809Y-27527200D01*
X28713809Y-27527200D02*
X28570952Y-27574819D01*
X28570952Y-27574819D02*
X28475714Y-27574819D01*
X29285238Y-26670057D02*
X29332857Y-26622438D01*
X29332857Y-26622438D02*
X29428095Y-26574819D01*
X29428095Y-26574819D02*
X29666190Y-26574819D01*
X29666190Y-26574819D02*
X29761428Y-26622438D01*
X29761428Y-26622438D02*
X29809047Y-26670057D01*
X29809047Y-26670057D02*
X29856666Y-26765295D01*
X29856666Y-26765295D02*
X29856666Y-26860533D01*
X29856666Y-26860533D02*
X29809047Y-27003390D01*
X29809047Y-27003390D02*
X29237619Y-27574819D01*
X29237619Y-27574819D02*
X29856666Y-27574819D01*
X42743580Y-41246857D02*
X42791200Y-41294476D01*
X42791200Y-41294476D02*
X42838819Y-41437333D01*
X42838819Y-41437333D02*
X42838819Y-41532571D01*
X42838819Y-41532571D02*
X42791200Y-41675428D01*
X42791200Y-41675428D02*
X42695961Y-41770666D01*
X42695961Y-41770666D02*
X42600723Y-41818285D01*
X42600723Y-41818285D02*
X42410247Y-41865904D01*
X42410247Y-41865904D02*
X42267390Y-41865904D01*
X42267390Y-41865904D02*
X42076914Y-41818285D01*
X42076914Y-41818285D02*
X41981676Y-41770666D01*
X41981676Y-41770666D02*
X41886438Y-41675428D01*
X41886438Y-41675428D02*
X41838819Y-41532571D01*
X41838819Y-41532571D02*
X41838819Y-41437333D01*
X41838819Y-41437333D02*
X41886438Y-41294476D01*
X41886438Y-41294476D02*
X41934057Y-41246857D01*
X42172152Y-40389714D02*
X42838819Y-40389714D01*
X41791200Y-40627809D02*
X42505485Y-40865904D01*
X42505485Y-40865904D02*
X42505485Y-40246857D01*
X41838819Y-39437333D02*
X41838819Y-39627809D01*
X41838819Y-39627809D02*
X41886438Y-39723047D01*
X41886438Y-39723047D02*
X41934057Y-39770666D01*
X41934057Y-39770666D02*
X42076914Y-39865904D01*
X42076914Y-39865904D02*
X42267390Y-39913523D01*
X42267390Y-39913523D02*
X42648342Y-39913523D01*
X42648342Y-39913523D02*
X42743580Y-39865904D01*
X42743580Y-39865904D02*
X42791200Y-39818285D01*
X42791200Y-39818285D02*
X42838819Y-39723047D01*
X42838819Y-39723047D02*
X42838819Y-39532571D01*
X42838819Y-39532571D02*
X42791200Y-39437333D01*
X42791200Y-39437333D02*
X42743580Y-39389714D01*
X42743580Y-39389714D02*
X42648342Y-39342095D01*
X42648342Y-39342095D02*
X42410247Y-39342095D01*
X42410247Y-39342095D02*
X42315009Y-39389714D01*
X42315009Y-39389714D02*
X42267390Y-39437333D01*
X42267390Y-39437333D02*
X42219771Y-39532571D01*
X42219771Y-39532571D02*
X42219771Y-39723047D01*
X42219771Y-39723047D02*
X42267390Y-39818285D01*
X42267390Y-39818285D02*
X42315009Y-39865904D01*
X42315009Y-39865904D02*
X42410247Y-39913523D01*
X37604580Y-31249857D02*
X37652200Y-31297476D01*
X37652200Y-31297476D02*
X37699819Y-31440333D01*
X37699819Y-31440333D02*
X37699819Y-31535571D01*
X37699819Y-31535571D02*
X37652200Y-31678428D01*
X37652200Y-31678428D02*
X37556961Y-31773666D01*
X37556961Y-31773666D02*
X37461723Y-31821285D01*
X37461723Y-31821285D02*
X37271247Y-31868904D01*
X37271247Y-31868904D02*
X37128390Y-31868904D01*
X37128390Y-31868904D02*
X36937914Y-31821285D01*
X36937914Y-31821285D02*
X36842676Y-31773666D01*
X36842676Y-31773666D02*
X36747438Y-31678428D01*
X36747438Y-31678428D02*
X36699819Y-31535571D01*
X36699819Y-31535571D02*
X36699819Y-31440333D01*
X36699819Y-31440333D02*
X36747438Y-31297476D01*
X36747438Y-31297476D02*
X36795057Y-31249857D01*
X37033152Y-30392714D02*
X37699819Y-30392714D01*
X36652200Y-30630809D02*
X37366485Y-30868904D01*
X37366485Y-30868904D02*
X37366485Y-30249857D01*
X36699819Y-29964142D02*
X36699819Y-29297476D01*
X36699819Y-29297476D02*
X37699819Y-29726047D01*
X22530819Y-49758333D02*
X23245104Y-49758333D01*
X23245104Y-49758333D02*
X23387961Y-49805952D01*
X23387961Y-49805952D02*
X23483200Y-49901190D01*
X23483200Y-49901190D02*
X23530819Y-50044047D01*
X23530819Y-50044047D02*
X23530819Y-50139285D01*
X22864152Y-48853571D02*
X23530819Y-48853571D01*
X22483200Y-49091666D02*
X23197485Y-49329761D01*
X23197485Y-49329761D02*
X23197485Y-48710714D01*
X59812819Y-79370904D02*
X60622342Y-79370904D01*
X60622342Y-79370904D02*
X60717580Y-79323285D01*
X60717580Y-79323285D02*
X60765200Y-79275666D01*
X60765200Y-79275666D02*
X60812819Y-79180428D01*
X60812819Y-79180428D02*
X60812819Y-78989952D01*
X60812819Y-78989952D02*
X60765200Y-78894714D01*
X60765200Y-78894714D02*
X60717580Y-78847095D01*
X60717580Y-78847095D02*
X60622342Y-78799476D01*
X60622342Y-78799476D02*
X59812819Y-78799476D01*
X60241390Y-78180428D02*
X60193771Y-78275666D01*
X60193771Y-78275666D02*
X60146152Y-78323285D01*
X60146152Y-78323285D02*
X60050914Y-78370904D01*
X60050914Y-78370904D02*
X60003295Y-78370904D01*
X60003295Y-78370904D02*
X59908057Y-78323285D01*
X59908057Y-78323285D02*
X59860438Y-78275666D01*
X59860438Y-78275666D02*
X59812819Y-78180428D01*
X59812819Y-78180428D02*
X59812819Y-77989952D01*
X59812819Y-77989952D02*
X59860438Y-77894714D01*
X59860438Y-77894714D02*
X59908057Y-77847095D01*
X59908057Y-77847095D02*
X60003295Y-77799476D01*
X60003295Y-77799476D02*
X60050914Y-77799476D01*
X60050914Y-77799476D02*
X60146152Y-77847095D01*
X60146152Y-77847095D02*
X60193771Y-77894714D01*
X60193771Y-77894714D02*
X60241390Y-77989952D01*
X60241390Y-77989952D02*
X60241390Y-78180428D01*
X60241390Y-78180428D02*
X60289009Y-78275666D01*
X60289009Y-78275666D02*
X60336628Y-78323285D01*
X60336628Y-78323285D02*
X60431866Y-78370904D01*
X60431866Y-78370904D02*
X60622342Y-78370904D01*
X60622342Y-78370904D02*
X60717580Y-78323285D01*
X60717580Y-78323285D02*
X60765200Y-78275666D01*
X60765200Y-78275666D02*
X60812819Y-78180428D01*
X60812819Y-78180428D02*
X60812819Y-77989952D01*
X60812819Y-77989952D02*
X60765200Y-77894714D01*
X60765200Y-77894714D02*
X60717580Y-77847095D01*
X60717580Y-77847095D02*
X60622342Y-77799476D01*
X60622342Y-77799476D02*
X60431866Y-77799476D01*
X60431866Y-77799476D02*
X60336628Y-77847095D01*
X60336628Y-77847095D02*
X60289009Y-77894714D01*
X60289009Y-77894714D02*
X60241390Y-77989952D01*
X48773580Y-43244666D02*
X48821200Y-43292285D01*
X48821200Y-43292285D02*
X48868819Y-43435142D01*
X48868819Y-43435142D02*
X48868819Y-43530380D01*
X48868819Y-43530380D02*
X48821200Y-43673237D01*
X48821200Y-43673237D02*
X48725961Y-43768475D01*
X48725961Y-43768475D02*
X48630723Y-43816094D01*
X48630723Y-43816094D02*
X48440247Y-43863713D01*
X48440247Y-43863713D02*
X48297390Y-43863713D01*
X48297390Y-43863713D02*
X48106914Y-43816094D01*
X48106914Y-43816094D02*
X48011676Y-43768475D01*
X48011676Y-43768475D02*
X47916438Y-43673237D01*
X47916438Y-43673237D02*
X47868819Y-43530380D01*
X47868819Y-43530380D02*
X47868819Y-43435142D01*
X47868819Y-43435142D02*
X47916438Y-43292285D01*
X47916438Y-43292285D02*
X47964057Y-43244666D01*
X48868819Y-42768475D02*
X48868819Y-42577999D01*
X48868819Y-42577999D02*
X48821200Y-42482761D01*
X48821200Y-42482761D02*
X48773580Y-42435142D01*
X48773580Y-42435142D02*
X48630723Y-42339904D01*
X48630723Y-42339904D02*
X48440247Y-42292285D01*
X48440247Y-42292285D02*
X48059295Y-42292285D01*
X48059295Y-42292285D02*
X47964057Y-42339904D01*
X47964057Y-42339904D02*
X47916438Y-42387523D01*
X47916438Y-42387523D02*
X47868819Y-42482761D01*
X47868819Y-42482761D02*
X47868819Y-42673237D01*
X47868819Y-42673237D02*
X47916438Y-42768475D01*
X47916438Y-42768475D02*
X47964057Y-42816094D01*
X47964057Y-42816094D02*
X48059295Y-42863713D01*
X48059295Y-42863713D02*
X48297390Y-42863713D01*
X48297390Y-42863713D02*
X48392628Y-42816094D01*
X48392628Y-42816094D02*
X48440247Y-42768475D01*
X48440247Y-42768475D02*
X48487866Y-42673237D01*
X48487866Y-42673237D02*
X48487866Y-42482761D01*
X48487866Y-42482761D02*
X48440247Y-42387523D01*
X48440247Y-42387523D02*
X48392628Y-42339904D01*
X48392628Y-42339904D02*
X48297390Y-42292285D01*
X20784142Y-44843580D02*
X20736523Y-44891200D01*
X20736523Y-44891200D02*
X20593666Y-44938819D01*
X20593666Y-44938819D02*
X20498428Y-44938819D01*
X20498428Y-44938819D02*
X20355571Y-44891200D01*
X20355571Y-44891200D02*
X20260333Y-44795961D01*
X20260333Y-44795961D02*
X20212714Y-44700723D01*
X20212714Y-44700723D02*
X20165095Y-44510247D01*
X20165095Y-44510247D02*
X20165095Y-44367390D01*
X20165095Y-44367390D02*
X20212714Y-44176914D01*
X20212714Y-44176914D02*
X20260333Y-44081676D01*
X20260333Y-44081676D02*
X20355571Y-43986438D01*
X20355571Y-43986438D02*
X20498428Y-43938819D01*
X20498428Y-43938819D02*
X20593666Y-43938819D01*
X20593666Y-43938819D02*
X20736523Y-43986438D01*
X20736523Y-43986438D02*
X20784142Y-44034057D01*
X21117476Y-43938819D02*
X21736523Y-43938819D01*
X21736523Y-43938819D02*
X21403190Y-44319771D01*
X21403190Y-44319771D02*
X21546047Y-44319771D01*
X21546047Y-44319771D02*
X21641285Y-44367390D01*
X21641285Y-44367390D02*
X21688904Y-44415009D01*
X21688904Y-44415009D02*
X21736523Y-44510247D01*
X21736523Y-44510247D02*
X21736523Y-44748342D01*
X21736523Y-44748342D02*
X21688904Y-44843580D01*
X21688904Y-44843580D02*
X21641285Y-44891200D01*
X21641285Y-44891200D02*
X21546047Y-44938819D01*
X21546047Y-44938819D02*
X21260333Y-44938819D01*
X21260333Y-44938819D02*
X21165095Y-44891200D01*
X21165095Y-44891200D02*
X21117476Y-44843580D01*
X22593666Y-43938819D02*
X22403190Y-43938819D01*
X22403190Y-43938819D02*
X22307952Y-43986438D01*
X22307952Y-43986438D02*
X22260333Y-44034057D01*
X22260333Y-44034057D02*
X22165095Y-44176914D01*
X22165095Y-44176914D02*
X22117476Y-44367390D01*
X22117476Y-44367390D02*
X22117476Y-44748342D01*
X22117476Y-44748342D02*
X22165095Y-44843580D01*
X22165095Y-44843580D02*
X22212714Y-44891200D01*
X22212714Y-44891200D02*
X22307952Y-44938819D01*
X22307952Y-44938819D02*
X22498428Y-44938819D01*
X22498428Y-44938819D02*
X22593666Y-44891200D01*
X22593666Y-44891200D02*
X22641285Y-44843580D01*
X22641285Y-44843580D02*
X22688904Y-44748342D01*
X22688904Y-44748342D02*
X22688904Y-44510247D01*
X22688904Y-44510247D02*
X22641285Y-44415009D01*
X22641285Y-44415009D02*
X22593666Y-44367390D01*
X22593666Y-44367390D02*
X22498428Y-44319771D01*
X22498428Y-44319771D02*
X22307952Y-44319771D01*
X22307952Y-44319771D02*
X22212714Y-44367390D01*
X22212714Y-44367390D02*
X22165095Y-44415009D01*
X22165095Y-44415009D02*
X22117476Y-44510247D01*
X48459819Y-29806166D02*
X47983628Y-30139499D01*
X48459819Y-30377594D02*
X47459819Y-30377594D01*
X47459819Y-30377594D02*
X47459819Y-29996642D01*
X47459819Y-29996642D02*
X47507438Y-29901404D01*
X47507438Y-29901404D02*
X47555057Y-29853785D01*
X47555057Y-29853785D02*
X47650295Y-29806166D01*
X47650295Y-29806166D02*
X47793152Y-29806166D01*
X47793152Y-29806166D02*
X47888390Y-29853785D01*
X47888390Y-29853785D02*
X47936009Y-29901404D01*
X47936009Y-29901404D02*
X47983628Y-29996642D01*
X47983628Y-29996642D02*
X47983628Y-30377594D01*
X48459819Y-29329975D02*
X48459819Y-29139499D01*
X48459819Y-29139499D02*
X48412200Y-29044261D01*
X48412200Y-29044261D02*
X48364580Y-28996642D01*
X48364580Y-28996642D02*
X48221723Y-28901404D01*
X48221723Y-28901404D02*
X48031247Y-28853785D01*
X48031247Y-28853785D02*
X47650295Y-28853785D01*
X47650295Y-28853785D02*
X47555057Y-28901404D01*
X47555057Y-28901404D02*
X47507438Y-28949023D01*
X47507438Y-28949023D02*
X47459819Y-29044261D01*
X47459819Y-29044261D02*
X47459819Y-29234737D01*
X47459819Y-29234737D02*
X47507438Y-29329975D01*
X47507438Y-29329975D02*
X47555057Y-29377594D01*
X47555057Y-29377594D02*
X47650295Y-29425213D01*
X47650295Y-29425213D02*
X47888390Y-29425213D01*
X47888390Y-29425213D02*
X47983628Y-29377594D01*
X47983628Y-29377594D02*
X48031247Y-29329975D01*
X48031247Y-29329975D02*
X48078866Y-29234737D01*
X48078866Y-29234737D02*
X48078866Y-29044261D01*
X48078866Y-29044261D02*
X48031247Y-28949023D01*
X48031247Y-28949023D02*
X47983628Y-28901404D01*
X47983628Y-28901404D02*
X47888390Y-28853785D01*
X106564319Y-47116904D02*
X107373842Y-47116904D01*
X107373842Y-47116904D02*
X107469080Y-47069285D01*
X107469080Y-47069285D02*
X107516700Y-47021666D01*
X107516700Y-47021666D02*
X107564319Y-46926428D01*
X107564319Y-46926428D02*
X107564319Y-46735952D01*
X107564319Y-46735952D02*
X107516700Y-46640714D01*
X107516700Y-46640714D02*
X107469080Y-46593095D01*
X107469080Y-46593095D02*
X107373842Y-46545476D01*
X107373842Y-46545476D02*
X106564319Y-46545476D01*
X107564319Y-46021666D02*
X107564319Y-45831190D01*
X107564319Y-45831190D02*
X107516700Y-45735952D01*
X107516700Y-45735952D02*
X107469080Y-45688333D01*
X107469080Y-45688333D02*
X107326223Y-45593095D01*
X107326223Y-45593095D02*
X107135747Y-45545476D01*
X107135747Y-45545476D02*
X106754795Y-45545476D01*
X106754795Y-45545476D02*
X106659557Y-45593095D01*
X106659557Y-45593095D02*
X106611938Y-45640714D01*
X106611938Y-45640714D02*
X106564319Y-45735952D01*
X106564319Y-45735952D02*
X106564319Y-45926428D01*
X106564319Y-45926428D02*
X106611938Y-46021666D01*
X106611938Y-46021666D02*
X106659557Y-46069285D01*
X106659557Y-46069285D02*
X106754795Y-46116904D01*
X106754795Y-46116904D02*
X106992890Y-46116904D01*
X106992890Y-46116904D02*
X107088128Y-46069285D01*
X107088128Y-46069285D02*
X107135747Y-46021666D01*
X107135747Y-46021666D02*
X107183366Y-45926428D01*
X107183366Y-45926428D02*
X107183366Y-45735952D01*
X107183366Y-45735952D02*
X107135747Y-45640714D01*
X107135747Y-45640714D02*
X107088128Y-45593095D01*
X107088128Y-45593095D02*
X106992890Y-45545476D01*
D13*
X31560429Y-40771617D02*
X31331857Y-40771617D01*
X31331857Y-40771617D02*
X31331857Y-40291617D01*
X31971857Y-40771617D02*
X31697571Y-40771617D01*
X31834714Y-40771617D02*
X31834714Y-40291617D01*
X31834714Y-40291617D02*
X31789000Y-40360188D01*
X31789000Y-40360188D02*
X31743285Y-40405902D01*
X31743285Y-40405902D02*
X31697571Y-40428760D01*
X32383286Y-40451617D02*
X32383286Y-40771617D01*
X32269000Y-40268760D02*
X32154714Y-40611617D01*
X32154714Y-40611617D02*
X32451857Y-40611617D01*
D12*
X31492333Y-42330819D02*
X31159000Y-41854628D01*
X30920905Y-42330819D02*
X30920905Y-41330819D01*
X30920905Y-41330819D02*
X31301857Y-41330819D01*
X31301857Y-41330819D02*
X31397095Y-41378438D01*
X31397095Y-41378438D02*
X31444714Y-41426057D01*
X31444714Y-41426057D02*
X31492333Y-41521295D01*
X31492333Y-41521295D02*
X31492333Y-41664152D01*
X31492333Y-41664152D02*
X31444714Y-41759390D01*
X31444714Y-41759390D02*
X31397095Y-41807009D01*
X31397095Y-41807009D02*
X31301857Y-41854628D01*
X31301857Y-41854628D02*
X30920905Y-41854628D01*
X31825667Y-41330819D02*
X32492333Y-41330819D01*
X32492333Y-41330819D02*
X32063762Y-42330819D01*
X16411142Y-41854580D02*
X16363523Y-41902200D01*
X16363523Y-41902200D02*
X16220666Y-41949819D01*
X16220666Y-41949819D02*
X16125428Y-41949819D01*
X16125428Y-41949819D02*
X15982571Y-41902200D01*
X15982571Y-41902200D02*
X15887333Y-41806961D01*
X15887333Y-41806961D02*
X15839714Y-41711723D01*
X15839714Y-41711723D02*
X15792095Y-41521247D01*
X15792095Y-41521247D02*
X15792095Y-41378390D01*
X15792095Y-41378390D02*
X15839714Y-41187914D01*
X15839714Y-41187914D02*
X15887333Y-41092676D01*
X15887333Y-41092676D02*
X15982571Y-40997438D01*
X15982571Y-40997438D02*
X16125428Y-40949819D01*
X16125428Y-40949819D02*
X16220666Y-40949819D01*
X16220666Y-40949819D02*
X16363523Y-40997438D01*
X16363523Y-40997438D02*
X16411142Y-41045057D01*
X17268285Y-41283152D02*
X17268285Y-41949819D01*
X17030190Y-40902200D02*
X16792095Y-41616485D01*
X16792095Y-41616485D02*
X17411142Y-41616485D01*
X17982571Y-40949819D02*
X18077809Y-40949819D01*
X18077809Y-40949819D02*
X18173047Y-40997438D01*
X18173047Y-40997438D02*
X18220666Y-41045057D01*
X18220666Y-41045057D02*
X18268285Y-41140295D01*
X18268285Y-41140295D02*
X18315904Y-41330771D01*
X18315904Y-41330771D02*
X18315904Y-41568866D01*
X18315904Y-41568866D02*
X18268285Y-41759342D01*
X18268285Y-41759342D02*
X18220666Y-41854580D01*
X18220666Y-41854580D02*
X18173047Y-41902200D01*
X18173047Y-41902200D02*
X18077809Y-41949819D01*
X18077809Y-41949819D02*
X17982571Y-41949819D01*
X17982571Y-41949819D02*
X17887333Y-41902200D01*
X17887333Y-41902200D02*
X17839714Y-41854580D01*
X17839714Y-41854580D02*
X17792095Y-41759342D01*
X17792095Y-41759342D02*
X17744476Y-41568866D01*
X17744476Y-41568866D02*
X17744476Y-41330771D01*
X17744476Y-41330771D02*
X17792095Y-41140295D01*
X17792095Y-41140295D02*
X17839714Y-41045057D01*
X17839714Y-41045057D02*
X17887333Y-40997438D01*
X17887333Y-40997438D02*
X17982571Y-40949819D01*
D13*
X45343617Y-41753570D02*
X45343617Y-41982142D01*
X45343617Y-41982142D02*
X44863617Y-41982142D01*
X45343617Y-41342142D02*
X45343617Y-41616428D01*
X45343617Y-41479285D02*
X44863617Y-41479285D01*
X44863617Y-41479285D02*
X44932188Y-41524999D01*
X44932188Y-41524999D02*
X44977902Y-41570714D01*
X44977902Y-41570714D02*
X45000760Y-41616428D01*
X45343617Y-41113571D02*
X45343617Y-41022142D01*
X45343617Y-41022142D02*
X45320760Y-40976428D01*
X45320760Y-40976428D02*
X45297902Y-40953571D01*
X45297902Y-40953571D02*
X45229331Y-40907856D01*
X45229331Y-40907856D02*
X45137902Y-40884999D01*
X45137902Y-40884999D02*
X44955045Y-40884999D01*
X44955045Y-40884999D02*
X44909331Y-40907856D01*
X44909331Y-40907856D02*
X44886474Y-40930714D01*
X44886474Y-40930714D02*
X44863617Y-40976428D01*
X44863617Y-40976428D02*
X44863617Y-41067856D01*
X44863617Y-41067856D02*
X44886474Y-41113571D01*
X44886474Y-41113571D02*
X44909331Y-41136428D01*
X44909331Y-41136428D02*
X44955045Y-41159285D01*
X44955045Y-41159285D02*
X45069331Y-41159285D01*
X45069331Y-41159285D02*
X45115045Y-41136428D01*
X45115045Y-41136428D02*
X45137902Y-41113571D01*
X45137902Y-41113571D02*
X45160760Y-41067856D01*
X45160760Y-41067856D02*
X45160760Y-40976428D01*
X45160760Y-40976428D02*
X45137902Y-40930714D01*
X45137902Y-40930714D02*
X45115045Y-40907856D01*
X45115045Y-40907856D02*
X45069331Y-40884999D01*
D12*
X23650142Y-40584580D02*
X23602523Y-40632200D01*
X23602523Y-40632200D02*
X23459666Y-40679819D01*
X23459666Y-40679819D02*
X23364428Y-40679819D01*
X23364428Y-40679819D02*
X23221571Y-40632200D01*
X23221571Y-40632200D02*
X23126333Y-40536961D01*
X23126333Y-40536961D02*
X23078714Y-40441723D01*
X23078714Y-40441723D02*
X23031095Y-40251247D01*
X23031095Y-40251247D02*
X23031095Y-40108390D01*
X23031095Y-40108390D02*
X23078714Y-39917914D01*
X23078714Y-39917914D02*
X23126333Y-39822676D01*
X23126333Y-39822676D02*
X23221571Y-39727438D01*
X23221571Y-39727438D02*
X23364428Y-39679819D01*
X23364428Y-39679819D02*
X23459666Y-39679819D01*
X23459666Y-39679819D02*
X23602523Y-39727438D01*
X23602523Y-39727438D02*
X23650142Y-39775057D01*
X23983476Y-39679819D02*
X24602523Y-39679819D01*
X24602523Y-39679819D02*
X24269190Y-40060771D01*
X24269190Y-40060771D02*
X24412047Y-40060771D01*
X24412047Y-40060771D02*
X24507285Y-40108390D01*
X24507285Y-40108390D02*
X24554904Y-40156009D01*
X24554904Y-40156009D02*
X24602523Y-40251247D01*
X24602523Y-40251247D02*
X24602523Y-40489342D01*
X24602523Y-40489342D02*
X24554904Y-40584580D01*
X24554904Y-40584580D02*
X24507285Y-40632200D01*
X24507285Y-40632200D02*
X24412047Y-40679819D01*
X24412047Y-40679819D02*
X24126333Y-40679819D01*
X24126333Y-40679819D02*
X24031095Y-40632200D01*
X24031095Y-40632200D02*
X23983476Y-40584580D01*
X25459666Y-40013152D02*
X25459666Y-40679819D01*
X25221571Y-39632200D02*
X24983476Y-40346485D01*
X24983476Y-40346485D02*
X25602523Y-40346485D01*
X35584819Y-28964166D02*
X35108628Y-29297499D01*
X35584819Y-29535594D02*
X34584819Y-29535594D01*
X34584819Y-29535594D02*
X34584819Y-29154642D01*
X34584819Y-29154642D02*
X34632438Y-29059404D01*
X34632438Y-29059404D02*
X34680057Y-29011785D01*
X34680057Y-29011785D02*
X34775295Y-28964166D01*
X34775295Y-28964166D02*
X34918152Y-28964166D01*
X34918152Y-28964166D02*
X35013390Y-29011785D01*
X35013390Y-29011785D02*
X35061009Y-29059404D01*
X35061009Y-29059404D02*
X35108628Y-29154642D01*
X35108628Y-29154642D02*
X35108628Y-29535594D01*
X35013390Y-28392737D02*
X34965771Y-28487975D01*
X34965771Y-28487975D02*
X34918152Y-28535594D01*
X34918152Y-28535594D02*
X34822914Y-28583213D01*
X34822914Y-28583213D02*
X34775295Y-28583213D01*
X34775295Y-28583213D02*
X34680057Y-28535594D01*
X34680057Y-28535594D02*
X34632438Y-28487975D01*
X34632438Y-28487975D02*
X34584819Y-28392737D01*
X34584819Y-28392737D02*
X34584819Y-28202261D01*
X34584819Y-28202261D02*
X34632438Y-28107023D01*
X34632438Y-28107023D02*
X34680057Y-28059404D01*
X34680057Y-28059404D02*
X34775295Y-28011785D01*
X34775295Y-28011785D02*
X34822914Y-28011785D01*
X34822914Y-28011785D02*
X34918152Y-28059404D01*
X34918152Y-28059404D02*
X34965771Y-28107023D01*
X34965771Y-28107023D02*
X35013390Y-28202261D01*
X35013390Y-28202261D02*
X35013390Y-28392737D01*
X35013390Y-28392737D02*
X35061009Y-28487975D01*
X35061009Y-28487975D02*
X35108628Y-28535594D01*
X35108628Y-28535594D02*
X35203866Y-28583213D01*
X35203866Y-28583213D02*
X35394342Y-28583213D01*
X35394342Y-28583213D02*
X35489580Y-28535594D01*
X35489580Y-28535594D02*
X35537200Y-28487975D01*
X35537200Y-28487975D02*
X35584819Y-28392737D01*
X35584819Y-28392737D02*
X35584819Y-28202261D01*
X35584819Y-28202261D02*
X35537200Y-28107023D01*
X35537200Y-28107023D02*
X35489580Y-28059404D01*
X35489580Y-28059404D02*
X35394342Y-28011785D01*
X35394342Y-28011785D02*
X35203866Y-28011785D01*
X35203866Y-28011785D02*
X35108628Y-28059404D01*
X35108628Y-28059404D02*
X35061009Y-28107023D01*
X35061009Y-28107023D02*
X35013390Y-28202261D01*
X32667142Y-42235580D02*
X32619523Y-42283200D01*
X32619523Y-42283200D02*
X32476666Y-42330819D01*
X32476666Y-42330819D02*
X32381428Y-42330819D01*
X32381428Y-42330819D02*
X32238571Y-42283200D01*
X32238571Y-42283200D02*
X32143333Y-42187961D01*
X32143333Y-42187961D02*
X32095714Y-42092723D01*
X32095714Y-42092723D02*
X32048095Y-41902247D01*
X32048095Y-41902247D02*
X32048095Y-41759390D01*
X32048095Y-41759390D02*
X32095714Y-41568914D01*
X32095714Y-41568914D02*
X32143333Y-41473676D01*
X32143333Y-41473676D02*
X32238571Y-41378438D01*
X32238571Y-41378438D02*
X32381428Y-41330819D01*
X32381428Y-41330819D02*
X32476666Y-41330819D01*
X32476666Y-41330819D02*
X32619523Y-41378438D01*
X32619523Y-41378438D02*
X32667142Y-41426057D01*
X33524285Y-41664152D02*
X33524285Y-42330819D01*
X33286190Y-41283200D02*
X33048095Y-41997485D01*
X33048095Y-41997485D02*
X33667142Y-41997485D01*
X34571904Y-42330819D02*
X34000476Y-42330819D01*
X34286190Y-42330819D02*
X34286190Y-41330819D01*
X34286190Y-41330819D02*
X34190952Y-41473676D01*
X34190952Y-41473676D02*
X34095714Y-41568914D01*
X34095714Y-41568914D02*
X34000476Y-41616533D01*
X100582819Y-79830094D02*
X101392342Y-79830094D01*
X101392342Y-79830094D02*
X101487580Y-79782475D01*
X101487580Y-79782475D02*
X101535200Y-79734856D01*
X101535200Y-79734856D02*
X101582819Y-79639618D01*
X101582819Y-79639618D02*
X101582819Y-79449142D01*
X101582819Y-79449142D02*
X101535200Y-79353904D01*
X101535200Y-79353904D02*
X101487580Y-79306285D01*
X101487580Y-79306285D02*
X101392342Y-79258666D01*
X101392342Y-79258666D02*
X100582819Y-79258666D01*
X101582819Y-78258666D02*
X101582819Y-78830094D01*
X101582819Y-78544380D02*
X100582819Y-78544380D01*
X100582819Y-78544380D02*
X100725676Y-78639618D01*
X100725676Y-78639618D02*
X100820914Y-78734856D01*
X100820914Y-78734856D02*
X100868533Y-78830094D01*
X100582819Y-77639618D02*
X100582819Y-77544380D01*
X100582819Y-77544380D02*
X100630438Y-77449142D01*
X100630438Y-77449142D02*
X100678057Y-77401523D01*
X100678057Y-77401523D02*
X100773295Y-77353904D01*
X100773295Y-77353904D02*
X100963771Y-77306285D01*
X100963771Y-77306285D02*
X101201866Y-77306285D01*
X101201866Y-77306285D02*
X101392342Y-77353904D01*
X101392342Y-77353904D02*
X101487580Y-77401523D01*
X101487580Y-77401523D02*
X101535200Y-77449142D01*
X101535200Y-77449142D02*
X101582819Y-77544380D01*
X101582819Y-77544380D02*
X101582819Y-77639618D01*
X101582819Y-77639618D02*
X101535200Y-77734856D01*
X101535200Y-77734856D02*
X101487580Y-77782475D01*
X101487580Y-77782475D02*
X101392342Y-77830094D01*
X101392342Y-77830094D02*
X101201866Y-77877713D01*
X101201866Y-77877713D02*
X100963771Y-77877713D01*
X100963771Y-77877713D02*
X100773295Y-77830094D01*
X100773295Y-77830094D02*
X100678057Y-77782475D01*
X100678057Y-77782475D02*
X100630438Y-77734856D01*
X100630438Y-77734856D02*
X100582819Y-77639618D01*
D13*
X35208429Y-43819617D02*
X34979857Y-43819617D01*
X34979857Y-43819617D02*
X34979857Y-43339617D01*
X35619857Y-43819617D02*
X35345571Y-43819617D01*
X35482714Y-43819617D02*
X35482714Y-43339617D01*
X35482714Y-43339617D02*
X35437000Y-43408188D01*
X35437000Y-43408188D02*
X35391285Y-43453902D01*
X35391285Y-43453902D02*
X35345571Y-43476760D01*
X35894143Y-43545331D02*
X35848428Y-43522474D01*
X35848428Y-43522474D02*
X35825571Y-43499617D01*
X35825571Y-43499617D02*
X35802714Y-43453902D01*
X35802714Y-43453902D02*
X35802714Y-43431045D01*
X35802714Y-43431045D02*
X35825571Y-43385331D01*
X35825571Y-43385331D02*
X35848428Y-43362474D01*
X35848428Y-43362474D02*
X35894143Y-43339617D01*
X35894143Y-43339617D02*
X35985571Y-43339617D01*
X35985571Y-43339617D02*
X36031286Y-43362474D01*
X36031286Y-43362474D02*
X36054143Y-43385331D01*
X36054143Y-43385331D02*
X36077000Y-43431045D01*
X36077000Y-43431045D02*
X36077000Y-43453902D01*
X36077000Y-43453902D02*
X36054143Y-43499617D01*
X36054143Y-43499617D02*
X36031286Y-43522474D01*
X36031286Y-43522474D02*
X35985571Y-43545331D01*
X35985571Y-43545331D02*
X35894143Y-43545331D01*
X35894143Y-43545331D02*
X35848428Y-43568188D01*
X35848428Y-43568188D02*
X35825571Y-43591045D01*
X35825571Y-43591045D02*
X35802714Y-43636760D01*
X35802714Y-43636760D02*
X35802714Y-43728188D01*
X35802714Y-43728188D02*
X35825571Y-43773902D01*
X35825571Y-43773902D02*
X35848428Y-43796760D01*
X35848428Y-43796760D02*
X35894143Y-43819617D01*
X35894143Y-43819617D02*
X35985571Y-43819617D01*
X35985571Y-43819617D02*
X36031286Y-43796760D01*
X36031286Y-43796760D02*
X36054143Y-43773902D01*
X36054143Y-43773902D02*
X36077000Y-43728188D01*
X36077000Y-43728188D02*
X36077000Y-43636760D01*
X36077000Y-43636760D02*
X36054143Y-43591045D01*
X36054143Y-43591045D02*
X36031286Y-43568188D01*
X36031286Y-43568188D02*
X35985571Y-43545331D01*
D12*
X24566009Y-45412661D02*
X24260963Y-45412661D01*
X24260963Y-45412661D02*
X24260963Y-44772064D01*
X25054083Y-44985596D02*
X25054083Y-45412661D01*
X24901560Y-44741560D02*
X24749037Y-45199129D01*
X24749037Y-45199129D02*
X25145597Y-45199129D01*
X44648580Y-41978857D02*
X44696200Y-42026476D01*
X44696200Y-42026476D02*
X44743819Y-42169333D01*
X44743819Y-42169333D02*
X44743819Y-42264571D01*
X44743819Y-42264571D02*
X44696200Y-42407428D01*
X44696200Y-42407428D02*
X44600961Y-42502666D01*
X44600961Y-42502666D02*
X44505723Y-42550285D01*
X44505723Y-42550285D02*
X44315247Y-42597904D01*
X44315247Y-42597904D02*
X44172390Y-42597904D01*
X44172390Y-42597904D02*
X43981914Y-42550285D01*
X43981914Y-42550285D02*
X43886676Y-42502666D01*
X43886676Y-42502666D02*
X43791438Y-42407428D01*
X43791438Y-42407428D02*
X43743819Y-42264571D01*
X43743819Y-42264571D02*
X43743819Y-42169333D01*
X43743819Y-42169333D02*
X43791438Y-42026476D01*
X43791438Y-42026476D02*
X43839057Y-41978857D01*
X44077152Y-41121714D02*
X44743819Y-41121714D01*
X43696200Y-41359809D02*
X44410485Y-41597904D01*
X44410485Y-41597904D02*
X44410485Y-40978857D01*
X44743819Y-40550285D02*
X44743819Y-40359809D01*
X44743819Y-40359809D02*
X44696200Y-40264571D01*
X44696200Y-40264571D02*
X44648580Y-40216952D01*
X44648580Y-40216952D02*
X44505723Y-40121714D01*
X44505723Y-40121714D02*
X44315247Y-40074095D01*
X44315247Y-40074095D02*
X43934295Y-40074095D01*
X43934295Y-40074095D02*
X43839057Y-40121714D01*
X43839057Y-40121714D02*
X43791438Y-40169333D01*
X43791438Y-40169333D02*
X43743819Y-40264571D01*
X43743819Y-40264571D02*
X43743819Y-40455047D01*
X43743819Y-40455047D02*
X43791438Y-40550285D01*
X43791438Y-40550285D02*
X43839057Y-40597904D01*
X43839057Y-40597904D02*
X43934295Y-40645523D01*
X43934295Y-40645523D02*
X44172390Y-40645523D01*
X44172390Y-40645523D02*
X44267628Y-40597904D01*
X44267628Y-40597904D02*
X44315247Y-40550285D01*
X44315247Y-40550285D02*
X44362866Y-40455047D01*
X44362866Y-40455047D02*
X44362866Y-40264571D01*
X44362866Y-40264571D02*
X44315247Y-40169333D01*
X44315247Y-40169333D02*
X44267628Y-40121714D01*
X44267628Y-40121714D02*
X44172390Y-40074095D01*
X37155580Y-43060857D02*
X37203200Y-43108476D01*
X37203200Y-43108476D02*
X37250819Y-43251333D01*
X37250819Y-43251333D02*
X37250819Y-43346571D01*
X37250819Y-43346571D02*
X37203200Y-43489428D01*
X37203200Y-43489428D02*
X37107961Y-43584666D01*
X37107961Y-43584666D02*
X37012723Y-43632285D01*
X37012723Y-43632285D02*
X36822247Y-43679904D01*
X36822247Y-43679904D02*
X36679390Y-43679904D01*
X36679390Y-43679904D02*
X36488914Y-43632285D01*
X36488914Y-43632285D02*
X36393676Y-43584666D01*
X36393676Y-43584666D02*
X36298438Y-43489428D01*
X36298438Y-43489428D02*
X36250819Y-43346571D01*
X36250819Y-43346571D02*
X36250819Y-43251333D01*
X36250819Y-43251333D02*
X36298438Y-43108476D01*
X36298438Y-43108476D02*
X36346057Y-43060857D01*
X36584152Y-42203714D02*
X37250819Y-42203714D01*
X36203200Y-42441809D02*
X36917485Y-42679904D01*
X36917485Y-42679904D02*
X36917485Y-42060857D01*
X36679390Y-41537047D02*
X36631771Y-41632285D01*
X36631771Y-41632285D02*
X36584152Y-41679904D01*
X36584152Y-41679904D02*
X36488914Y-41727523D01*
X36488914Y-41727523D02*
X36441295Y-41727523D01*
X36441295Y-41727523D02*
X36346057Y-41679904D01*
X36346057Y-41679904D02*
X36298438Y-41632285D01*
X36298438Y-41632285D02*
X36250819Y-41537047D01*
X36250819Y-41537047D02*
X36250819Y-41346571D01*
X36250819Y-41346571D02*
X36298438Y-41251333D01*
X36298438Y-41251333D02*
X36346057Y-41203714D01*
X36346057Y-41203714D02*
X36441295Y-41156095D01*
X36441295Y-41156095D02*
X36488914Y-41156095D01*
X36488914Y-41156095D02*
X36584152Y-41203714D01*
X36584152Y-41203714D02*
X36631771Y-41251333D01*
X36631771Y-41251333D02*
X36679390Y-41346571D01*
X36679390Y-41346571D02*
X36679390Y-41537047D01*
X36679390Y-41537047D02*
X36727009Y-41632285D01*
X36727009Y-41632285D02*
X36774628Y-41679904D01*
X36774628Y-41679904D02*
X36869866Y-41727523D01*
X36869866Y-41727523D02*
X37060342Y-41727523D01*
X37060342Y-41727523D02*
X37155580Y-41679904D01*
X37155580Y-41679904D02*
X37203200Y-41632285D01*
X37203200Y-41632285D02*
X37250819Y-41537047D01*
X37250819Y-41537047D02*
X37250819Y-41346571D01*
X37250819Y-41346571D02*
X37203200Y-41251333D01*
X37203200Y-41251333D02*
X37155580Y-41203714D01*
X37155580Y-41203714D02*
X37060342Y-41156095D01*
X37060342Y-41156095D02*
X36869866Y-41156095D01*
X36869866Y-41156095D02*
X36774628Y-41203714D01*
X36774628Y-41203714D02*
X36727009Y-41251333D01*
X36727009Y-41251333D02*
X36679390Y-41346571D01*
X29268142Y-42235580D02*
X29220523Y-42283200D01*
X29220523Y-42283200D02*
X29077666Y-42330819D01*
X29077666Y-42330819D02*
X28982428Y-42330819D01*
X28982428Y-42330819D02*
X28839571Y-42283200D01*
X28839571Y-42283200D02*
X28744333Y-42187961D01*
X28744333Y-42187961D02*
X28696714Y-42092723D01*
X28696714Y-42092723D02*
X28649095Y-41902247D01*
X28649095Y-41902247D02*
X28649095Y-41759390D01*
X28649095Y-41759390D02*
X28696714Y-41568914D01*
X28696714Y-41568914D02*
X28744333Y-41473676D01*
X28744333Y-41473676D02*
X28839571Y-41378438D01*
X28839571Y-41378438D02*
X28982428Y-41330819D01*
X28982428Y-41330819D02*
X29077666Y-41330819D01*
X29077666Y-41330819D02*
X29220523Y-41378438D01*
X29220523Y-41378438D02*
X29268142Y-41426057D01*
X29601476Y-41330819D02*
X30220523Y-41330819D01*
X30220523Y-41330819D02*
X29887190Y-41711771D01*
X29887190Y-41711771D02*
X30030047Y-41711771D01*
X30030047Y-41711771D02*
X30125285Y-41759390D01*
X30125285Y-41759390D02*
X30172904Y-41807009D01*
X30172904Y-41807009D02*
X30220523Y-41902247D01*
X30220523Y-41902247D02*
X30220523Y-42140342D01*
X30220523Y-42140342D02*
X30172904Y-42235580D01*
X30172904Y-42235580D02*
X30125285Y-42283200D01*
X30125285Y-42283200D02*
X30030047Y-42330819D01*
X30030047Y-42330819D02*
X29744333Y-42330819D01*
X29744333Y-42330819D02*
X29649095Y-42283200D01*
X29649095Y-42283200D02*
X29601476Y-42235580D01*
X30791952Y-41759390D02*
X30696714Y-41711771D01*
X30696714Y-41711771D02*
X30649095Y-41664152D01*
X30649095Y-41664152D02*
X30601476Y-41568914D01*
X30601476Y-41568914D02*
X30601476Y-41521295D01*
X30601476Y-41521295D02*
X30649095Y-41426057D01*
X30649095Y-41426057D02*
X30696714Y-41378438D01*
X30696714Y-41378438D02*
X30791952Y-41330819D01*
X30791952Y-41330819D02*
X30982428Y-41330819D01*
X30982428Y-41330819D02*
X31077666Y-41378438D01*
X31077666Y-41378438D02*
X31125285Y-41426057D01*
X31125285Y-41426057D02*
X31172904Y-41521295D01*
X31172904Y-41521295D02*
X31172904Y-41568914D01*
X31172904Y-41568914D02*
X31125285Y-41664152D01*
X31125285Y-41664152D02*
X31077666Y-41711771D01*
X31077666Y-41711771D02*
X30982428Y-41759390D01*
X30982428Y-41759390D02*
X30791952Y-41759390D01*
X30791952Y-41759390D02*
X30696714Y-41807009D01*
X30696714Y-41807009D02*
X30649095Y-41854628D01*
X30649095Y-41854628D02*
X30601476Y-41949866D01*
X30601476Y-41949866D02*
X30601476Y-42140342D01*
X30601476Y-42140342D02*
X30649095Y-42235580D01*
X30649095Y-42235580D02*
X30696714Y-42283200D01*
X30696714Y-42283200D02*
X30791952Y-42330819D01*
X30791952Y-42330819D02*
X30982428Y-42330819D01*
X30982428Y-42330819D02*
X31077666Y-42283200D01*
X31077666Y-42283200D02*
X31125285Y-42235580D01*
X31125285Y-42235580D02*
X31172904Y-42140342D01*
X31172904Y-42140342D02*
X31172904Y-41949866D01*
X31172904Y-41949866D02*
X31125285Y-41854628D01*
X31125285Y-41854628D02*
X31077666Y-41807009D01*
X31077666Y-41807009D02*
X30982428Y-41759390D01*
X41727580Y-41445857D02*
X41775200Y-41493476D01*
X41775200Y-41493476D02*
X41822819Y-41636333D01*
X41822819Y-41636333D02*
X41822819Y-41731571D01*
X41822819Y-41731571D02*
X41775200Y-41874428D01*
X41775200Y-41874428D02*
X41679961Y-41969666D01*
X41679961Y-41969666D02*
X41584723Y-42017285D01*
X41584723Y-42017285D02*
X41394247Y-42064904D01*
X41394247Y-42064904D02*
X41251390Y-42064904D01*
X41251390Y-42064904D02*
X41060914Y-42017285D01*
X41060914Y-42017285D02*
X40965676Y-41969666D01*
X40965676Y-41969666D02*
X40870438Y-41874428D01*
X40870438Y-41874428D02*
X40822819Y-41731571D01*
X40822819Y-41731571D02*
X40822819Y-41636333D01*
X40822819Y-41636333D02*
X40870438Y-41493476D01*
X40870438Y-41493476D02*
X40918057Y-41445857D01*
X41156152Y-40588714D02*
X41822819Y-40588714D01*
X40775200Y-40826809D02*
X41489485Y-41064904D01*
X41489485Y-41064904D02*
X41489485Y-40445857D01*
X40822819Y-39588714D02*
X40822819Y-40064904D01*
X40822819Y-40064904D02*
X41299009Y-40112523D01*
X41299009Y-40112523D02*
X41251390Y-40064904D01*
X41251390Y-40064904D02*
X41203771Y-39969666D01*
X41203771Y-39969666D02*
X41203771Y-39731571D01*
X41203771Y-39731571D02*
X41251390Y-39636333D01*
X41251390Y-39636333D02*
X41299009Y-39588714D01*
X41299009Y-39588714D02*
X41394247Y-39541095D01*
X41394247Y-39541095D02*
X41632342Y-39541095D01*
X41632342Y-39541095D02*
X41727580Y-39588714D01*
X41727580Y-39588714D02*
X41775200Y-39636333D01*
X41775200Y-39636333D02*
X41822819Y-39731571D01*
X41822819Y-39731571D02*
X41822819Y-39969666D01*
X41822819Y-39969666D02*
X41775200Y-40064904D01*
X41775200Y-40064904D02*
X41727580Y-40112523D01*
X71838142Y-74656819D02*
X71504809Y-74180628D01*
X71266714Y-74656819D02*
X71266714Y-73656819D01*
X71266714Y-73656819D02*
X71647666Y-73656819D01*
X71647666Y-73656819D02*
X71742904Y-73704438D01*
X71742904Y-73704438D02*
X71790523Y-73752057D01*
X71790523Y-73752057D02*
X71838142Y-73847295D01*
X71838142Y-73847295D02*
X71838142Y-73990152D01*
X71838142Y-73990152D02*
X71790523Y-74085390D01*
X71790523Y-74085390D02*
X71742904Y-74133009D01*
X71742904Y-74133009D02*
X71647666Y-74180628D01*
X71647666Y-74180628D02*
X71266714Y-74180628D01*
X72790523Y-74656819D02*
X72219095Y-74656819D01*
X72504809Y-74656819D02*
X72504809Y-73656819D01*
X72504809Y-73656819D02*
X72409571Y-73799676D01*
X72409571Y-73799676D02*
X72314333Y-73894914D01*
X72314333Y-73894914D02*
X72219095Y-73942533D01*
X73171476Y-73752057D02*
X73219095Y-73704438D01*
X73219095Y-73704438D02*
X73314333Y-73656819D01*
X73314333Y-73656819D02*
X73552428Y-73656819D01*
X73552428Y-73656819D02*
X73647666Y-73704438D01*
X73647666Y-73704438D02*
X73695285Y-73752057D01*
X73695285Y-73752057D02*
X73742904Y-73847295D01*
X73742904Y-73847295D02*
X73742904Y-73942533D01*
X73742904Y-73942533D02*
X73695285Y-74085390D01*
X73695285Y-74085390D02*
X73123857Y-74656819D01*
X73123857Y-74656819D02*
X73742904Y-74656819D01*
D13*
X19673429Y-41956017D02*
X19444857Y-41956017D01*
X19444857Y-41956017D02*
X19444857Y-41476017D01*
X20084857Y-41956017D02*
X19810571Y-41956017D01*
X19947714Y-41956017D02*
X19947714Y-41476017D01*
X19947714Y-41476017D02*
X19902000Y-41544588D01*
X19902000Y-41544588D02*
X19856285Y-41590302D01*
X19856285Y-41590302D02*
X19810571Y-41613160D01*
X20496286Y-41476017D02*
X20404857Y-41476017D01*
X20404857Y-41476017D02*
X20359143Y-41498874D01*
X20359143Y-41498874D02*
X20336286Y-41521731D01*
X20336286Y-41521731D02*
X20290571Y-41590302D01*
X20290571Y-41590302D02*
X20267714Y-41681731D01*
X20267714Y-41681731D02*
X20267714Y-41864588D01*
X20267714Y-41864588D02*
X20290571Y-41910302D01*
X20290571Y-41910302D02*
X20313428Y-41933160D01*
X20313428Y-41933160D02*
X20359143Y-41956017D01*
X20359143Y-41956017D02*
X20450571Y-41956017D01*
X20450571Y-41956017D02*
X20496286Y-41933160D01*
X20496286Y-41933160D02*
X20519143Y-41910302D01*
X20519143Y-41910302D02*
X20542000Y-41864588D01*
X20542000Y-41864588D02*
X20542000Y-41750302D01*
X20542000Y-41750302D02*
X20519143Y-41704588D01*
X20519143Y-41704588D02*
X20496286Y-41681731D01*
X20496286Y-41681731D02*
X20450571Y-41658874D01*
X20450571Y-41658874D02*
X20359143Y-41658874D01*
X20359143Y-41658874D02*
X20313428Y-41681731D01*
X20313428Y-41681731D02*
X20290571Y-41704588D01*
X20290571Y-41704588D02*
X20267714Y-41750302D01*
D12*
X32779819Y-74007857D02*
X32303628Y-74341190D01*
X32779819Y-74579285D02*
X31779819Y-74579285D01*
X31779819Y-74579285D02*
X31779819Y-74198333D01*
X31779819Y-74198333D02*
X31827438Y-74103095D01*
X31827438Y-74103095D02*
X31875057Y-74055476D01*
X31875057Y-74055476D02*
X31970295Y-74007857D01*
X31970295Y-74007857D02*
X32113152Y-74007857D01*
X32113152Y-74007857D02*
X32208390Y-74055476D01*
X32208390Y-74055476D02*
X32256009Y-74103095D01*
X32256009Y-74103095D02*
X32303628Y-74198333D01*
X32303628Y-74198333D02*
X32303628Y-74579285D01*
X32779819Y-73055476D02*
X32779819Y-73626904D01*
X32779819Y-73341190D02*
X31779819Y-73341190D01*
X31779819Y-73341190D02*
X31922676Y-73436428D01*
X31922676Y-73436428D02*
X32017914Y-73531666D01*
X32017914Y-73531666D02*
X32065533Y-73626904D01*
X32779819Y-72103095D02*
X32779819Y-72674523D01*
X32779819Y-72388809D02*
X31779819Y-72388809D01*
X31779819Y-72388809D02*
X31922676Y-72484047D01*
X31922676Y-72484047D02*
X32017914Y-72579285D01*
X32017914Y-72579285D02*
X32065533Y-72674523D01*
X32354819Y-33918094D02*
X31354819Y-33918094D01*
X31354819Y-33918094D02*
X31354819Y-33679999D01*
X31354819Y-33679999D02*
X31402438Y-33537142D01*
X31402438Y-33537142D02*
X31497676Y-33441904D01*
X31497676Y-33441904D02*
X31592914Y-33394285D01*
X31592914Y-33394285D02*
X31783390Y-33346666D01*
X31783390Y-33346666D02*
X31926247Y-33346666D01*
X31926247Y-33346666D02*
X32116723Y-33394285D01*
X32116723Y-33394285D02*
X32211961Y-33441904D01*
X32211961Y-33441904D02*
X32307200Y-33537142D01*
X32307200Y-33537142D02*
X32354819Y-33679999D01*
X32354819Y-33679999D02*
X32354819Y-33918094D01*
X31688152Y-32489523D02*
X32354819Y-32489523D01*
X31307200Y-32727618D02*
X32021485Y-32965713D01*
X32021485Y-32965713D02*
X32021485Y-32346666D01*
X20264580Y-42643857D02*
X20312200Y-42691476D01*
X20312200Y-42691476D02*
X20359819Y-42834333D01*
X20359819Y-42834333D02*
X20359819Y-42929571D01*
X20359819Y-42929571D02*
X20312200Y-43072428D01*
X20312200Y-43072428D02*
X20216961Y-43167666D01*
X20216961Y-43167666D02*
X20121723Y-43215285D01*
X20121723Y-43215285D02*
X19931247Y-43262904D01*
X19931247Y-43262904D02*
X19788390Y-43262904D01*
X19788390Y-43262904D02*
X19597914Y-43215285D01*
X19597914Y-43215285D02*
X19502676Y-43167666D01*
X19502676Y-43167666D02*
X19407438Y-43072428D01*
X19407438Y-43072428D02*
X19359819Y-42929571D01*
X19359819Y-42929571D02*
X19359819Y-42834333D01*
X19359819Y-42834333D02*
X19407438Y-42691476D01*
X19407438Y-42691476D02*
X19455057Y-42643857D01*
X19359819Y-42310523D02*
X19359819Y-41691476D01*
X19359819Y-41691476D02*
X19740771Y-42024809D01*
X19740771Y-42024809D02*
X19740771Y-41881952D01*
X19740771Y-41881952D02*
X19788390Y-41786714D01*
X19788390Y-41786714D02*
X19836009Y-41739095D01*
X19836009Y-41739095D02*
X19931247Y-41691476D01*
X19931247Y-41691476D02*
X20169342Y-41691476D01*
X20169342Y-41691476D02*
X20264580Y-41739095D01*
X20264580Y-41739095D02*
X20312200Y-41786714D01*
X20312200Y-41786714D02*
X20359819Y-41881952D01*
X20359819Y-41881952D02*
X20359819Y-42167666D01*
X20359819Y-42167666D02*
X20312200Y-42262904D01*
X20312200Y-42262904D02*
X20264580Y-42310523D01*
X19359819Y-41358142D02*
X19359819Y-40691476D01*
X19359819Y-40691476D02*
X20359819Y-41120047D01*
X35873333Y-47315580D02*
X35825714Y-47363200D01*
X35825714Y-47363200D02*
X35682857Y-47410819D01*
X35682857Y-47410819D02*
X35587619Y-47410819D01*
X35587619Y-47410819D02*
X35444762Y-47363200D01*
X35444762Y-47363200D02*
X35349524Y-47267961D01*
X35349524Y-47267961D02*
X35301905Y-47172723D01*
X35301905Y-47172723D02*
X35254286Y-46982247D01*
X35254286Y-46982247D02*
X35254286Y-46839390D01*
X35254286Y-46839390D02*
X35301905Y-46648914D01*
X35301905Y-46648914D02*
X35349524Y-46553676D01*
X35349524Y-46553676D02*
X35444762Y-46458438D01*
X35444762Y-46458438D02*
X35587619Y-46410819D01*
X35587619Y-46410819D02*
X35682857Y-46410819D01*
X35682857Y-46410819D02*
X35825714Y-46458438D01*
X35825714Y-46458438D02*
X35873333Y-46506057D01*
X36730476Y-46410819D02*
X36540000Y-46410819D01*
X36540000Y-46410819D02*
X36444762Y-46458438D01*
X36444762Y-46458438D02*
X36397143Y-46506057D01*
X36397143Y-46506057D02*
X36301905Y-46648914D01*
X36301905Y-46648914D02*
X36254286Y-46839390D01*
X36254286Y-46839390D02*
X36254286Y-47220342D01*
X36254286Y-47220342D02*
X36301905Y-47315580D01*
X36301905Y-47315580D02*
X36349524Y-47363200D01*
X36349524Y-47363200D02*
X36444762Y-47410819D01*
X36444762Y-47410819D02*
X36635238Y-47410819D01*
X36635238Y-47410819D02*
X36730476Y-47363200D01*
X36730476Y-47363200D02*
X36778095Y-47315580D01*
X36778095Y-47315580D02*
X36825714Y-47220342D01*
X36825714Y-47220342D02*
X36825714Y-46982247D01*
X36825714Y-46982247D02*
X36778095Y-46887009D01*
X36778095Y-46887009D02*
X36730476Y-46839390D01*
X36730476Y-46839390D02*
X36635238Y-46791771D01*
X36635238Y-46791771D02*
X36444762Y-46791771D01*
X36444762Y-46791771D02*
X36349524Y-46839390D01*
X36349524Y-46839390D02*
X36301905Y-46887009D01*
X36301905Y-46887009D02*
X36254286Y-46982247D01*
X30424580Y-39885857D02*
X30472200Y-39933476D01*
X30472200Y-39933476D02*
X30519819Y-40076333D01*
X30519819Y-40076333D02*
X30519819Y-40171571D01*
X30519819Y-40171571D02*
X30472200Y-40314428D01*
X30472200Y-40314428D02*
X30376961Y-40409666D01*
X30376961Y-40409666D02*
X30281723Y-40457285D01*
X30281723Y-40457285D02*
X30091247Y-40504904D01*
X30091247Y-40504904D02*
X29948390Y-40504904D01*
X29948390Y-40504904D02*
X29757914Y-40457285D01*
X29757914Y-40457285D02*
X29662676Y-40409666D01*
X29662676Y-40409666D02*
X29567438Y-40314428D01*
X29567438Y-40314428D02*
X29519819Y-40171571D01*
X29519819Y-40171571D02*
X29519819Y-40076333D01*
X29519819Y-40076333D02*
X29567438Y-39933476D01*
X29567438Y-39933476D02*
X29615057Y-39885857D01*
X29519819Y-39552523D02*
X29519819Y-38933476D01*
X29519819Y-38933476D02*
X29900771Y-39266809D01*
X29900771Y-39266809D02*
X29900771Y-39123952D01*
X29900771Y-39123952D02*
X29948390Y-39028714D01*
X29948390Y-39028714D02*
X29996009Y-38981095D01*
X29996009Y-38981095D02*
X30091247Y-38933476D01*
X30091247Y-38933476D02*
X30329342Y-38933476D01*
X30329342Y-38933476D02*
X30424580Y-38981095D01*
X30424580Y-38981095D02*
X30472200Y-39028714D01*
X30472200Y-39028714D02*
X30519819Y-39123952D01*
X30519819Y-39123952D02*
X30519819Y-39409666D01*
X30519819Y-39409666D02*
X30472200Y-39504904D01*
X30472200Y-39504904D02*
X30424580Y-39552523D01*
X29519819Y-38028714D02*
X29519819Y-38504904D01*
X29519819Y-38504904D02*
X29996009Y-38552523D01*
X29996009Y-38552523D02*
X29948390Y-38504904D01*
X29948390Y-38504904D02*
X29900771Y-38409666D01*
X29900771Y-38409666D02*
X29900771Y-38171571D01*
X29900771Y-38171571D02*
X29948390Y-38076333D01*
X29948390Y-38076333D02*
X29996009Y-38028714D01*
X29996009Y-38028714D02*
X30091247Y-37981095D01*
X30091247Y-37981095D02*
X30329342Y-37981095D01*
X30329342Y-37981095D02*
X30424580Y-38028714D01*
X30424580Y-38028714D02*
X30472200Y-38076333D01*
X30472200Y-38076333D02*
X30519819Y-38171571D01*
X30519819Y-38171571D02*
X30519819Y-38409666D01*
X30519819Y-38409666D02*
X30472200Y-38504904D01*
X30472200Y-38504904D02*
X30424580Y-38552523D01*
X36012580Y-39123857D02*
X36060200Y-39171476D01*
X36060200Y-39171476D02*
X36107819Y-39314333D01*
X36107819Y-39314333D02*
X36107819Y-39409571D01*
X36107819Y-39409571D02*
X36060200Y-39552428D01*
X36060200Y-39552428D02*
X35964961Y-39647666D01*
X35964961Y-39647666D02*
X35869723Y-39695285D01*
X35869723Y-39695285D02*
X35679247Y-39742904D01*
X35679247Y-39742904D02*
X35536390Y-39742904D01*
X35536390Y-39742904D02*
X35345914Y-39695285D01*
X35345914Y-39695285D02*
X35250676Y-39647666D01*
X35250676Y-39647666D02*
X35155438Y-39552428D01*
X35155438Y-39552428D02*
X35107819Y-39409571D01*
X35107819Y-39409571D02*
X35107819Y-39314333D01*
X35107819Y-39314333D02*
X35155438Y-39171476D01*
X35155438Y-39171476D02*
X35203057Y-39123857D01*
X35107819Y-38790523D02*
X35107819Y-38171476D01*
X35107819Y-38171476D02*
X35488771Y-38504809D01*
X35488771Y-38504809D02*
X35488771Y-38361952D01*
X35488771Y-38361952D02*
X35536390Y-38266714D01*
X35536390Y-38266714D02*
X35584009Y-38219095D01*
X35584009Y-38219095D02*
X35679247Y-38171476D01*
X35679247Y-38171476D02*
X35917342Y-38171476D01*
X35917342Y-38171476D02*
X36012580Y-38219095D01*
X36012580Y-38219095D02*
X36060200Y-38266714D01*
X36060200Y-38266714D02*
X36107819Y-38361952D01*
X36107819Y-38361952D02*
X36107819Y-38647666D01*
X36107819Y-38647666D02*
X36060200Y-38742904D01*
X36060200Y-38742904D02*
X36012580Y-38790523D01*
X35107819Y-37838142D02*
X35107819Y-37219095D01*
X35107819Y-37219095D02*
X35488771Y-37552428D01*
X35488771Y-37552428D02*
X35488771Y-37409571D01*
X35488771Y-37409571D02*
X35536390Y-37314333D01*
X35536390Y-37314333D02*
X35584009Y-37266714D01*
X35584009Y-37266714D02*
X35679247Y-37219095D01*
X35679247Y-37219095D02*
X35917342Y-37219095D01*
X35917342Y-37219095D02*
X36012580Y-37266714D01*
X36012580Y-37266714D02*
X36060200Y-37314333D01*
X36060200Y-37314333D02*
X36107819Y-37409571D01*
X36107819Y-37409571D02*
X36107819Y-37695285D01*
X36107819Y-37695285D02*
X36060200Y-37790523D01*
X36060200Y-37790523D02*
X36012580Y-37838142D01*
X40076580Y-39057857D02*
X40124200Y-39105476D01*
X40124200Y-39105476D02*
X40171819Y-39248333D01*
X40171819Y-39248333D02*
X40171819Y-39343571D01*
X40171819Y-39343571D02*
X40124200Y-39486428D01*
X40124200Y-39486428D02*
X40028961Y-39581666D01*
X40028961Y-39581666D02*
X39933723Y-39629285D01*
X39933723Y-39629285D02*
X39743247Y-39676904D01*
X39743247Y-39676904D02*
X39600390Y-39676904D01*
X39600390Y-39676904D02*
X39409914Y-39629285D01*
X39409914Y-39629285D02*
X39314676Y-39581666D01*
X39314676Y-39581666D02*
X39219438Y-39486428D01*
X39219438Y-39486428D02*
X39171819Y-39343571D01*
X39171819Y-39343571D02*
X39171819Y-39248333D01*
X39171819Y-39248333D02*
X39219438Y-39105476D01*
X39219438Y-39105476D02*
X39267057Y-39057857D01*
X39505152Y-38200714D02*
X40171819Y-38200714D01*
X39124200Y-38438809D02*
X39838485Y-38676904D01*
X39838485Y-38676904D02*
X39838485Y-38057857D01*
X39505152Y-37248333D02*
X40171819Y-37248333D01*
X39124200Y-37486428D02*
X39838485Y-37724523D01*
X39838485Y-37724523D02*
X39838485Y-37105476D01*
D13*
X35970429Y-40644617D02*
X35741857Y-40644617D01*
X35741857Y-40644617D02*
X35741857Y-40164617D01*
X36381857Y-40644617D02*
X36107571Y-40644617D01*
X36244714Y-40644617D02*
X36244714Y-40164617D01*
X36244714Y-40164617D02*
X36199000Y-40233188D01*
X36199000Y-40233188D02*
X36153285Y-40278902D01*
X36153285Y-40278902D02*
X36107571Y-40301760D01*
X36541857Y-40164617D02*
X36861857Y-40164617D01*
X36861857Y-40164617D02*
X36656143Y-40644617D01*
D12*
X48077580Y-53474857D02*
X48125200Y-53522476D01*
X48125200Y-53522476D02*
X48172819Y-53665333D01*
X48172819Y-53665333D02*
X48172819Y-53760571D01*
X48172819Y-53760571D02*
X48125200Y-53903428D01*
X48125200Y-53903428D02*
X48029961Y-53998666D01*
X48029961Y-53998666D02*
X47934723Y-54046285D01*
X47934723Y-54046285D02*
X47744247Y-54093904D01*
X47744247Y-54093904D02*
X47601390Y-54093904D01*
X47601390Y-54093904D02*
X47410914Y-54046285D01*
X47410914Y-54046285D02*
X47315676Y-53998666D01*
X47315676Y-53998666D02*
X47220438Y-53903428D01*
X47220438Y-53903428D02*
X47172819Y-53760571D01*
X47172819Y-53760571D02*
X47172819Y-53665333D01*
X47172819Y-53665333D02*
X47220438Y-53522476D01*
X47220438Y-53522476D02*
X47268057Y-53474857D01*
X48172819Y-52522476D02*
X48172819Y-53093904D01*
X48172819Y-52808190D02*
X47172819Y-52808190D01*
X47172819Y-52808190D02*
X47315676Y-52903428D01*
X47315676Y-52903428D02*
X47410914Y-52998666D01*
X47410914Y-52998666D02*
X47458533Y-53093904D01*
X47172819Y-51903428D02*
X47172819Y-51808190D01*
X47172819Y-51808190D02*
X47220438Y-51712952D01*
X47220438Y-51712952D02*
X47268057Y-51665333D01*
X47268057Y-51665333D02*
X47363295Y-51617714D01*
X47363295Y-51617714D02*
X47553771Y-51570095D01*
X47553771Y-51570095D02*
X47791866Y-51570095D01*
X47791866Y-51570095D02*
X47982342Y-51617714D01*
X47982342Y-51617714D02*
X48077580Y-51665333D01*
X48077580Y-51665333D02*
X48125200Y-51712952D01*
X48125200Y-51712952D02*
X48172819Y-51808190D01*
X48172819Y-51808190D02*
X48172819Y-51903428D01*
X48172819Y-51903428D02*
X48125200Y-51998666D01*
X48125200Y-51998666D02*
X48077580Y-52046285D01*
X48077580Y-52046285D02*
X47982342Y-52093904D01*
X47982342Y-52093904D02*
X47791866Y-52141523D01*
X47791866Y-52141523D02*
X47553771Y-52141523D01*
X47553771Y-52141523D02*
X47363295Y-52093904D01*
X47363295Y-52093904D02*
X47268057Y-52046285D01*
X47268057Y-52046285D02*
X47220438Y-51998666D01*
X47220438Y-51998666D02*
X47172819Y-51903428D01*
D13*
X33176429Y-40771617D02*
X32947857Y-40771617D01*
X32947857Y-40771617D02*
X32947857Y-40291617D01*
X33587857Y-40771617D02*
X33313571Y-40771617D01*
X33450714Y-40771617D02*
X33450714Y-40291617D01*
X33450714Y-40291617D02*
X33405000Y-40360188D01*
X33405000Y-40360188D02*
X33359285Y-40405902D01*
X33359285Y-40405902D02*
X33313571Y-40428760D01*
X34022143Y-40291617D02*
X33793571Y-40291617D01*
X33793571Y-40291617D02*
X33770714Y-40520188D01*
X33770714Y-40520188D02*
X33793571Y-40497331D01*
X33793571Y-40497331D02*
X33839286Y-40474474D01*
X33839286Y-40474474D02*
X33953571Y-40474474D01*
X33953571Y-40474474D02*
X33999286Y-40497331D01*
X33999286Y-40497331D02*
X34022143Y-40520188D01*
X34022143Y-40520188D02*
X34045000Y-40565902D01*
X34045000Y-40565902D02*
X34045000Y-40680188D01*
X34045000Y-40680188D02*
X34022143Y-40725902D01*
X34022143Y-40725902D02*
X33999286Y-40748760D01*
X33999286Y-40748760D02*
X33953571Y-40771617D01*
X33953571Y-40771617D02*
X33839286Y-40771617D01*
X33839286Y-40771617D02*
X33793571Y-40748760D01*
X33793571Y-40748760D02*
X33770714Y-40725902D01*
D12*
X38153142Y-38933580D02*
X38105523Y-38981200D01*
X38105523Y-38981200D02*
X37962666Y-39028819D01*
X37962666Y-39028819D02*
X37867428Y-39028819D01*
X37867428Y-39028819D02*
X37724571Y-38981200D01*
X37724571Y-38981200D02*
X37629333Y-38885961D01*
X37629333Y-38885961D02*
X37581714Y-38790723D01*
X37581714Y-38790723D02*
X37534095Y-38600247D01*
X37534095Y-38600247D02*
X37534095Y-38457390D01*
X37534095Y-38457390D02*
X37581714Y-38266914D01*
X37581714Y-38266914D02*
X37629333Y-38171676D01*
X37629333Y-38171676D02*
X37724571Y-38076438D01*
X37724571Y-38076438D02*
X37867428Y-38028819D01*
X37867428Y-38028819D02*
X37962666Y-38028819D01*
X37962666Y-38028819D02*
X38105523Y-38076438D01*
X38105523Y-38076438D02*
X38153142Y-38124057D01*
X39010285Y-38362152D02*
X39010285Y-39028819D01*
X38772190Y-37981200D02*
X38534095Y-38695485D01*
X38534095Y-38695485D02*
X39153142Y-38695485D01*
X39438857Y-38028819D02*
X40057904Y-38028819D01*
X40057904Y-38028819D02*
X39724571Y-38409771D01*
X39724571Y-38409771D02*
X39867428Y-38409771D01*
X39867428Y-38409771D02*
X39962666Y-38457390D01*
X39962666Y-38457390D02*
X40010285Y-38505009D01*
X40010285Y-38505009D02*
X40057904Y-38600247D01*
X40057904Y-38600247D02*
X40057904Y-38838342D01*
X40057904Y-38838342D02*
X40010285Y-38933580D01*
X40010285Y-38933580D02*
X39962666Y-38981200D01*
X39962666Y-38981200D02*
X39867428Y-39028819D01*
X39867428Y-39028819D02*
X39581714Y-39028819D01*
X39581714Y-39028819D02*
X39486476Y-38981200D01*
X39486476Y-38981200D02*
X39438857Y-38933580D01*
D14*
X38250000Y-49540000D02*
X38250000Y-48540000D01*
X39850000Y-49540000D02*
X39850000Y-48540000D01*
D13*
X27810000Y-28120000D02*
X29190000Y-28120000D01*
X27810000Y-29500000D02*
X27810000Y-28120000D01*
X27810000Y-30770000D02*
X27810000Y-33420000D01*
X27810000Y-30770000D02*
X30570000Y-30770000D01*
X27810000Y-33420000D02*
X30570000Y-33420000D01*
X30570000Y-30770000D02*
X30570000Y-33420000D01*
D14*
X5191000Y-46915000D02*
X5191000Y-53415000D01*
X5191000Y-46915000D02*
X12906000Y-46915000D01*
X5191000Y-53415000D02*
X12906000Y-53415000D01*
X17986000Y-46915000D02*
X15796000Y-46915000D01*
X17986000Y-53415000D02*
X15796000Y-53415000D01*
X20191000Y-49070000D02*
X20191000Y-51260000D01*
D13*
X18848000Y-76399000D02*
X59188000Y-76399000D01*
X18848000Y-143839000D02*
X18848000Y-76399000D01*
X21178000Y-84019000D02*
X57178000Y-84019000D01*
X21178000Y-136019000D02*
X21178000Y-84019000D01*
X52178000Y-76019000D02*
X47178000Y-76019000D01*
X57178000Y-84019000D02*
X57178000Y-136019000D01*
X57178000Y-136019000D02*
X21178000Y-136019000D01*
X59188000Y-76399000D02*
X59188000Y-143839000D01*
X59188000Y-143839000D02*
X18848000Y-143839000D01*
X45395000Y-27954500D02*
X45395000Y-30639500D01*
X47315000Y-27954500D02*
X45395000Y-27954500D01*
X47315000Y-30639500D02*
X47315000Y-27954500D01*
D14*
X61407000Y-52465000D02*
X61407000Y-60565000D01*
X61407000Y-60565000D02*
X62027000Y-60565000D01*
X62027000Y-43815000D02*
X105837000Y-43815000D01*
X62027000Y-52465000D02*
X61407000Y-52465000D01*
X62027000Y-52465000D02*
X62027000Y-43815000D01*
X62027000Y-69215000D02*
X62027000Y-60565000D01*
X105837000Y-43815000D02*
X105837000Y-49915000D01*
X105837000Y-49915000D02*
X111337000Y-49915000D01*
X105837000Y-63115000D02*
X105837000Y-69215000D01*
X105837000Y-69215000D02*
X62027000Y-69215000D01*
X111337000Y-49915000D02*
X111337000Y-63115000D01*
X111337000Y-63115000D02*
X105837000Y-63115000D01*
D15*
X104367000Y-43265000D02*
G75*
G02*
X104167000Y-43265000I-100000J0D01*
G01*
X104167000Y-43265000D02*
G75*
G02*
X104367000Y-43265000I100000J0D01*
G01*
D13*
X36108164Y-49932000D02*
X36323836Y-49932000D01*
X36108164Y-50652000D02*
X36323836Y-50652000D01*
X43568000Y-44500000D02*
X44318000Y-44500000D01*
X43568000Y-45250000D02*
X43568000Y-44500000D01*
X43568000Y-50720000D02*
X43568000Y-49970000D01*
X44318000Y-50720000D02*
X43568000Y-50720000D01*
X49038000Y-44500000D02*
X49788000Y-44500000D01*
X49788000Y-44500000D02*
X49788000Y-45250000D01*
X49788000Y-49970000D02*
X49788000Y-50720000D01*
X49788000Y-50720000D02*
X49038000Y-50720000D01*
X43038000Y-45660000D02*
X42708000Y-45900000D01*
X42708000Y-45420000D01*
X43038000Y-45660000D01*
G36*
X43038000Y-45660000D02*
G01*
X42708000Y-45900000D01*
X42708000Y-45420000D01*
X43038000Y-45660000D01*
G37*
X32520000Y-27112500D02*
X32520000Y-29797500D01*
X34440000Y-27112500D02*
X32520000Y-27112500D01*
X34440000Y-29797500D02*
X34440000Y-27112500D01*
X59618000Y-76382000D02*
X99958000Y-76382000D01*
X59618000Y-143822000D02*
X59618000Y-76382000D01*
X61948000Y-84002000D02*
X97948000Y-84002000D01*
X61948000Y-136002000D02*
X61948000Y-84002000D01*
X92948000Y-76002000D02*
X87948000Y-76002000D01*
X97948000Y-84002000D02*
X97948000Y-136002000D01*
X97948000Y-136002000D02*
X61948000Y-136002000D01*
X99958000Y-76382000D02*
X99958000Y-143822000D01*
X99958000Y-143822000D02*
X59618000Y-143822000D01*
D14*
X26071500Y-44492000D02*
G75*
G02*
X25944500Y-44492000I-63500J0D01*
G01*
X25944500Y-44492000D02*
G75*
G02*
X26071500Y-44492000I63500J0D01*
G01*
D13*
X32590000Y-32180000D02*
X32590000Y-34865000D01*
X32590000Y-34865000D02*
X34510000Y-34865000D01*
X34510000Y-34865000D02*
X34510000Y-32180000D01*
X39216500Y-29362000D02*
X41036500Y-29362000D01*
X39216500Y-29412000D02*
X39216500Y-29362000D01*
X39216500Y-32482000D02*
X39216500Y-32432000D01*
X41036500Y-29362000D02*
X41036500Y-29412000D01*
X41036500Y-30532000D02*
X41036500Y-31312000D01*
X41036500Y-32432000D02*
X41036500Y-32482000D01*
X41036500Y-32482000D02*
X39216500Y-32482000D01*
X38676500Y-29412000D02*
X38436500Y-29082000D01*
X38916500Y-29082000D01*
X38676500Y-29412000D01*
G36*
X38676500Y-29412000D02*
G01*
X38436500Y-29082000D01*
X38916500Y-29082000D01*
X38676500Y-29412000D01*
G37*
X45395000Y-32292500D02*
X45395000Y-34977500D01*
X45395000Y-34977500D02*
X47315000Y-34977500D01*
X47315000Y-34977500D02*
X47315000Y-32292500D01*
M02*
