G04 #@! TF.GenerationSoftware,KiCad,Pcbnew,9.99.0-4546-gb76221958b*
G04 #@! TF.CreationDate,2026-01-23T23:05:35+05:00*
G04 #@! TF.ProjectId,Reciver board,52656369-7665-4722-9062-6f6172642e6b,rev?*
G04 #@! TF.SameCoordinates,Original*
G04 #@! TF.FileFunction,Copper,L2,Bot*
G04 #@! TF.FilePolarity,Positive*
%FSLAX46Y46*%
G04 Gerber Fmt 4.6, Leading zero omitted, Abs format (unit mm)*
G04 Created by KiCad (PCBNEW 9.99.0-4546-gb76221958b) date 2026-01-23 23:05:35*
%MOMM*%
%LPD*%
G01*
G04 APERTURE LIST*
G04 #@! TA.AperFunction,ComponentPad*
%ADD10R,1.700000X1.700000*%
G04 #@! TD*
G04 #@! TA.AperFunction,ComponentPad*
%ADD11C,1.700000*%
G04 #@! TD*
G04 #@! TA.AperFunction,ComponentPad*
%ADD12C,2.250000*%
G04 #@! TD*
G04 #@! TA.AperFunction,ComponentPad*
%ADD13C,4.000000*%
G04 #@! TD*
G04 #@! TA.AperFunction,ComponentPad*
%ADD14R,1.500000X1.500000*%
G04 #@! TD*
G04 #@! TA.AperFunction,ComponentPad*
%ADD15C,1.500000*%
G04 #@! TD*
G04 #@! TA.AperFunction,ComponentPad*
%ADD16R,1.524000X1.524000*%
G04 #@! TD*
G04 #@! TA.AperFunction,ComponentPad*
%ADD17C,1.524000*%
G04 #@! TD*
G04 #@! TA.AperFunction,ViaPad*
%ADD18C,0.600000*%
G04 #@! TD*
G04 #@! TA.AperFunction,Conductor*
%ADD19C,0.200000*%
G04 #@! TD*
G04 #@! TA.AperFunction,Conductor*
%ADD20C,0.180000*%
G04 #@! TD*
G04 APERTURE END LIST*
D10*
X29190000Y-29500000D03*
D11*
X29190000Y-32040000D03*
D12*
X16891000Y-50165000D03*
X19431000Y-47625000D03*
X19431000Y-52705000D03*
X14351000Y-47625000D03*
X14351000Y-52705000D03*
D13*
X56068000Y-79519000D03*
X21968000Y-79519000D03*
X56068000Y-140719000D03*
X21968000Y-140719000D03*
D14*
X49178000Y-78019000D03*
D15*
X46638000Y-78019000D03*
X44098000Y-78019000D03*
X41558000Y-78019000D03*
X39018000Y-78019000D03*
X36478000Y-78019000D03*
X33938000Y-78019000D03*
X31398000Y-78019000D03*
X28858000Y-78019000D03*
X44098000Y-141539000D03*
X41558000Y-141539000D03*
X39018000Y-141539000D03*
X36478000Y-141539000D03*
X33938000Y-141539000D03*
D16*
X104267000Y-45085000D03*
D17*
X101727000Y-45085000D03*
X99187000Y-45085000D03*
X96647000Y-45085000D03*
X94107000Y-45085000D03*
X91567000Y-45085000D03*
X89027000Y-45085000D03*
X86487000Y-45085000D03*
X83947000Y-45085000D03*
X81407000Y-45085000D03*
X78867000Y-45085000D03*
X76327000Y-45085000D03*
X73787000Y-45085000D03*
X71247000Y-45085000D03*
X68707000Y-45085000D03*
X66167000Y-45085000D03*
X63627000Y-45085000D03*
X104267000Y-67945000D03*
X101727000Y-67945000D03*
X99187000Y-67945000D03*
X96647000Y-67945000D03*
X94107000Y-67945000D03*
X91567000Y-67945000D03*
X89027000Y-67945000D03*
X86487000Y-67945000D03*
X83947000Y-67945000D03*
X81407000Y-67945000D03*
X78867000Y-67945000D03*
X76327000Y-67945000D03*
X73787000Y-67945000D03*
X71247000Y-67945000D03*
X68707000Y-67945000D03*
X66167000Y-67945000D03*
X63627000Y-67945000D03*
D13*
X96838000Y-79502000D03*
X62738000Y-79502000D03*
X96838000Y-140702000D03*
X62738000Y-140702000D03*
D14*
X89948000Y-78002000D03*
D15*
X87408000Y-78002000D03*
X84868000Y-78002000D03*
X82328000Y-78002000D03*
X79788000Y-78002000D03*
X77248000Y-78002000D03*
X74708000Y-78002000D03*
X72168000Y-78002000D03*
X69628000Y-78002000D03*
X84868000Y-141522000D03*
X82328000Y-141522000D03*
X79788000Y-141522000D03*
X77248000Y-141522000D03*
X74708000Y-141522000D03*
D18*
X46736000Y-39116000D03*
X53213000Y-39624000D03*
X40386000Y-43561000D03*
X49022000Y-54356000D03*
X41808000Y-50825000D03*
X44069000Y-74676000D03*
X80772000Y-71120000D03*
X73279000Y-71247000D03*
X78867000Y-73914000D03*
X41529000Y-74930000D03*
X81915000Y-75057000D03*
X68072000Y-71374000D03*
X38989000Y-74930000D03*
X36576000Y-74930000D03*
X89027000Y-71374000D03*
X39116000Y-69469000D03*
X77343000Y-75438000D03*
X33909000Y-75184000D03*
X34798000Y-68961000D03*
X74676000Y-76073000D03*
X87757000Y-72517000D03*
X68580000Y-70485000D03*
X88011000Y-69977000D03*
X70485000Y-71628000D03*
X85090000Y-70485000D03*
X69628000Y-73406000D03*
X56642000Y-70485000D03*
X53848000Y-55372000D03*
X59690000Y-40132000D03*
X49149000Y-60071000D03*
X43307000Y-54356000D03*
X46736000Y-52959000D03*
X81407000Y-41529000D03*
X46736000Y-53848000D03*
X78740000Y-41529000D03*
X73787000Y-42164000D03*
X46990000Y-55118000D03*
X68707000Y-39116000D03*
X84836000Y-75057000D03*
X67056000Y-69850000D03*
X57150000Y-68961000D03*
X64262000Y-73279000D03*
X71247000Y-74041000D03*
X75692000Y-73914000D03*
X64175000Y-71775000D03*
X28194000Y-43942000D03*
X28194000Y-41275000D03*
X46228000Y-40005000D03*
X44704000Y-43180000D03*
X42672000Y-44577000D03*
X42657000Y-47610000D03*
X50882000Y-46310000D03*
X26035000Y-37719000D03*
D19*
X42799000Y-39116000D02*
X46736000Y-39116000D01*
D20*
X41656000Y-47625000D02*
X40386000Y-46355000D01*
D19*
X40386000Y-41529000D02*
X41783000Y-40132000D01*
X41808000Y-50825000D02*
X41656000Y-50673000D01*
D20*
X53213000Y-53594000D02*
X53213000Y-39624000D01*
X52451000Y-54356000D02*
X53213000Y-53594000D01*
X41656000Y-50673000D02*
X41656000Y-47625000D01*
D19*
X40386000Y-46355000D02*
X40386000Y-43561000D01*
X41783000Y-40132000D02*
X42799000Y-39116000D01*
D20*
X49022000Y-54356000D02*
X52451000Y-54356000D01*
D19*
X80772000Y-71120000D02*
X83058000Y-71120000D01*
X44069000Y-74676000D02*
X79756000Y-74676000D01*
X83058000Y-71120000D02*
X83947000Y-70231000D01*
X83947000Y-70231000D02*
X83947000Y-67945000D01*
X80772000Y-73660000D02*
X80772000Y-71120000D01*
X79756000Y-74676000D02*
X80772000Y-73660000D01*
X78232000Y-73914000D02*
X75565000Y-71247000D01*
X41529000Y-74930000D02*
X41529000Y-74168000D01*
X41529000Y-74168000D02*
X41656000Y-74041000D01*
X70358000Y-74041000D02*
X71501000Y-72898000D01*
X71755000Y-71247000D02*
X73279000Y-71247000D01*
X73279000Y-71247000D02*
X75565000Y-71247000D01*
X71501000Y-72898000D02*
X71501000Y-71501000D01*
X71501000Y-71501000D02*
X71755000Y-71247000D01*
X41656000Y-74041000D02*
X70358000Y-74041000D01*
X75565000Y-71247000D02*
X76327000Y-70485000D01*
X76327000Y-70485000D02*
X76327000Y-67945000D01*
X78867000Y-73914000D02*
X78232000Y-73914000D01*
X65532000Y-71374000D02*
X68072000Y-71374000D01*
X71247000Y-69850000D02*
X71247000Y-67945000D01*
X65151000Y-70993000D02*
X65532000Y-71374000D01*
X61976000Y-70993000D02*
X65151000Y-70993000D01*
X69723000Y-71374000D02*
X71247000Y-69850000D01*
X60960000Y-72009000D02*
X61976000Y-70993000D01*
X38989000Y-72009000D02*
X60960000Y-72009000D01*
X68072000Y-71374000D02*
X69723000Y-71374000D01*
X38989000Y-74930000D02*
X38989000Y-72009000D01*
X80264000Y-75438000D02*
X81153000Y-74549000D01*
X77343000Y-75438000D02*
X80264000Y-75438000D01*
X36576000Y-72517000D02*
X39116000Y-69977000D01*
X37338000Y-75057000D02*
X37812000Y-75531000D01*
X37211000Y-74930000D02*
X37338000Y-75057000D01*
X84328000Y-71374000D02*
X84836000Y-71374000D01*
X39116000Y-69977000D02*
X39116000Y-69469000D01*
X36576000Y-74930000D02*
X36576000Y-72517000D01*
X84836000Y-71374000D02*
X89027000Y-71374000D01*
X89027000Y-71374000D02*
X89027000Y-67945000D01*
X81153000Y-74549000D02*
X84328000Y-71374000D01*
X36576000Y-74930000D02*
X37211000Y-74930000D01*
X37812000Y-75531000D02*
X46135000Y-75531000D01*
X46228000Y-75438000D02*
X77343000Y-75438000D01*
X46135000Y-75531000D02*
X46228000Y-75438000D01*
X74676000Y-77970000D02*
X74708000Y-78002000D01*
X73914000Y-75946000D02*
X74041000Y-76073000D01*
X34798000Y-75057000D02*
X34925000Y-75184000D01*
X74041000Y-76073000D02*
X74676000Y-76073000D01*
X87757000Y-72517000D02*
X87757000Y-72771000D01*
X35687000Y-75946000D02*
X73914000Y-75946000D01*
X74676000Y-76073000D02*
X74676000Y-77970000D01*
X87757000Y-72771000D02*
X85090000Y-72771000D01*
X34925000Y-75184000D02*
X35687000Y-75946000D01*
X85090000Y-72771000D02*
X81788000Y-76073000D01*
X33909000Y-75184000D02*
X34925000Y-75184000D01*
X81788000Y-76073000D02*
X74676000Y-76073000D01*
X34798000Y-68961000D02*
X34798000Y-75057000D01*
X86360000Y-70485000D02*
X86868000Y-69977000D01*
X69628000Y-72485000D02*
X69628000Y-73406000D01*
X85090000Y-70485000D02*
X86360000Y-70485000D01*
X86868000Y-69977000D02*
X88011000Y-69977000D01*
X56642000Y-70485000D02*
X68580000Y-70485000D01*
X70485000Y-71628000D02*
X69628000Y-72485000D01*
D20*
X53848000Y-55372000D02*
X58547000Y-55372000D01*
D19*
X59690000Y-40132000D02*
X58547000Y-41275000D01*
X58547000Y-41275000D02*
X58547000Y-55372000D01*
D20*
X49149000Y-60071000D02*
X48641000Y-60071000D01*
X45339000Y-56769000D02*
X43307000Y-54737000D01*
X48641000Y-60071000D02*
X45339000Y-56769000D01*
X43307000Y-54737000D02*
X43307000Y-54356000D01*
X50653000Y-56876000D02*
X58674000Y-56876000D01*
D19*
X81407000Y-41021000D02*
X81407000Y-41529000D01*
X60553800Y-40928000D02*
X81314000Y-40928000D01*
X81314000Y-40928000D02*
X81407000Y-41021000D01*
X60031000Y-55519000D02*
X60031000Y-41656000D01*
X58674000Y-56876000D02*
X60031000Y-55519000D01*
X60031000Y-41656000D02*
X60031000Y-41450800D01*
X60031000Y-41450800D02*
X60553800Y-40928000D01*
D20*
X46736000Y-52959000D02*
X50653000Y-56876000D01*
X46736000Y-53848000D02*
X50165000Y-57277000D01*
D19*
X60666900Y-41382000D02*
X78593000Y-41382000D01*
X60432000Y-55713900D02*
X60432000Y-41616900D01*
X60432000Y-41616900D02*
X60666900Y-41382000D01*
X58868900Y-57277000D02*
X60432000Y-55713900D01*
D20*
X50165000Y-57277000D02*
X58868900Y-57277000D01*
D19*
X78593000Y-41382000D02*
X78740000Y-41529000D01*
X73660000Y-41783000D02*
X73787000Y-41910000D01*
D20*
X46990000Y-55118000D02*
X49657000Y-57785000D01*
D19*
X60833000Y-55880000D02*
X60833000Y-41783000D01*
X60833000Y-41783000D02*
X73660000Y-41783000D01*
X73787000Y-41910000D02*
X73787000Y-42164000D01*
D20*
X49657000Y-57785000D02*
X58928000Y-57785000D01*
D19*
X58928000Y-57785000D02*
X60833000Y-55880000D01*
X113411000Y-48641000D02*
X113665000Y-48387000D01*
X113030000Y-66802000D02*
X113411000Y-66421000D01*
X113665000Y-48387000D02*
X108458000Y-48387000D01*
X107823000Y-72898000D02*
X107823000Y-66802000D01*
X113411000Y-66421000D02*
X113411000Y-48641000D01*
X84836000Y-75057000D02*
X105664000Y-75057000D01*
X108458000Y-43815000D02*
X103632000Y-38989000D01*
X108458000Y-48387000D02*
X108458000Y-43815000D01*
X107823000Y-66802000D02*
X113030000Y-66802000D01*
X103632000Y-38989000D02*
X68707000Y-38989000D01*
X105664000Y-75057000D02*
X107823000Y-72898000D01*
X68707000Y-38989000D02*
X68707000Y-39116000D01*
X57150000Y-68961000D02*
X58039000Y-69850000D01*
X58039000Y-69850000D02*
X67056000Y-69850000D01*
X68707000Y-69342000D02*
X68707000Y-67945000D01*
X68199000Y-69850000D02*
X68707000Y-69342000D01*
X67056000Y-69850000D02*
X68199000Y-69850000D01*
X73533000Y-74041000D02*
X71247000Y-74041000D01*
X73660000Y-73914000D02*
X73533000Y-74041000D01*
X64282000Y-71882000D02*
X64282000Y-73259000D01*
X75692000Y-73914000D02*
X73660000Y-73914000D01*
X64175000Y-71775000D02*
X64282000Y-71882000D01*
X64282000Y-73259000D02*
X64262000Y-73279000D01*
D20*
X28194000Y-41275000D02*
X28194000Y-43434000D01*
X28194000Y-43434000D02*
X28194000Y-43942000D01*
D19*
X46609000Y-40386000D02*
X46228000Y-40005000D01*
X45339000Y-43180000D02*
X46609000Y-41910000D01*
X46609000Y-41910000D02*
X46609000Y-40386000D01*
X44704000Y-43180000D02*
X45339000Y-43180000D01*
D20*
X42672000Y-44577000D02*
X42672000Y-47595000D01*
D19*
X42672000Y-47595000D02*
X42657000Y-47610000D01*
X48514000Y-37719000D02*
X26035000Y-37719000D01*
X50882000Y-46310000D02*
X50927000Y-46265000D01*
X50927000Y-40259000D02*
X50927000Y-40132000D01*
D20*
X50927000Y-40132000D02*
X48514000Y-37719000D01*
D19*
X50927000Y-46265000D02*
X50927000Y-40259000D01*
M02*
