G04 #@! TF.GenerationSoftware,KiCad,Pcbnew,9.99.0-4546-gb76221958b*
G04 #@! TF.CreationDate,2026-01-23T23:05:35+05:00*
G04 #@! TF.ProjectId,Reciver board,52656369-7665-4722-9062-6f6172642e6b,rev?*
G04 #@! TF.SameCoordinates,Original*
G04 #@! TF.FileFunction,Soldermask,Top*
G04 #@! TF.FilePolarity,Negative*
%FSLAX46Y46*%
G04 Gerber Fmt 4.6, Leading zero omitted, Abs format (unit mm)*
G04 Created by KiCad (PCBNEW 9.99.0-4546-gb76221958b) date 2026-01-23 23:05:35*
%MOMM*%
%LPD*%
G01*
G04 APERTURE LIST*
G04 Aperture macros list*
%AMRoundRect*
0 Rectangle with rounded corners*
0 $1 Rounding radius*
0 $2 $3 $4 $5 $6 $7 $8 $9 X,Y pos of 4 corners*
0 Add a 4 corners polygon primitive as box body*
4,1,4,$2,$3,$4,$5,$6,$7,$8,$9,$2,$3,0*
0 Add four circle primitives for the rounded corners*
1,1,$1+$1,$2,$3*
1,1,$1+$1,$4,$5*
1,1,$1+$1,$6,$7*
1,1,$1+$1,$8,$9*
0 Add four rect primitives between the rounded corners*
20,1,$1+$1,$2,$3,$4,$5,0*
20,1,$1+$1,$4,$5,$6,$7,0*
20,1,$1+$1,$6,$7,$8,$9,0*
20,1,$1+$1,$8,$9,$2,$3,0*%
G04 Aperture macros list end*
%ADD10RoundRect,0.102000X0.900000X-0.500000X0.900000X0.500000X-0.900000X0.500000X-0.900000X-0.500000X0*%
%ADD11RoundRect,0.100000X-0.100000X0.130000X-0.100000X-0.130000X0.100000X-0.130000X0.100000X0.130000X0*%
%ADD12RoundRect,0.100000X0.100000X-0.130000X0.100000X0.130000X-0.100000X0.130000X-0.100000X-0.130000X0*%
%ADD13R,1.700000X1.700000*%
%ADD14C,1.700000*%
%ADD15RoundRect,0.100000X0.130000X0.100000X-0.130000X0.100000X-0.130000X-0.100000X0.130000X-0.100000X0*%
%ADD16C,2.454000*%
%ADD17C,4.000000*%
%ADD18R,1.500000X1.500000*%
%ADD19C,1.500000*%
%ADD20RoundRect,0.243750X-0.456250X0.243750X-0.456250X-0.243750X0.456250X-0.243750X0.456250X0.243750X0*%
%ADD21RoundRect,0.102000X-0.762000X0.762000X-0.762000X-0.762000X0.762000X-0.762000X0.762000X0.762000X0*%
%ADD22C,1.728000*%
%ADD23RoundRect,0.140000X-0.140000X-0.170000X0.140000X-0.170000X0.140000X0.170000X-0.140000X0.170000X0*%
%ADD24RoundRect,0.102000X0.150000X0.150000X-0.150000X0.150000X-0.150000X-0.150000X0.150000X-0.150000X0*%
%ADD25RoundRect,0.100000X-0.130000X-0.100000X0.130000X-0.100000X0.130000X0.100000X-0.130000X0.100000X0*%
%ADD26RoundRect,0.102000X-0.150000X0.150000X-0.150000X-0.150000X0.150000X-0.150000X0.150000X0.150000X0*%
%ADD27RoundRect,0.075000X-0.312500X-0.075000X0.312500X-0.075000X0.312500X0.075000X-0.312500X0.075000X0*%
%ADD28RoundRect,0.075000X-0.075000X-0.312500X0.075000X-0.312500X0.075000X0.312500X-0.075000X0.312500X0*%
%ADD29R,4.800000X4.800000*%
%ADD30O,1.254000X0.604000*%
%ADD31RoundRect,0.102000X-0.150000X-0.150000X0.150000X-0.150000X0.150000X0.150000X-0.150000X0.150000X0*%
%ADD32RoundRect,0.243750X0.456250X-0.243750X0.456250X0.243750X-0.456250X0.243750X-0.456250X-0.243750X0*%
%ADD33RoundRect,0.150000X-0.512500X-0.150000X0.512500X-0.150000X0.512500X0.150000X-0.512500X0.150000X0*%
G04 APERTURE END LIST*
D10*
X39050000Y-50290000D03*
X39050000Y-47790000D03*
D11*
X43180000Y-31557000D03*
X43180000Y-32197000D03*
D12*
X34798000Y-42829000D03*
X34798000Y-42189000D03*
D13*
X29190000Y-29500000D03*
D14*
X29190000Y-32040000D03*
D12*
X43434000Y-40924000D03*
X43434000Y-40284000D03*
D15*
X41910000Y-45593000D03*
X41270000Y-45593000D03*
D11*
X36195000Y-30287000D03*
X36195000Y-30927000D03*
D16*
X16891000Y-50165000D03*
X19431000Y-47625000D03*
X19431000Y-52705000D03*
X14351000Y-47625000D03*
X14351000Y-52705000D03*
D17*
X56068000Y-79519000D03*
X21968000Y-79519000D03*
X56068000Y-140719000D03*
X21968000Y-140719000D03*
D18*
X49178000Y-78019000D03*
D19*
X46638000Y-78019000D03*
X44098000Y-78019000D03*
X41558000Y-78019000D03*
X39018000Y-78019000D03*
X36478000Y-78019000D03*
X33938000Y-78019000D03*
X31398000Y-78019000D03*
X28858000Y-78019000D03*
X44098000Y-141539000D03*
X41558000Y-141539000D03*
X39018000Y-141539000D03*
X36478000Y-141539000D03*
X33938000Y-141539000D03*
D11*
X47364000Y-42758000D03*
X47364000Y-43398000D03*
D15*
X42448000Y-51562000D03*
X41808000Y-51562000D03*
X21747000Y-43434000D03*
X21107000Y-43434000D03*
D20*
X46355000Y-28702000D03*
X46355000Y-30577000D03*
D21*
X104267000Y-45085000D03*
D22*
X101727000Y-45085000D03*
X99187000Y-45085000D03*
X96647000Y-45085000D03*
X94107000Y-45085000D03*
X91567000Y-45085000D03*
X89027000Y-45085000D03*
X86487000Y-45085000D03*
X83947000Y-45085000D03*
X81407000Y-45085000D03*
X78867000Y-45085000D03*
X76327000Y-45085000D03*
X73787000Y-45085000D03*
X71247000Y-45085000D03*
X68707000Y-45085000D03*
X66167000Y-45085000D03*
X63627000Y-45085000D03*
X104267000Y-67945000D03*
X101727000Y-67945000D03*
X99187000Y-67945000D03*
X96647000Y-67945000D03*
X94107000Y-67945000D03*
X91567000Y-67945000D03*
X89027000Y-67945000D03*
X86487000Y-67945000D03*
X83947000Y-67945000D03*
X81407000Y-67945000D03*
X78867000Y-67945000D03*
X76327000Y-67945000D03*
X73787000Y-67945000D03*
X71247000Y-67945000D03*
X68707000Y-67945000D03*
X66167000Y-67945000D03*
X63627000Y-67945000D03*
D23*
X35736000Y-50292000D03*
X36696000Y-50292000D03*
D24*
X32893000Y-39751000D03*
X32293000Y-39751000D03*
D25*
X31339000Y-42926000D03*
X31979000Y-42926000D03*
X16734000Y-42545000D03*
X17374000Y-42545000D03*
D26*
X44323000Y-40421000D03*
X44323000Y-41021000D03*
D25*
X23973000Y-41275000D03*
X24613000Y-41275000D03*
D27*
X43690500Y-45660000D03*
X43690500Y-46310000D03*
X43690500Y-46960000D03*
X43690500Y-47610000D03*
X43690500Y-48260000D03*
X43690500Y-48910000D03*
X43690500Y-49560000D03*
D28*
X44728000Y-50597500D03*
X45378000Y-50597500D03*
X46028000Y-50597500D03*
X46678000Y-50597500D03*
X47328000Y-50597500D03*
X47978000Y-50597500D03*
X48628000Y-50597500D03*
D27*
X49665500Y-49560000D03*
X49665500Y-48910000D03*
X49665500Y-48260000D03*
X49665500Y-47610000D03*
X49665500Y-46960000D03*
X49665500Y-46310000D03*
X49665500Y-45660000D03*
D28*
X48628000Y-44622500D03*
X47978000Y-44622500D03*
X47328000Y-44622500D03*
X46678000Y-44622500D03*
X46028000Y-44622500D03*
X45378000Y-44622500D03*
X44728000Y-44622500D03*
D29*
X46678000Y-47610000D03*
D25*
X41329000Y-46543000D03*
X41969000Y-46543000D03*
D11*
X43180000Y-29743000D03*
X43180000Y-30383000D03*
D20*
X33480000Y-27860000D03*
X33480000Y-29735000D03*
D25*
X32990000Y-42926000D03*
X33630000Y-42926000D03*
D17*
X96838000Y-79502000D03*
X62738000Y-79502000D03*
X96838000Y-140702000D03*
X62738000Y-140702000D03*
D18*
X89948000Y-78002000D03*
D19*
X87408000Y-78002000D03*
X84868000Y-78002000D03*
X82328000Y-78002000D03*
X79788000Y-78002000D03*
X77248000Y-78002000D03*
X74708000Y-78002000D03*
X72168000Y-78002000D03*
X69628000Y-78002000D03*
X84868000Y-141522000D03*
X82328000Y-141522000D03*
X79788000Y-141522000D03*
X77248000Y-141522000D03*
X74708000Y-141522000D03*
D24*
X36541000Y-42799000D03*
X35941000Y-42799000D03*
D30*
X25908000Y-43942000D03*
X25908000Y-43292000D03*
X25908000Y-42642000D03*
X23908000Y-42642000D03*
X23908000Y-43292000D03*
X23908000Y-43942000D03*
D12*
X45339000Y-41656000D03*
X45339000Y-41016000D03*
X37846000Y-42738000D03*
X37846000Y-42098000D03*
D25*
X29591000Y-42926000D03*
X30231000Y-42926000D03*
X22957000Y-40259000D03*
X23597000Y-40259000D03*
X24445000Y-45974000D03*
X25085000Y-45974000D03*
D15*
X41915000Y-44577000D03*
X41275000Y-44577000D03*
D12*
X42418000Y-41123000D03*
X42418000Y-40483000D03*
D15*
X72801000Y-73152000D03*
X72161000Y-73152000D03*
D31*
X18958000Y-42545000D03*
X19558000Y-42545000D03*
D11*
X31275000Y-73045000D03*
X31275000Y-73685000D03*
D32*
X33550000Y-34117500D03*
X33550000Y-32242500D03*
D12*
X20955000Y-42321000D03*
X20955000Y-41681000D03*
X35687000Y-39654000D03*
X35687000Y-39014000D03*
D33*
X38989000Y-29972000D03*
X38989000Y-30922000D03*
X38989000Y-31872000D03*
X41264000Y-31872000D03*
X41264000Y-29972000D03*
D25*
X35720000Y-48006000D03*
X36360000Y-48006000D03*
D12*
X31115000Y-39563000D03*
X31115000Y-38923000D03*
X36703000Y-38801000D03*
X36703000Y-38161000D03*
X40767000Y-38735000D03*
X40767000Y-38095000D03*
D24*
X37303000Y-39624000D03*
X36703000Y-39624000D03*
D12*
X48768000Y-53152000D03*
X48768000Y-52512000D03*
D24*
X34509000Y-39751000D03*
X33909000Y-39751000D03*
D25*
X38476000Y-39624000D03*
X39116000Y-39624000D03*
D32*
X46355000Y-34230000D03*
X46355000Y-32355000D03*
M02*
