G04 #@! TF.GenerationSoftware,KiCad,Pcbnew,9.99.0-4546-gb76221958b*
G04 #@! TF.CreationDate,2026-01-23T23:05:35+05:00*
G04 #@! TF.ProjectId,Reciver board,52656369-7665-4722-9062-6f6172642e6b,rev?*
G04 #@! TF.SameCoordinates,Original*
G04 #@! TF.FileFunction,Profile,NP*
%FSLAX46Y46*%
G04 Gerber Fmt 4.6, Leading zero omitted, Abs format (unit mm)*
G04 Created by KiCad (PCBNEW 9.99.0-4546-gb76221958b) date 2026-01-23 23:05:35*
%MOMM*%
%LPD*%
G01*
G04 APERTURE LIST*
G04 #@! TA.AperFunction,Profile*
%ADD10C,0.200000*%
G04 #@! TD*
G04 APERTURE END LIST*
D10*
X10160000Y-56515000D02*
X10200000Y-56515000D01*
X11000000Y-56515000D02*
X11040000Y-56515000D01*
X11840000Y-56515000D02*
X11880000Y-56515000D01*
X12680000Y-56515000D02*
X12720000Y-56515000D01*
X13520000Y-56515000D02*
X13560000Y-56515000D01*
X14360000Y-56515000D02*
X14400000Y-56515000D01*
X15200000Y-56515000D02*
X15240000Y-56515000D01*
X16040000Y-56515000D02*
X16080000Y-56515000D01*
X16880000Y-56515000D02*
X16920000Y-56515000D01*
X17720000Y-56515000D02*
X17760000Y-56515000D01*
X18560000Y-56515000D02*
X18600000Y-56515000D01*
X19400000Y-56515000D02*
X19440000Y-56515000D01*
X20240000Y-56515000D02*
X20280000Y-56515000D01*
X21080000Y-56515000D02*
X21120000Y-56515000D01*
X21920000Y-56515000D02*
X21960000Y-56515000D01*
X22225000Y-56515000D02*
X22255729Y-56540607D01*
X22870306Y-57052755D02*
X22901035Y-57078362D01*
X23515612Y-57590510D02*
X23546341Y-57616117D01*
X24160918Y-58128265D02*
X24191646Y-58153872D01*
X24806223Y-58666020D02*
X24836952Y-58691627D01*
X25451529Y-59203774D02*
X25482258Y-59229382D01*
X26035000Y-59690000D02*
X26035000Y-59730000D01*
X26035000Y-60530000D02*
X26035000Y-60570000D01*
X26035000Y-61370000D02*
X26035000Y-61410000D01*
X26035000Y-62210000D02*
X26035000Y-62250000D01*
X26035000Y-63050000D02*
X26035000Y-63090000D01*
X26035000Y-63890000D02*
X26035000Y-63930000D01*
X26035000Y-64730000D02*
X26035000Y-64770000D01*
X26035000Y-65570000D02*
X26035000Y-65610000D01*
X26035000Y-66410000D02*
X26035000Y-66450000D01*
X26035000Y-67250000D02*
X26035000Y-67290000D01*
X26035000Y-68090000D02*
X26035000Y-68130000D01*
X26035000Y-68930000D02*
X26035000Y-68970000D01*
X26035000Y-69770000D02*
X26035000Y-69810000D01*
X26035000Y-70610000D02*
X26035000Y-70650000D01*
X26035000Y-71450000D02*
X26035000Y-71490000D01*
X26035000Y-72290000D02*
X26035000Y-72330000D01*
X26035000Y-73130000D02*
X26035000Y-73170000D01*
X26035000Y-73970000D02*
X26035000Y-74010000D01*
X26035000Y-74676000D02*
X25995000Y-74676000D01*
X25195000Y-74676000D02*
X25155000Y-74676000D01*
X24355000Y-74676000D02*
X24315000Y-74676000D01*
X23515000Y-74676000D02*
X23475000Y-74676000D01*
X22675000Y-74676000D02*
X22635000Y-74676000D01*
X21835000Y-74676000D02*
X21795000Y-74676000D01*
X20995000Y-74676000D02*
X20955000Y-74676000D01*
X20155000Y-74676000D02*
X20115000Y-74676000D01*
X19315000Y-74676000D02*
X19275000Y-74676000D01*
X18475000Y-74676000D02*
X18435000Y-74676000D01*
X17635000Y-74676000D02*
X17595000Y-74676000D01*
X17526000Y-74676000D02*
X17493651Y-74699527D01*
X16846662Y-75170064D02*
X16814312Y-75193591D01*
X16167323Y-75664128D02*
X16134974Y-75687655D01*
X15487985Y-76158193D02*
X15455636Y-76181720D01*
X14808647Y-76652257D02*
X14776297Y-76675784D01*
X14732000Y-76708000D02*
X14732000Y-76748000D01*
X14732000Y-77548000D02*
X14732000Y-77588000D01*
X14732000Y-78388000D02*
X14732000Y-78428000D01*
X14732000Y-79228000D02*
X14732000Y-79268000D01*
X14732000Y-80068000D02*
X14732000Y-80108000D01*
X14732000Y-80908000D02*
X14732000Y-80948000D01*
X14732000Y-81748000D02*
X14732000Y-81788000D01*
X14732000Y-82588000D02*
X14732000Y-82628000D01*
X14732000Y-83428000D02*
X14732000Y-83468000D01*
X14732000Y-84268000D02*
X14732000Y-84308000D01*
X14732000Y-85108000D02*
X14732000Y-85148000D01*
X14732000Y-85948000D02*
X14732000Y-85988000D01*
X14732000Y-86788000D02*
X14732000Y-86828000D01*
X14732000Y-87628000D02*
X14732000Y-87668000D01*
X14732000Y-88468000D02*
X14732000Y-88508000D01*
X14732000Y-89308000D02*
X14732000Y-89348000D01*
X14732000Y-90148000D02*
X14732000Y-90188000D01*
X14732000Y-90988000D02*
X14732000Y-91028000D01*
X14732000Y-91828000D02*
X14732000Y-91868000D01*
X14732000Y-92668000D02*
X14732000Y-92708000D01*
X14732000Y-93508000D02*
X14732000Y-93548000D01*
X14732000Y-94348000D02*
X14732000Y-94388000D01*
X14732000Y-95188000D02*
X14732000Y-95228000D01*
X14732000Y-96028000D02*
X14732000Y-96068000D01*
X14732000Y-96868000D02*
X14732000Y-96908000D01*
X14732000Y-97708000D02*
X14732000Y-97748000D01*
X14732000Y-98548000D02*
X14732000Y-98588000D01*
X14732000Y-99388000D02*
X14732000Y-99428000D01*
X14732000Y-100228000D02*
X14732000Y-100268000D01*
X14732000Y-101068000D02*
X14732000Y-101108000D01*
X14732000Y-101908000D02*
X14732000Y-101948000D01*
X14732000Y-102748000D02*
X14732000Y-102788000D01*
X14732000Y-103588000D02*
X14732000Y-103628000D01*
X14732000Y-104428000D02*
X14732000Y-104468000D01*
X14732000Y-105268000D02*
X14732000Y-105308000D01*
X14732000Y-106108000D02*
X14732000Y-106148000D01*
X14732000Y-106948000D02*
X14732000Y-106988000D01*
X14732000Y-107788000D02*
X14732000Y-107828000D01*
X14732000Y-108628000D02*
X14732000Y-108668000D01*
X14732000Y-109468000D02*
X14732000Y-109508000D01*
X14732000Y-110308000D02*
X14732000Y-110348000D01*
X14732000Y-111148000D02*
X14732000Y-111188000D01*
X14732000Y-111988000D02*
X14732000Y-112028000D01*
X14732000Y-112828000D02*
X14732000Y-112868000D01*
X14732000Y-113668000D02*
X14732000Y-113708000D01*
X14732000Y-114508000D02*
X14732000Y-114548000D01*
X14732000Y-115348000D02*
X14732000Y-115388000D01*
X14732000Y-116188000D02*
X14732000Y-116228000D01*
X14732000Y-117028000D02*
X14732000Y-117068000D01*
X14732000Y-117868000D02*
X14732000Y-117908000D01*
X14732000Y-118708000D02*
X14732000Y-118748000D01*
X14732000Y-119548000D02*
X14732000Y-119588000D01*
X14732000Y-120388000D02*
X14732000Y-120428000D01*
X14732000Y-121228000D02*
X14732000Y-121268000D01*
X14732000Y-122068000D02*
X14732000Y-122108000D01*
X14732000Y-122908000D02*
X14732000Y-122948000D01*
X14732000Y-123748000D02*
X14732000Y-123788000D01*
X14732000Y-124588000D02*
X14732000Y-124628000D01*
X14732000Y-125428000D02*
X14732000Y-125468000D01*
X14732000Y-126268000D02*
X14732000Y-126308000D01*
X14732000Y-127108000D02*
X14732000Y-127148000D01*
X14732000Y-127948000D02*
X14732000Y-127988000D01*
X14732000Y-128788000D02*
X14732000Y-128828000D01*
X14732000Y-129628000D02*
X14732000Y-129668000D01*
X14732000Y-130468000D02*
X14732000Y-130508000D01*
X14732000Y-131308000D02*
X14732000Y-131348000D01*
X14732000Y-132148000D02*
X14732000Y-132188000D01*
X14732000Y-132988000D02*
X14732000Y-133028000D01*
X14732000Y-133828000D02*
X14732000Y-133868000D01*
X14732000Y-134668000D02*
X14732000Y-134708000D01*
X14732000Y-135508000D02*
X14732000Y-135548000D01*
X14732000Y-136348000D02*
X14732000Y-136388000D01*
X14732000Y-137188000D02*
X14732000Y-137228000D01*
X14732000Y-138028000D02*
X14732000Y-138068000D01*
X14732000Y-138868000D02*
X14732000Y-138908000D01*
X14732000Y-139708000D02*
X14732000Y-139748000D01*
X14732000Y-140548000D02*
X14732000Y-140588000D01*
X14732000Y-141388000D02*
X14732000Y-141428000D01*
X14732000Y-142228000D02*
X14732000Y-142268000D01*
X14732000Y-143068000D02*
X14732000Y-143108000D01*
X14732000Y-143908000D02*
X14732000Y-143948000D01*
X14732000Y-144748000D02*
X14732000Y-144788000D01*
X14732000Y-145588000D02*
X14732000Y-145628000D01*
X14732000Y-146428000D02*
X14732000Y-146468000D01*
X14732000Y-147268000D02*
X14732000Y-147308000D01*
X14732000Y-147320000D02*
X14762958Y-147345330D01*
X15382124Y-147851920D02*
X15413082Y-147877249D01*
X16032248Y-148383839D02*
X16063207Y-148409169D01*
X16682372Y-148915759D02*
X16713331Y-148941089D01*
X17332497Y-149447679D02*
X17363455Y-149473008D01*
X17982621Y-149979599D02*
X18013579Y-150004928D01*
X18632745Y-150511518D02*
X18663703Y-150536848D01*
X18923000Y-150749000D02*
X18963000Y-150749187D01*
X19762991Y-150752937D02*
X19802990Y-150753125D01*
X20602982Y-150756875D02*
X20642981Y-150757062D01*
X21442972Y-150760812D02*
X21482972Y-150761000D01*
X22282963Y-150764750D02*
X22322963Y-150764937D01*
X23122954Y-150768687D02*
X23162953Y-150768875D01*
X23962945Y-150772625D02*
X24002944Y-150772812D01*
X24802935Y-150776562D02*
X24842935Y-150776750D01*
X25642926Y-150780500D02*
X25682926Y-150780687D01*
X26482917Y-150784437D02*
X26522917Y-150784625D01*
X27322908Y-150788375D02*
X27362907Y-150788562D01*
X28162898Y-150792312D02*
X28202898Y-150792500D01*
X29002889Y-150796249D02*
X29042889Y-150796437D01*
X29842880Y-150800187D02*
X29882880Y-150800374D01*
X30682871Y-150804124D02*
X30722870Y-150804312D01*
X31522862Y-150808062D02*
X31562861Y-150808249D01*
X32362852Y-150811999D02*
X32402852Y-150812187D01*
X33202843Y-150815937D02*
X33242843Y-150816124D01*
X34042834Y-150819874D02*
X34082833Y-150820062D01*
X34882825Y-150823812D02*
X34922824Y-150823999D01*
X35722815Y-150827749D02*
X35762815Y-150827937D01*
X36562806Y-150831687D02*
X36602806Y-150831874D01*
X37402797Y-150835624D02*
X37442797Y-150835812D01*
X38242788Y-150839562D02*
X38282787Y-150839749D01*
X39082779Y-150843499D02*
X39122778Y-150843686D01*
X39922769Y-150847436D02*
X39962769Y-150847624D01*
X40762760Y-150851374D02*
X40802760Y-150851561D01*
X41602751Y-150855311D02*
X41642750Y-150855499D01*
X42442742Y-150859249D02*
X42482741Y-150859436D01*
X43282732Y-150863186D02*
X43322732Y-150863374D01*
X44122723Y-150867124D02*
X44162723Y-150867311D01*
X44962714Y-150871061D02*
X45002713Y-150871249D01*
X45802705Y-150874999D02*
X45842704Y-150875186D01*
X46642695Y-150878936D02*
X46682695Y-150879124D01*
X47482686Y-150882874D02*
X47522686Y-150883061D01*
X48322677Y-150886811D02*
X48362677Y-150886998D01*
X49162668Y-150890748D02*
X49202667Y-150890936D01*
X50002659Y-150894686D02*
X50042658Y-150894873D01*
X50842649Y-150898623D02*
X50882649Y-150898811D01*
X51682640Y-150902561D02*
X51722640Y-150902748D01*
X52522631Y-150906498D02*
X52562630Y-150906686D01*
X53362622Y-150910436D02*
X53402621Y-150910623D01*
X54202612Y-150914373D02*
X54242612Y-150914561D01*
X55042603Y-150918311D02*
X55082603Y-150918498D01*
X55882594Y-150922248D02*
X55922594Y-150922436D01*
X56722585Y-150926186D02*
X56762584Y-150926373D01*
X57562575Y-150930123D02*
X57602575Y-150930311D01*
X58402566Y-150934060D02*
X58442566Y-150934248D01*
X59242557Y-150937998D02*
X59282557Y-150938185D01*
X60082548Y-150941935D02*
X60122547Y-150942123D01*
X60922539Y-150945873D02*
X60962538Y-150946060D01*
X61762529Y-150949810D02*
X61802529Y-150949998D01*
X62602520Y-150953748D02*
X62642520Y-150953935D01*
X63442511Y-150957685D02*
X63482510Y-150957873D01*
X64282502Y-150961623D02*
X64322501Y-150961810D01*
X65122492Y-150965560D02*
X65162492Y-150965748D01*
X65962483Y-150969498D02*
X66002483Y-150969685D01*
X66802474Y-150973435D02*
X66842474Y-150973623D01*
X67642465Y-150977372D02*
X67682464Y-150977560D01*
X68482456Y-150981310D02*
X68522455Y-150981497D01*
X69322446Y-150985247D02*
X69362446Y-150985435D01*
X70162437Y-150989185D02*
X70202437Y-150989372D01*
X71002428Y-150993122D02*
X71042427Y-150993310D01*
X71842419Y-150997060D02*
X71882418Y-150997247D01*
X72682409Y-151000997D02*
X72722409Y-151001185D01*
X73522400Y-151004935D02*
X73562400Y-151005122D01*
X74362391Y-151008872D02*
X74402390Y-151009060D01*
X75202382Y-151012810D02*
X75242381Y-151012997D01*
X76042372Y-151016747D02*
X76082372Y-151016935D01*
X76882363Y-151020685D02*
X76922363Y-151020872D01*
X77722354Y-151024622D02*
X77762354Y-151024809D01*
X78562345Y-151028559D02*
X78602344Y-151028747D01*
X79402336Y-151032497D02*
X79442335Y-151032684D01*
X80242326Y-151036434D02*
X80282326Y-151036622D01*
X81082317Y-151040372D02*
X81122317Y-151040559D01*
X81922308Y-151044309D02*
X81962307Y-151044497D01*
X82762299Y-151048247D02*
X82802298Y-151048434D01*
X83602289Y-151052184D02*
X83642289Y-151052372D01*
X84442280Y-151056122D02*
X84482280Y-151056309D01*
X85282271Y-151060059D02*
X85322271Y-151060247D01*
X86122262Y-151063997D02*
X86162261Y-151064184D01*
X86962253Y-151067934D02*
X87002252Y-151068121D01*
X87802243Y-151071871D02*
X87842243Y-151072059D01*
X88642234Y-151075809D02*
X88682234Y-151075996D01*
X89482225Y-151079746D02*
X89522224Y-151079934D01*
X90322216Y-151083684D02*
X90362215Y-151083871D01*
X91162206Y-151087621D02*
X91202206Y-151087809D01*
X92002197Y-151091559D02*
X92042197Y-151091746D01*
X92842188Y-151095496D02*
X92882187Y-151095684D01*
X93682179Y-151099434D02*
X93722178Y-151099621D01*
X94522169Y-151103371D02*
X94562169Y-151103559D01*
X95362160Y-151107309D02*
X95402160Y-151107496D01*
X96202151Y-151111246D02*
X96242151Y-151111434D01*
X97042142Y-151115183D02*
X97082141Y-151115371D01*
X97882133Y-151119121D02*
X97922132Y-151119308D01*
X98722123Y-151123058D02*
X98762123Y-151123246D01*
X99562114Y-151126996D02*
X99602114Y-151127183D01*
X100203000Y-151130000D02*
X100232994Y-151103535D01*
X100832864Y-150574238D02*
X100862857Y-150547773D01*
X101462728Y-150018476D02*
X101492721Y-149992011D01*
X102092591Y-149462713D02*
X102122585Y-149436249D01*
X102722455Y-148906951D02*
X102752449Y-148880486D01*
X103352319Y-148351189D02*
X103382313Y-148324724D01*
X103982183Y-147795427D02*
X104012176Y-147768962D01*
X104612047Y-147239665D02*
X104642040Y-147213200D01*
X105241910Y-146683903D02*
X105271904Y-146657438D01*
X105871774Y-146128140D02*
X105901768Y-146101676D01*
X106501638Y-145572378D02*
X106531631Y-145545913D01*
X107131502Y-145016616D02*
X107161495Y-144990151D01*
X107761366Y-144460854D02*
X107791359Y-144434389D01*
X108391229Y-143905092D02*
X108421223Y-143878627D01*
X108839000Y-143510000D02*
X108838418Y-143470004D01*
X108826777Y-142670089D02*
X108826195Y-142630093D01*
X108814554Y-141830178D02*
X108813971Y-141790182D01*
X108802330Y-140990267D02*
X108801748Y-140950271D01*
X108790107Y-140150356D02*
X108789525Y-140110360D01*
X108777884Y-139310445D02*
X108777302Y-139270449D01*
X108765661Y-138470534D02*
X108765079Y-138430538D01*
X108753437Y-137630623D02*
X108752855Y-137590627D01*
X108741214Y-136790712D02*
X108740632Y-136750716D01*
X108728991Y-135950800D02*
X108728409Y-135910805D01*
X108716768Y-135110889D02*
X108716186Y-135070894D01*
X108704544Y-134270978D02*
X108703962Y-134230983D01*
X108692321Y-133431067D02*
X108691739Y-133391071D01*
X108680098Y-132591156D02*
X108679516Y-132551160D01*
X108667875Y-131751245D02*
X108667293Y-131711249D01*
X108655651Y-130911334D02*
X108655069Y-130871338D01*
X108643428Y-130071423D02*
X108642846Y-130031427D01*
X108631205Y-129231512D02*
X108630623Y-129191516D01*
X108618982Y-128391601D02*
X108618400Y-128351605D01*
X108606758Y-127551690D02*
X108606176Y-127511694D01*
X108594535Y-126711779D02*
X108593953Y-126671783D01*
X108582312Y-125871868D02*
X108581730Y-125831872D01*
X108570089Y-125031957D02*
X108569507Y-124991961D01*
X108557866Y-124192046D02*
X108557283Y-124152050D01*
X108545642Y-123352135D02*
X108545060Y-123312139D01*
X108533419Y-122512223D02*
X108532837Y-122472228D01*
X108521196Y-121672312D02*
X108520614Y-121632317D01*
X108508973Y-120832401D02*
X108508391Y-120792406D01*
X108496749Y-119992490D02*
X108496167Y-119952494D01*
X108484526Y-119152579D02*
X108483944Y-119112583D01*
X108472303Y-118312668D02*
X108471721Y-118272672D01*
X108460080Y-117472757D02*
X108459498Y-117432761D01*
X108447856Y-116632846D02*
X108447274Y-116592850D01*
X108435633Y-115792935D02*
X108435051Y-115752939D01*
X108423410Y-114953024D02*
X108422828Y-114913028D01*
X108411187Y-114113113D02*
X108410605Y-114073117D01*
X108398963Y-113273202D02*
X108398381Y-113233206D01*
X108386740Y-112433291D02*
X108386158Y-112393295D01*
X108374517Y-111593380D02*
X108373935Y-111553384D01*
X108362294Y-110753469D02*
X108361712Y-110713473D01*
X108350070Y-109913558D02*
X108349488Y-109873562D01*
X108337847Y-109073646D02*
X108337265Y-109033651D01*
X108325624Y-108233735D02*
X108325042Y-108193740D01*
X108313401Y-107393824D02*
X108312819Y-107353829D01*
X108301178Y-106553913D02*
X108300595Y-106513917D01*
X108288954Y-105714002D02*
X108288372Y-105674006D01*
X108276731Y-104874091D02*
X108276149Y-104834095D01*
X108264508Y-104034180D02*
X108263926Y-103994184D01*
X108252285Y-103194269D02*
X108251703Y-103154273D01*
X108240061Y-102354358D02*
X108239479Y-102314362D01*
X108227838Y-101514447D02*
X108227256Y-101474451D01*
X108215615Y-100674536D02*
X108215033Y-100634540D01*
X108203392Y-99834625D02*
X108202810Y-99794629D01*
X108191168Y-98994714D02*
X108190586Y-98954718D01*
X108178945Y-98154803D02*
X108178363Y-98114807D01*
X108166722Y-97314892D02*
X108166140Y-97274896D01*
X108154499Y-96474981D02*
X108153917Y-96434985D01*
X108142275Y-95635069D02*
X108141693Y-95595074D01*
X108130052Y-94795158D02*
X108129470Y-94755163D01*
X108117829Y-93955247D02*
X108117247Y-93915252D01*
X108105606Y-93115336D02*
X108105024Y-93075341D01*
X108093382Y-92275425D02*
X108092800Y-92235429D01*
X108081159Y-91435514D02*
X108080577Y-91395518D01*
X108068936Y-90595603D02*
X108068354Y-90555607D01*
X108056713Y-89755692D02*
X108056131Y-89715696D01*
X108044490Y-88915781D02*
X108043907Y-88875785D01*
X108032266Y-88075870D02*
X108031684Y-88035874D01*
X108020043Y-87235959D02*
X108019461Y-87195963D01*
X108007820Y-86396048D02*
X108007238Y-86356052D01*
X107995597Y-85556137D02*
X107995015Y-85516141D01*
X107983373Y-84716226D02*
X107982791Y-84676230D01*
X107971150Y-83876315D02*
X107970568Y-83836319D01*
X107958927Y-83036404D02*
X107958345Y-82996408D01*
X107950000Y-82423000D02*
X107974910Y-82391703D01*
X108473106Y-81765764D02*
X108498016Y-81734467D01*
X108996213Y-81108527D02*
X109021123Y-81077230D01*
X109519319Y-80451291D02*
X109544229Y-80419994D01*
X110042426Y-79794055D02*
X110067336Y-79762758D01*
X110565532Y-79136818D02*
X110590442Y-79105521D01*
X111088639Y-78479582D02*
X111113549Y-78448285D01*
X111611745Y-77822346D02*
X111636655Y-77791049D01*
X112134852Y-77165109D02*
X112159762Y-77133812D01*
X112657958Y-76507873D02*
X112682868Y-76476576D01*
X112903000Y-76200000D02*
X112903000Y-76160000D01*
X112903000Y-75360000D02*
X112903000Y-75320000D01*
X112903000Y-74520000D02*
X112903000Y-74480000D01*
X112903000Y-73680000D02*
X112903000Y-73640000D01*
X112903000Y-72840000D02*
X112903000Y-72800000D01*
X112903000Y-72000000D02*
X112903000Y-71960000D01*
X112903000Y-71160000D02*
X112903000Y-71120000D01*
X112903000Y-70320000D02*
X112903000Y-70280000D01*
X112903000Y-69480000D02*
X112903000Y-69440000D01*
X112903000Y-68640000D02*
X112903000Y-68600000D01*
X112903000Y-68580000D02*
X112935962Y-68557339D01*
X113595195Y-68104116D02*
X113628157Y-68081455D01*
X114287390Y-67628232D02*
X114320352Y-67605570D01*
X114935000Y-67183000D02*
X114935000Y-67143000D01*
X114935000Y-66343000D02*
X114935000Y-66303000D01*
X114935000Y-65503000D02*
X114935000Y-65463000D01*
X114935000Y-64663000D02*
X114935000Y-64623000D01*
X114935000Y-63823000D02*
X114935000Y-63783000D01*
X114935000Y-62983000D02*
X114935000Y-62943000D01*
X114935000Y-62143000D02*
X114935000Y-62103000D01*
X114935000Y-61303000D02*
X114935000Y-61263000D01*
X114935000Y-60463000D02*
X114935000Y-60423000D01*
X114935000Y-59623000D02*
X114935000Y-59583000D01*
X114935000Y-58783000D02*
X114935000Y-58743000D01*
X114935000Y-57943000D02*
X114935000Y-57903000D01*
X114935000Y-57103000D02*
X114935000Y-57063000D01*
X114935000Y-56263000D02*
X114935000Y-56223000D01*
X114935000Y-55423000D02*
X114935000Y-55383000D01*
X114935000Y-54583000D02*
X114935000Y-54543000D01*
X114935000Y-53743000D02*
X114935000Y-53703000D01*
X114935000Y-52903000D02*
X114935000Y-52863000D01*
X114935000Y-52063000D02*
X114935000Y-52023000D01*
X114935000Y-51223000D02*
X114935000Y-51183000D01*
X114935000Y-50383000D02*
X114935000Y-50343000D01*
X114935000Y-49543000D02*
X114935000Y-49503000D01*
X114935000Y-48703000D02*
X114935000Y-48663000D01*
X114935000Y-48260000D02*
X114909162Y-48229465D01*
X114392409Y-47618756D02*
X114366571Y-47588220D01*
X113849817Y-46977511D02*
X113823979Y-46946976D01*
X113538000Y-46609000D02*
X113498000Y-46609000D01*
X112698000Y-46609000D02*
X112658000Y-46609000D01*
X111858000Y-46609000D02*
X111818000Y-46609000D01*
X111018000Y-46609000D02*
X110978000Y-46609000D01*
X110871000Y-46609000D02*
X110871000Y-46569000D01*
X110871000Y-45769000D02*
X110871000Y-45729000D01*
X110871000Y-44929000D02*
X110871000Y-44889000D01*
X110871000Y-44089000D02*
X110871000Y-44049000D01*
X110871000Y-43688000D02*
X110842716Y-43659716D01*
X110277030Y-43094030D02*
X110248746Y-43065746D01*
X109683061Y-42500061D02*
X109654776Y-42471776D01*
X109089091Y-41906091D02*
X109060807Y-41877807D01*
X108495121Y-41312121D02*
X108466837Y-41283837D01*
X107901152Y-40718152D02*
X107872867Y-40689867D01*
X107307182Y-40124182D02*
X107278898Y-40095898D01*
X106713212Y-39530212D02*
X106684928Y-39501928D01*
X106119242Y-38936242D02*
X106090958Y-38907958D01*
X105525273Y-38342273D02*
X105496988Y-38313988D01*
X104931303Y-37748303D02*
X104903019Y-37720019D01*
X104337333Y-37154333D02*
X104309049Y-37126049D01*
X103743364Y-36560364D02*
X103715079Y-36532079D01*
X103632000Y-36449000D02*
X103592000Y-36449000D01*
X102792000Y-36449000D02*
X102752000Y-36449000D01*
X101952000Y-36449000D02*
X101912000Y-36449000D01*
X101112000Y-36449000D02*
X101072000Y-36449000D01*
X100272000Y-36449000D02*
X100232000Y-36449000D01*
X99432000Y-36449000D02*
X99392000Y-36449000D01*
X98592000Y-36449000D02*
X98552000Y-36449000D01*
X97752000Y-36449000D02*
X97712000Y-36449000D01*
X96912000Y-36449000D02*
X96872000Y-36449000D01*
X96072000Y-36449000D02*
X96032000Y-36449000D01*
X95232000Y-36449000D02*
X95192000Y-36449000D01*
X94392000Y-36449000D02*
X94352000Y-36449000D01*
X93552000Y-36449000D02*
X93512000Y-36449000D01*
X92712000Y-36449000D02*
X92672000Y-36449000D01*
X91872000Y-36449000D02*
X91832000Y-36449000D01*
X91032000Y-36449000D02*
X90992000Y-36449000D01*
X90192000Y-36449000D02*
X90152000Y-36449000D01*
X89352000Y-36449000D02*
X89312000Y-36449000D01*
X88512000Y-36449000D02*
X88472000Y-36449000D01*
X87672000Y-36449000D02*
X87632000Y-36449000D01*
X86832000Y-36449000D02*
X86792000Y-36449000D01*
X85992000Y-36449000D02*
X85952000Y-36449000D01*
X85152000Y-36449000D02*
X85112000Y-36449000D01*
X84312000Y-36449000D02*
X84272000Y-36449000D01*
X83472000Y-36449000D02*
X83432000Y-36449000D01*
X82632000Y-36449000D02*
X82592000Y-36449000D01*
X81792000Y-36449000D02*
X81752000Y-36449000D01*
X80952000Y-36449000D02*
X80912000Y-36449000D01*
X80112000Y-36449000D02*
X80072000Y-36449000D01*
X79272000Y-36449000D02*
X79232000Y-36449000D01*
X78432000Y-36449000D02*
X78392000Y-36449000D01*
X77592000Y-36449000D02*
X77552000Y-36449000D01*
X76752000Y-36449000D02*
X76712000Y-36449000D01*
X75912000Y-36449000D02*
X75872000Y-36449000D01*
X75072000Y-36449000D02*
X75032000Y-36449000D01*
X74232000Y-36449000D02*
X74192000Y-36449000D01*
X73392000Y-36449000D02*
X73352000Y-36449000D01*
X72552000Y-36449000D02*
X72512000Y-36449000D01*
X71712000Y-36449000D02*
X71672000Y-36449000D01*
X70872000Y-36449000D02*
X70832000Y-36449000D01*
X70032000Y-36449000D02*
X69992000Y-36449000D01*
X69192000Y-36449000D02*
X69152000Y-36449000D01*
X68352000Y-36449000D02*
X68312000Y-36449000D01*
X67512000Y-36449000D02*
X67472000Y-36449000D01*
X66672000Y-36449000D02*
X66632000Y-36449000D01*
X65832000Y-36449000D02*
X65792000Y-36449000D01*
X64992000Y-36449000D02*
X64952000Y-36449000D01*
X64152000Y-36449000D02*
X64112000Y-36449000D01*
X63312000Y-36449000D02*
X63272000Y-36449000D01*
X62472000Y-36449000D02*
X62432000Y-36449000D01*
X61632000Y-36449000D02*
X61592000Y-36449000D01*
X60792000Y-36449000D02*
X60752000Y-36449000D01*
X59952000Y-36449000D02*
X59912000Y-36449000D01*
X59112000Y-36449000D02*
X59072000Y-36449000D01*
X58272000Y-36449000D02*
X58232000Y-36449000D01*
X57432000Y-36449000D02*
X57392000Y-36449000D01*
X56592000Y-36449000D02*
X56552000Y-36449000D01*
X55752000Y-36449000D02*
X55712000Y-36449000D01*
X54912000Y-36449000D02*
X54872000Y-36449000D01*
X54072000Y-36449000D02*
X54032000Y-36449000D01*
X53721000Y-36449000D02*
X53721000Y-36409000D01*
X53721000Y-35609000D02*
X53721000Y-35569000D01*
X53721000Y-34769000D02*
X53721000Y-34729000D01*
X53721000Y-33929000D02*
X53721000Y-33889000D01*
X53721000Y-33089000D02*
X53721000Y-33049000D01*
X53721000Y-32249000D02*
X53721000Y-32209000D01*
X53721000Y-31409000D02*
X53721000Y-31369000D01*
X53721000Y-30569000D02*
X53721000Y-30529000D01*
X53721000Y-29729000D02*
X53721000Y-29689000D01*
X53721000Y-28889000D02*
X53721000Y-28849000D01*
X53721000Y-28321000D02*
X53695776Y-28289955D01*
X53191302Y-27669064D02*
X53166078Y-27638020D01*
X52661604Y-27017128D02*
X52636381Y-26986084D01*
X52131907Y-26365193D02*
X52106683Y-26334148D01*
X52070000Y-26289000D02*
X52030000Y-26289000D01*
X51230000Y-26289000D02*
X51190000Y-26289000D01*
X50390000Y-26289000D02*
X50350000Y-26289000D01*
X49550000Y-26289000D02*
X49510000Y-26289000D01*
X48710000Y-26289000D02*
X48670000Y-26289000D01*
X47870000Y-26289000D02*
X47830000Y-26289000D01*
X47030000Y-26289000D02*
X46990000Y-26289000D01*
X46190000Y-26289000D02*
X46150000Y-26289000D01*
X45350000Y-26289000D02*
X45310000Y-26289000D01*
X44510000Y-26289000D02*
X44470000Y-26289000D01*
X43670000Y-26289000D02*
X43630000Y-26289000D01*
X42830000Y-26289000D02*
X42790000Y-26289000D01*
X41990000Y-26289000D02*
X41950000Y-26289000D01*
X41150000Y-26289000D02*
X41110000Y-26289000D01*
X40310000Y-26289000D02*
X40270000Y-26289000D01*
X39470000Y-26289000D02*
X39430000Y-26289000D01*
X38630000Y-26289000D02*
X38590000Y-26289000D01*
X37790000Y-26289000D02*
X37750000Y-26289000D01*
X36950000Y-26289000D02*
X36910000Y-26289000D01*
X36110000Y-26289000D02*
X36070000Y-26289000D01*
X35270000Y-26289000D02*
X35230000Y-26289000D01*
X34430000Y-26289000D02*
X34390000Y-26289000D01*
X33590000Y-26289000D02*
X33550000Y-26289000D01*
X32750000Y-26289000D02*
X32710000Y-26289000D01*
X31910000Y-26289000D02*
X31870000Y-26289000D01*
X31070000Y-26289000D02*
X31030000Y-26289000D01*
X30230000Y-26289000D02*
X30190000Y-26289000D01*
X29390000Y-26289000D02*
X29350000Y-26289000D01*
X28550000Y-26289000D02*
X28510000Y-26289000D01*
X27710000Y-26289000D02*
X27670000Y-26289000D01*
X26870000Y-26289000D02*
X26830000Y-26289000D01*
X26289000Y-26289000D02*
X26289000Y-26329000D01*
X26289000Y-27129000D02*
X26289000Y-27169000D01*
X26289000Y-27969000D02*
X26289000Y-28009000D01*
X26289000Y-28809000D02*
X26289000Y-28849000D01*
X26289000Y-29649000D02*
X26289000Y-29689000D01*
X26289000Y-30489000D02*
X26289000Y-30529000D01*
X26289000Y-31329000D02*
X26289000Y-31369000D01*
X26289000Y-32169000D02*
X26289000Y-32209000D01*
X26289000Y-33009000D02*
X26289000Y-33049000D01*
X26289000Y-33849000D02*
X26289000Y-33889000D01*
X26289000Y-34689000D02*
X26289000Y-34729000D01*
X26289000Y-35529000D02*
X26289000Y-35569000D01*
X26289000Y-35687000D02*
X26249000Y-35687000D01*
X25449000Y-35687000D02*
X25409000Y-35687000D01*
X24609000Y-35687000D02*
X24569000Y-35687000D01*
X23769000Y-35687000D02*
X23729000Y-35687000D01*
X22929000Y-35687000D02*
X22889000Y-35687000D01*
X22089000Y-35687000D02*
X22049000Y-35687000D01*
X21249000Y-35687000D02*
X21209000Y-35687000D01*
X20409000Y-35687000D02*
X20369000Y-35687000D01*
X19569000Y-35687000D02*
X19529000Y-35687000D01*
X18729000Y-35687000D02*
X18689000Y-35687000D01*
X17889000Y-35687000D02*
X17849000Y-35687000D01*
X17049000Y-35687000D02*
X17009000Y-35687000D01*
X16209000Y-35687000D02*
X16169000Y-35687000D01*
X15369000Y-35687000D02*
X15329000Y-35687000D01*
X15113000Y-35687000D02*
X15080005Y-35709613D01*
X14420105Y-36161864D02*
X14387110Y-36184477D01*
X13727209Y-36636728D02*
X13694214Y-36659341D01*
X13034314Y-37111593D02*
X13001319Y-37134205D01*
X12341418Y-37586457D02*
X12308423Y-37609069D01*
X11648523Y-38061321D02*
X11615528Y-38083933D01*
X10955628Y-38536185D02*
X10922633Y-38558798D01*
X10350147Y-38951141D02*
X10349714Y-38991139D01*
X10341054Y-39791092D02*
X10340621Y-39831089D01*
X10331960Y-40631043D02*
X10331527Y-40671040D01*
X10322867Y-41470993D02*
X10322434Y-41510991D01*
X10313774Y-42310944D02*
X10313341Y-42350942D01*
X10304680Y-43150895D02*
X10304247Y-43190893D01*
X10295587Y-43990846D02*
X10295154Y-44030843D01*
X10286494Y-44830796D02*
X10286061Y-44870794D01*
X10277400Y-45670747D02*
X10276967Y-45710745D01*
X10268307Y-46510698D02*
X10267874Y-46550696D01*
X10259214Y-47350649D02*
X10258781Y-47390646D01*
X10250120Y-48190600D02*
X10249687Y-48230597D01*
X10241027Y-49030550D02*
X10240594Y-49070548D01*
X10231934Y-49870501D02*
X10231501Y-49910499D01*
X10222840Y-50710452D02*
X10222407Y-50750450D01*
X10213747Y-51550403D02*
X10213314Y-51590400D01*
X10204654Y-52390353D02*
X10204221Y-52430351D01*
X10195560Y-53230304D02*
X10195127Y-53270302D01*
X10186467Y-54070255D02*
X10186034Y-54110253D01*
X10177374Y-54910206D02*
X10176941Y-54950203D01*
X10168280Y-55750157D02*
X10167847Y-55790154D01*
M02*
