M48
; DRILL file KiCad 9.99.0-4546-gb76221958b date 2026-01-23T23:05:45+0500
; FORMAT={-:-/ absolute / metric / decimal}
; #@! TF.CreationDate,2026-01-23T23:05:45+05:00
; #@! TF.GenerationSoftware,Kicad,Pcbnew,9.99.0-4546-gb76221958b
; #@! TF.FileFunction,Plated,1,2,PTH
FMAT,2
METRIC
; #@! TA.AperFunction,Plated,PTH,ViaDrill
T1C0.300
; #@! TA.AperFunction,Plated,PTH,ComponentDrill
T2C1.000
; #@! TA.AperFunction,Plated,PTH,ComponentDrill
T3C1.016
; #@! TA.AperFunction,Plated,PTH,ComponentDrill
T4C1.500
; #@! TA.AperFunction,Plated,PTH,ComponentDrill
T5C2.700
%
G90
G05
T1
X26.035Y-37.719
X28.194Y-41.275
X28.194Y-43.942
X33.909Y-75.184
X34.798Y-68.961
X36.576Y-74.93
X38.989Y-74.93
X39.116Y-69.469
X40.386Y-43.561
X41.529Y-74.93
X41.808Y-50.825
X42.657Y-47.61
X42.672Y-44.577
X43.307Y-54.356
X44.069Y-74.676
X44.704Y-43.18
X46.228Y-40.005
X46.736Y-39.116
X46.736Y-52.959
X46.736Y-53.848
X46.99Y-55.118
X49.022Y-54.356
X49.149Y-60.071
X50.882Y-46.31
X53.213Y-39.624
X53.848Y-55.372
X56.642Y-70.485
X57.15Y-68.961
X59.69Y-40.132
X64.175Y-71.775
X64.262Y-73.279
X67.056Y-69.85
X68.072Y-71.374
X68.58Y-70.485
X68.707Y-39.116
X69.628Y-73.406
X70.485Y-71.628
X71.247Y-74.041
X73.279Y-71.247
X73.787Y-42.164
X74.676Y-76.073
X75.692Y-73.914
X77.343Y-75.438
X78.74Y-41.529
X78.867Y-73.914
X80.772Y-71.12
X81.407Y-41.529
X81.915Y-75.057
X84.836Y-75.057
X85.09Y-70.485
X87.757Y-72.517
X88.011Y-69.977
X89.027Y-71.374
T2
X28.858Y-78.019
X29.19Y-29.5
X29.19Y-32.04
X31.398Y-78.019
X33.938Y-78.019
X33.938Y-141.539
X36.478Y-78.019
X36.478Y-141.539
X39.018Y-78.019
X39.018Y-141.539
X41.558Y-78.019
X41.558Y-141.539
X44.098Y-78.019
X44.098Y-141.539
X46.638Y-78.019
X49.178Y-78.019
X69.628Y-78.002
X72.168Y-78.002
X74.708Y-78.002
X74.708Y-141.522
X77.248Y-78.002
X77.248Y-141.522
X79.788Y-78.002
X79.788Y-141.522
X82.328Y-78.002
X82.328Y-141.522
X84.868Y-78.002
X84.868Y-141.522
X87.408Y-78.002
X89.948Y-78.002
T3
X63.627Y-45.085
X63.627Y-67.945
X66.167Y-45.085
X66.167Y-67.945
X68.707Y-45.085
X68.707Y-67.945
X71.247Y-45.085
X71.247Y-67.945
X73.787Y-45.085
X73.787Y-67.945
X76.327Y-45.085
X76.327Y-67.945
X78.867Y-45.085
X78.867Y-67.945
X81.407Y-45.085
X81.407Y-67.945
X83.947Y-45.085
X83.947Y-67.945
X86.487Y-45.085
X86.487Y-67.945
X89.027Y-45.085
X89.027Y-67.945
X91.567Y-45.085
X91.567Y-67.945
X94.107Y-45.085
X94.107Y-67.945
X96.647Y-45.085
X96.647Y-67.945
X99.187Y-45.085
X99.187Y-67.945
X101.727Y-45.085
X101.727Y-67.945
X104.267Y-45.085
X104.267Y-67.945
T4
X14.351Y-47.625
X14.351Y-52.705
X16.891Y-50.165
X19.431Y-47.625
X19.431Y-52.705
T5
X21.968Y-79.519
X21.968Y-140.719
X56.068Y-79.519
X56.068Y-140.719
X62.738Y-79.502
X62.738Y-140.702
X96.838Y-79.502
X96.838Y-140.702
M30
