M48
; DRILL file KiCad 9.99.0-4546-gb76221958b date 2026-01-23T23:00:26+0500
; FORMAT={-:-/ absolute / metric / decimal}
; #@! TF.CreationDate,2026-01-23T23:00:26+05:00
; #@! TF.GenerationSoftware,Kicad,Pcbnew,9.99.0-4546-gb76221958b
; #@! TF.FileFunction,Plated,1,2,PTH
FMAT,2
METRIC
; #@! TA.AperFunction,Plated,PTH,ViaDrill
T1C0.300
; #@! TA.AperFunction,Plated,PTH,ComponentDrill
T2C1.000
; #@! TA.AperFunction,Plated,PTH,ComponentDrill
T3C1.016
; #@! TA.AperFunction,Plated,PTH,ComponentDrill
T4C1.500
%
G90
G05
T1
X43.18Y-68.6
X45.7Y-68.9
X46.5Y-29.464
X48.5Y-32.8
X50.8Y-70.0
X64.7Y-41.0
X65.2Y-34.4
X65.47Y-38.43
X69.36Y-41.45
X70.6Y-36.75
X70.612Y-34.798
X71.616Y-36.75
X71.628Y-34.798
X71.882Y-26.67
X71.968Y-27.772
X72.64Y-38.43
X72.644Y-39.6
X73.5Y-36.8
X81.6Y-54.3
X82.1Y-68.8
X82.2Y-54.9
X82.7Y-55.6
X82.9Y-67.3
X83.8Y-66.3
X84.836Y-51.562
X84.836Y-61.214
X87.3Y-48.9
X88.392Y-50.292
X89.235Y-64.6
X89.692Y-51.084
X90.342Y-51.734
X91.4Y-65.8
X92.71Y-56.388
X93.02Y-49.29
X94.1Y-76.3
X94.1Y-79.9
T2
X36.322Y-29.205
X36.322Y-31.745
T3
X35.56Y-43.18
X35.56Y-66.04
X38.1Y-43.18
X38.1Y-66.04
X40.64Y-43.18
X40.64Y-66.04
X43.18Y-43.18
X43.18Y-66.04
X45.72Y-43.18
X45.72Y-66.04
X48.26Y-43.18
X48.26Y-66.04
X50.8Y-43.18
X50.8Y-66.04
X53.34Y-43.18
X53.34Y-66.04
X55.88Y-43.18
X55.88Y-66.04
X58.42Y-43.18
X58.42Y-66.04
X60.96Y-43.18
X60.96Y-66.04
X63.5Y-43.18
X63.5Y-66.04
X66.04Y-43.18
X66.04Y-66.04
X68.58Y-43.18
X68.58Y-66.04
X71.12Y-43.18
X71.12Y-66.04
X73.66Y-43.18
X73.66Y-66.04
X76.2Y-43.18
X76.2Y-66.04
T4
X96.774Y-21.543
X96.774Y-26.623
X99.314Y-24.083
X101.854Y-21.543
X101.854Y-26.623
X103.36Y-70.96
X103.36Y-76.04
X105.9Y-73.5
X108.44Y-70.96
X108.44Y-76.04
M30
