G04 #@! TF.GenerationSoftware,KiCad,Pcbnew,9.99.0-4546-gb76221958b*
G04 #@! TF.CreationDate,2026-01-23T23:00:34+05:00*
G04 #@! TF.ProjectId,Transmitter board,5472616e-736d-4697-9474-657220626f61,rev?*
G04 #@! TF.SameCoordinates,Original*
G04 #@! TF.FileFunction,Legend,Top*
G04 #@! TF.FilePolarity,Positive*
%FSLAX46Y46*%
G04 Gerber Fmt 4.6, Leading zero omitted, Abs format (unit mm)*
G04 Created by KiCad (PCBNEW 9.99.0-4546-gb76221958b) date 2026-01-23 23:00:34*
%MOMM*%
%LPD*%
G01*
G04 APERTURE LIST*
%ADD10C,0.266492*%
%ADD11C,0.150000*%
%ADD12C,0.120000*%
%ADD13C,0.127000*%
G04 APERTURE END LIST*
D10*
X101332832Y-29050788D02*
X101460678Y-29051202D01*
X101791789Y-29084406D01*
X102122511Y-29135492D01*
X102301326Y-29160400D01*
X102429251Y-29178964D01*
X102762005Y-29226516D01*
X103024660Y-29279402D01*
X103163912Y-29311579D01*
X103524763Y-29347196D01*
X103693417Y-29360273D01*
X104003193Y-29478678D01*
X104082223Y-29497798D01*
X104237609Y-29528878D01*
X104389427Y-29566066D01*
X104465254Y-29573369D01*
X104704809Y-29564726D01*
X104723328Y-29570947D01*
X104753290Y-29593416D01*
X104805778Y-29639378D01*
X104843766Y-29676776D01*
X104907937Y-29708725D01*
X104929168Y-29709344D01*
X105032075Y-29692629D01*
X105083035Y-29690988D01*
X105107247Y-29697254D01*
X105115375Y-29701004D01*
X105128813Y-29713037D01*
X105147732Y-29741584D01*
X105166099Y-29777083D01*
X105173548Y-29798184D01*
X105189428Y-29811520D01*
X105370052Y-29905143D01*
X105395735Y-29915916D01*
X105413137Y-29928347D01*
X105535697Y-30097341D01*
X105588809Y-30151562D01*
X105629748Y-30180331D01*
X105667368Y-30193600D01*
X105719367Y-30223479D01*
X105762526Y-30253358D01*
X105930334Y-30413945D01*
X106077334Y-30547664D01*
X106310345Y-30785407D01*
X106409837Y-30890296D01*
X106562252Y-31085402D01*
X106702546Y-31296031D01*
X106857625Y-31457978D01*
X106912621Y-31505081D01*
X106935880Y-31545270D01*
X106998295Y-31621872D01*
X107067230Y-31675014D01*
X107103981Y-31702849D01*
X107185093Y-31777658D01*
X107239428Y-31815462D01*
X107357358Y-31933928D01*
X107398735Y-31974500D01*
X107440933Y-32002496D01*
X107457157Y-32016289D01*
X107475826Y-32024406D01*
X107589140Y-32043744D01*
X107711981Y-32059337D01*
X107827435Y-32086650D01*
X107887546Y-32100575D01*
X107916971Y-32108801D01*
X107934377Y-32120194D01*
X107946080Y-32128102D01*
X107982201Y-32177602D01*
X108020911Y-32228343D01*
X108094570Y-32298245D01*
X108140056Y-32324553D01*
X108157339Y-32342217D01*
X108207839Y-32451158D01*
X108283960Y-32522917D01*
X108469731Y-32675662D01*
X108498742Y-32706228D01*
X108556246Y-32766064D01*
X108573465Y-32983736D01*
X108522842Y-33032226D01*
X108444998Y-33122650D01*
X108433610Y-33134255D01*
X108408518Y-33176389D01*
X108373474Y-33223524D01*
X108337815Y-33285161D01*
X108339027Y-33338339D01*
X108420608Y-33387898D01*
X108557191Y-33486629D01*
X108670829Y-33597381D01*
X108776760Y-33675387D01*
X108903460Y-33743301D01*
X109264236Y-33826772D01*
X109334762Y-33827797D01*
X109360829Y-33801735D01*
X109366962Y-33763403D01*
X109381778Y-33706165D01*
X109409716Y-33639791D01*
X109452030Y-33574688D01*
X109551299Y-33449384D01*
X109701570Y-33335815D01*
X109751450Y-33305876D01*
X109886143Y-33255991D01*
X109972817Y-33227309D01*
X110067351Y-33203568D01*
X110167705Y-33202696D01*
X110192134Y-33218401D01*
X110224417Y-33251563D01*
X110259326Y-33270756D01*
X110574325Y-33270756D01*
X110599630Y-33257672D01*
X110626683Y-33247198D01*
X110673184Y-33250515D01*
X110729761Y-33260019D01*
X110798425Y-33280314D01*
X110950132Y-33330615D01*
X111036510Y-33374034D01*
X111163984Y-33465554D01*
X111304147Y-33612801D01*
X111352017Y-33691787D01*
X111389521Y-33771583D01*
X111401490Y-33841002D01*
X111401490Y-33960685D01*
X111377283Y-34059346D01*
X111365758Y-34094915D01*
X111364255Y-34167059D01*
X111377837Y-34187725D01*
X111416598Y-34214524D01*
X111442256Y-34228778D01*
X111450238Y-34296058D01*
X111443668Y-34489431D01*
X111425262Y-34525699D01*
X111417140Y-34597160D01*
X107707301Y-35571557D01*
X107693983Y-35563866D01*
X107678689Y-35561761D01*
X107604669Y-35562129D01*
X107539244Y-35547412D01*
X107508437Y-35532414D01*
X107347338Y-35427450D01*
X107219750Y-35344618D01*
X107102798Y-35254755D01*
X106980954Y-35196106D01*
X106861934Y-35135796D01*
X106768734Y-35078142D01*
X106678405Y-35022322D01*
X106637159Y-34992267D01*
X106528598Y-34922868D01*
X106415485Y-34873557D01*
X106324607Y-34827156D01*
X106272195Y-34788719D01*
X106187993Y-34739676D01*
X106106576Y-34686475D01*
X105968073Y-34685290D01*
X105847623Y-34665407D01*
X105759274Y-34641224D01*
X105666813Y-34611989D01*
X105610378Y-34583769D01*
X105550639Y-34555506D01*
X105476129Y-34534307D01*
X105400977Y-34525312D01*
X105255364Y-34494944D01*
X105225470Y-34488335D01*
X105138337Y-34459537D01*
X105063760Y-34427085D01*
X104975027Y-34367662D01*
X104792692Y-34229278D01*
X104754433Y-34206486D01*
X104680233Y-34142125D01*
X104630174Y-34110036D01*
X104599375Y-34083083D01*
X104518519Y-34004799D01*
X104469740Y-33966291D01*
X104397868Y-33904684D01*
X104342683Y-33862327D01*
X104204065Y-33866184D01*
X104011820Y-33892801D01*
X103912560Y-33909815D01*
X103852432Y-33910385D01*
X103737298Y-33927401D01*
X103552022Y-33927493D01*
X103434890Y-33913717D01*
X103327659Y-33893701D01*
X103099470Y-33894079D01*
X103098356Y-33943526D01*
X103109290Y-33983638D01*
X103138463Y-34048226D01*
X103164780Y-34122286D01*
X103211009Y-34247535D01*
X103231241Y-34335048D01*
X103232318Y-34407216D01*
X103199775Y-34566504D01*
X103200488Y-35044092D01*
X103190946Y-35121539D01*
X103131873Y-35225082D01*
X103065691Y-35615566D01*
X103065691Y-35722835D01*
X103144158Y-35794349D01*
X103213679Y-35875798D01*
X103245462Y-35923469D01*
X103302372Y-36045743D01*
X103334076Y-36087857D01*
X103349689Y-36145578D01*
X103350631Y-36167352D01*
X103341468Y-36208958D01*
X103318022Y-36235748D01*
X103289003Y-36267005D01*
X103238757Y-36317248D01*
X103213086Y-36387579D01*
X103195215Y-36457915D01*
X103177861Y-36498236D01*
X103148146Y-36529933D01*
X103130974Y-36556342D01*
X103128990Y-36576818D01*
X103144842Y-36607853D01*
X103165319Y-36634922D01*
X103268692Y-36773331D01*
X103342478Y-36862030D01*
X103428821Y-36956221D01*
X103488828Y-37036495D01*
X103582160Y-37124862D01*
X103619889Y-37175498D01*
X103657622Y-37238050D01*
X103707269Y-37284717D01*
X103726863Y-37362568D01*
X103727888Y-37398537D01*
X103739198Y-37427323D01*
X103758730Y-37503374D01*
X103758730Y-37548598D01*
X103831694Y-37542426D01*
X103876918Y-37535233D01*
X103943721Y-37535233D01*
X103985859Y-37539345D01*
X103987917Y-37553732D01*
X104000246Y-37577373D01*
X104004358Y-37598950D01*
X104040337Y-37651372D01*
X104113610Y-37677580D01*
X104190809Y-37700462D01*
X104288438Y-37725786D01*
X104461490Y-37725661D01*
X104499707Y-37713835D01*
X104595662Y-37678920D01*
X104723844Y-37648927D01*
X105081348Y-37606454D01*
X105517408Y-37550153D01*
X105759550Y-37518454D01*
X106037515Y-37456912D01*
X106155565Y-37419929D01*
X106209612Y-37405705D01*
X106348999Y-37400019D01*
X106568032Y-37350231D01*
X107235855Y-37214661D01*
X107479194Y-37156452D01*
X107783070Y-37092409D01*
X108112686Y-37036005D01*
X108668018Y-37037796D01*
X108836953Y-37000062D01*
X108831554Y-36985678D01*
X108829764Y-36971303D01*
X108847736Y-36964116D01*
X108959268Y-36960146D01*
X108963153Y-36940862D01*
X108958579Y-36929426D01*
X108879889Y-36853277D01*
X108785977Y-36777130D01*
X108694601Y-36728907D01*
X108641298Y-36706065D01*
X108580379Y-36652757D01*
X108519464Y-36601995D01*
X108433162Y-36495388D01*
X108325207Y-36331914D01*
X108260116Y-36293451D01*
X108171360Y-36228361D01*
X108100359Y-36178066D01*
X108011597Y-36086349D01*
X107958344Y-36006465D01*
X107899174Y-35867413D01*
X107844353Y-35784747D01*
X107768216Y-35647696D01*
X107707301Y-35571557D01*
X111417114Y-34597190D01*
X111441868Y-34626890D01*
X111611968Y-34815619D01*
X111673292Y-34878188D01*
X111727104Y-34934510D01*
X111767150Y-35005837D01*
X111804696Y-35099694D01*
X111824720Y-35226094D01*
X111895337Y-35457851D01*
X111910264Y-35571080D01*
X111910264Y-35643253D01*
X111959899Y-35894116D01*
X111975623Y-36000363D01*
X111978544Y-36163774D01*
X111996616Y-36251126D01*
X111993602Y-36353542D01*
X111975529Y-36431863D01*
X111945411Y-36537292D01*
X111959452Y-36784473D01*
X111940719Y-36908679D01*
X111918048Y-36992465D01*
X111862223Y-37088461D01*
X111841345Y-37131814D01*
X111858210Y-37216901D01*
X111857409Y-37317250D01*
X111832455Y-37442586D01*
X111819806Y-37482434D01*
X111804325Y-37507621D01*
X111742756Y-37578204D01*
X111676682Y-37662296D01*
X111676682Y-37783932D01*
X111739759Y-37785429D01*
X111799821Y-37795945D01*
X111826848Y-37825979D01*
X111862890Y-37850007D01*
X111902341Y-37944251D01*
X111930519Y-37973464D01*
X111950348Y-37988072D01*
X111979561Y-37999552D01*
X112007739Y-38012072D01*
X112027556Y-38032941D01*
X112067223Y-38103448D01*
X112092568Y-38166787D01*
X112090753Y-38225307D01*
X112082107Y-38278648D01*
X112082107Y-38306046D01*
X112084986Y-38324788D01*
X112135445Y-38415619D01*
X112155497Y-38490906D01*
X112167258Y-38537962D01*
X112167258Y-38643830D01*
X112184373Y-38739013D01*
X112179697Y-39030804D01*
X112213485Y-39170279D01*
X112234059Y-39252590D01*
X112246221Y-39346127D01*
X112245460Y-39395603D01*
X112260426Y-39423772D01*
X112300313Y-39524544D01*
X112319211Y-39610619D01*
X112314446Y-39858167D01*
X112321993Y-39879132D01*
X112328703Y-39895067D01*
X112344632Y-39905132D01*
X112381537Y-39910159D01*
X112463728Y-39926935D01*
X112516567Y-39942870D01*
X112583660Y-39943711D01*
X112732108Y-39924421D01*
X112939851Y-39924472D01*
X113026764Y-39936111D01*
X113124538Y-39967930D01*
X113185841Y-39991982D01*
X113294285Y-40042192D01*
X113518637Y-40042203D01*
X113573393Y-40053291D01*
X113630217Y-40062303D01*
X113676657Y-40089332D01*
X113718931Y-40117742D01*
X113749428Y-40155169D01*
X113768828Y-40182201D01*
X113851644Y-40310782D01*
X113876837Y-40347010D01*
X114020145Y-40548574D01*
X114031163Y-40573770D01*
X114135673Y-40849246D01*
X114159987Y-40966733D01*
X114179257Y-41708500D01*
X114194488Y-42363309D01*
X114047351Y-43358837D01*
X114000034Y-43746217D01*
X113886834Y-44314249D01*
X113879823Y-44355969D01*
X113853886Y-44485073D01*
X113835953Y-44636833D01*
X113825038Y-44681181D01*
X113806757Y-44758124D01*
X113789222Y-44799679D01*
X113761902Y-44906477D01*
X113734586Y-45010790D01*
X113597445Y-45411577D01*
X113573399Y-45465224D01*
X113541702Y-45541912D01*
X113530726Y-45567193D01*
X113502103Y-45625868D01*
X113470616Y-45669760D01*
X113444399Y-45724341D01*
X113423976Y-45758075D01*
X113393647Y-45804801D01*
X113372109Y-45853653D01*
X113359970Y-45884276D01*
X113343870Y-45910933D01*
X113316940Y-45935480D01*
X113239864Y-45973416D01*
X113177281Y-45988067D01*
X113130682Y-46002375D01*
X113104721Y-46018020D01*
X113080756Y-46037324D01*
X113057198Y-46050052D01*
X113046845Y-46054516D01*
X113024795Y-46057654D01*
X113008158Y-46061835D01*
X112977751Y-46073600D01*
X112962538Y-46083744D01*
X112939532Y-46097694D01*
X112936088Y-46105127D01*
X112903310Y-46119699D01*
X112528176Y-46117875D01*
X112430322Y-46101555D01*
X112372040Y-46077078D01*
X112257806Y-46048517D01*
X112170385Y-46043274D01*
X112047996Y-46019953D01*
X111751302Y-45950076D01*
X111386298Y-45897098D01*
X110763101Y-45802920D01*
X110395073Y-45765460D01*
X110290091Y-45750802D01*
X110190724Y-45738312D01*
X110140165Y-45726833D01*
X110099034Y-45720812D01*
X110053869Y-45728093D01*
X109999515Y-45747231D01*
X109935963Y-45774407D01*
X109853961Y-45799157D01*
X109818262Y-45807210D01*
X109778004Y-45808818D01*
X109662518Y-45797319D01*
X109617633Y-45790961D01*
X109545726Y-45779443D01*
X109481376Y-45759176D01*
X109396084Y-45727231D01*
X109369137Y-45711062D01*
X109316323Y-45698670D01*
X109236275Y-45673796D01*
X109170997Y-45660001D01*
X109123295Y-45643542D01*
X109103279Y-45632599D01*
X109078377Y-45618404D01*
X109013664Y-45619098D01*
X108984099Y-45609556D01*
X108959239Y-45602348D01*
X108935881Y-45584226D01*
X108896788Y-45561825D01*
X108842920Y-45538465D01*
X108783332Y-45512252D01*
X108726603Y-45485549D01*
X108671344Y-45456535D01*
X108649129Y-45442963D01*
X108609330Y-45416122D01*
X108580332Y-45399148D01*
X108535285Y-45381867D01*
X108490748Y-45352841D01*
X108431924Y-45329967D01*
X108378450Y-45303818D01*
X108331968Y-45289349D01*
X108241982Y-45273404D01*
X108190639Y-45249086D01*
X108149483Y-45240521D01*
X108089751Y-45220907D01*
X108037765Y-45193098D01*
X107985789Y-45170755D01*
X107896398Y-45125606D01*
X107769304Y-45058205D01*
X107720159Y-45035030D01*
X107692071Y-45029415D01*
X107630983Y-44998525D01*
X107488595Y-44914823D01*
X107419486Y-44866897D01*
X107393255Y-44847229D01*
X107360468Y-44827555D01*
X107331211Y-44815444D01*
X107294389Y-44801824D01*
X107255544Y-44782659D01*
X107209161Y-44751187D01*
X107178955Y-44733732D01*
X107151884Y-44724781D01*
X107104676Y-44717178D01*
X107071344Y-44707784D01*
X106978150Y-44667170D01*
X106935771Y-44643760D01*
X106869052Y-44618241D01*
X106797647Y-44605132D01*
X106733234Y-44606966D01*
X106591466Y-44590248D01*
X106517617Y-44590248D01*
X106500910Y-44599952D01*
X106485816Y-44630144D01*
X106486039Y-44743446D01*
X106486039Y-44840358D01*
X106497148Y-44894054D01*
X106491559Y-44955283D01*
X106482963Y-44982812D01*
X106474357Y-45003458D01*
X106459216Y-45023068D01*
X106445448Y-45038898D01*
X106401442Y-45064896D01*
X106346487Y-45078250D01*
X106263898Y-45078870D01*
X106158903Y-45078684D01*
X106112544Y-45090243D01*
X106065431Y-45104322D01*
X106045451Y-45112295D01*
X106027977Y-45122447D01*
X106020222Y-45127363D01*
X105962937Y-45180468D01*
X105920847Y-45230008D01*
X105914401Y-45243573D01*
X105885381Y-45287104D01*
X105840603Y-45338814D01*
X105777048Y-45389099D01*
X105714050Y-45428336D01*
X105639534Y-45441847D01*
X105575032Y-45448397D01*
X105528169Y-45464020D01*
X105459124Y-45503829D01*
X105386558Y-45566320D01*
X105333431Y-45602205D01*
X105290266Y-45637426D01*
X105245113Y-45679108D01*
X105207406Y-45727731D01*
X105143070Y-45808703D01*
X105125639Y-45843142D01*
X105119966Y-45882463D01*
X105120978Y-45970073D01*
X105120978Y-46052146D01*
X105119564Y-46090353D01*
X105070757Y-46263748D01*
X105054634Y-46282550D01*
X105004597Y-46342672D01*
X105001574Y-46389684D01*
X104990450Y-46436855D01*
X104977244Y-46454029D01*
X104877039Y-46560033D01*
X104806504Y-46625466D01*
X104755529Y-46671540D01*
X104735922Y-46698983D01*
X104707988Y-46797987D01*
X104670420Y-46929822D01*
X104650991Y-46986751D01*
X104638384Y-47044362D01*
X104615049Y-47122877D01*
X104602147Y-47168501D01*
X104595233Y-47184171D01*
X104574488Y-47201225D01*
X104553289Y-47209984D01*
X104521486Y-47217818D01*
X104498908Y-47233030D01*
X104468204Y-47289857D01*
X104449579Y-47376400D01*
X104449579Y-47442127D01*
X104422188Y-47519907D01*
X104399188Y-47582348D01*
X104375471Y-47704844D01*
X104369875Y-47750486D01*
X104356408Y-47798667D01*
X104297098Y-47867134D01*
X104184462Y-47990302D01*
X104145611Y-48017100D01*
X103995904Y-48186038D01*
X103885707Y-48301606D01*
X103707557Y-48450724D01*
X103602368Y-48517087D01*
X103488701Y-48566505D01*
X103314930Y-48653719D01*
X103189361Y-48705821D01*
X103097141Y-48741576D01*
X103003761Y-48768025D01*
X102929465Y-48768025D01*
X102832877Y-48783820D01*
X102726065Y-48804245D01*
X102646198Y-48832114D01*
X102545893Y-48861828D01*
X102437110Y-48866215D01*
X102350337Y-48885128D01*
X102195919Y-48884269D01*
X102076965Y-48882005D01*
X101829070Y-48854875D01*
X101781282Y-48845527D01*
X101630623Y-48812796D01*
X101569838Y-48775912D01*
X101508475Y-48749811D01*
X101430473Y-48736502D01*
X101385005Y-48744636D01*
X101332133Y-48750915D01*
X101331767Y-48750915D01*
X101322053Y-48785846D01*
X101310014Y-48801663D01*
X101285574Y-48819186D01*
X101204200Y-48840450D01*
X100985662Y-48885090D01*
X100820745Y-48904918D01*
X100715730Y-48932242D01*
X100554922Y-48974783D01*
X100517922Y-48973934D01*
X100470692Y-48946687D01*
X100442590Y-48936331D01*
X100329882Y-48936331D01*
X100253223Y-48950189D01*
X100194260Y-48951584D01*
X100136694Y-48947845D01*
X100110480Y-48938483D01*
X100085676Y-48916019D01*
X100058528Y-48893558D01*
X100015937Y-48853772D01*
X99956673Y-48784559D01*
X99886149Y-48702969D01*
X99837745Y-48645576D01*
X99788650Y-48611009D01*
X99754078Y-48606860D01*
X99717432Y-48595796D01*
X99687665Y-48581098D01*
X99658436Y-48561163D01*
X99571709Y-48561621D01*
X99447872Y-48548173D01*
X99302280Y-48513914D01*
X99198787Y-48487747D01*
X99094710Y-48452061D01*
X99009653Y-48421726D01*
X98986458Y-48412212D01*
X98890879Y-48411737D01*
X98825090Y-48429535D01*
X98724457Y-48464370D01*
X98654018Y-48477529D01*
X98573265Y-48475401D01*
X98517154Y-48463668D01*
X98462832Y-48447857D01*
X98401868Y-48425059D01*
X98266539Y-48359674D01*
X98129692Y-48294291D01*
X98030853Y-48233468D01*
X97939621Y-48168087D01*
X97834700Y-48102703D01*
X97772360Y-48067725D01*
X97704442Y-48043071D01*
X97613274Y-48043968D01*
X97518541Y-48059756D01*
X97433372Y-48054655D01*
X97105587Y-47995174D01*
X96942131Y-47950498D01*
X96804422Y-47907928D01*
X96509816Y-47796654D01*
X96303107Y-47710460D01*
X96091289Y-47628658D01*
X95874872Y-47562734D01*
X95732491Y-47506356D01*
X95473951Y-47429422D01*
X95344167Y-47390042D01*
X95200161Y-47342583D01*
X95133989Y-47321843D01*
X95001122Y-47282492D01*
X94912691Y-47283593D01*
X94860518Y-47300066D01*
X94778685Y-47335214D01*
X94598700Y-47400032D01*
X94433532Y-47449392D01*
X94333410Y-47472870D01*
X94198011Y-47495214D01*
X94153669Y-47506073D01*
X93961057Y-47506911D01*
X93896902Y-47498468D01*
X93787722Y-47484957D01*
X93652166Y-47451340D01*
X93535202Y-47412882D01*
X93425186Y-47367494D01*
X93160293Y-47242049D01*
X93080862Y-47201535D01*
X92843874Y-47083153D01*
X92721827Y-47016367D01*
X92611797Y-46959719D01*
X92579431Y-46939374D01*
X92521873Y-46915102D01*
X92348297Y-46889922D01*
X92235622Y-46880253D01*
X92170281Y-46871424D01*
X91959564Y-46828819D01*
X91823324Y-46809596D01*
X91683151Y-46778593D01*
X91633851Y-46776786D01*
X91523360Y-46750045D01*
X91377709Y-46734132D01*
X91302059Y-46730247D01*
X91239252Y-46740954D01*
X91055482Y-46795435D01*
X90842529Y-46851088D01*
X90741482Y-46881786D01*
X90697563Y-46879850D01*
X90676576Y-46861967D01*
X90680437Y-39722793D01*
X104127318Y-39722793D01*
X104127318Y-39750933D01*
X104148800Y-39806993D01*
X104160385Y-39866564D01*
X104161109Y-40028956D01*
X104173091Y-40061464D01*
X104198758Y-40110230D01*
X104262892Y-40175251D01*
X104294726Y-40223011D01*
X104309483Y-40245527D01*
X104374692Y-40318345D01*
X104463813Y-40395510D01*
X104850405Y-40396663D01*
X104967350Y-40414103D01*
X105006188Y-40412750D01*
X105143283Y-40390594D01*
X105242980Y-40379519D01*
X105338535Y-40379519D01*
X105384231Y-40361512D01*
X105445160Y-40342128D01*
X105519939Y-40329665D01*
X105690267Y-40328276D01*
X105932720Y-40360013D01*
X106056277Y-40382340D01*
X106152297Y-40397230D01*
X106183559Y-40397230D01*
X106232686Y-40348106D01*
X106255010Y-40308658D01*
X106287022Y-40228270D01*
X106313024Y-40142054D01*
X106340893Y-40024371D01*
X106363608Y-39889131D01*
X106374283Y-39746937D01*
X106381759Y-39696358D01*
X106379457Y-39606257D01*
X106363678Y-39580319D01*
X106314809Y-39556469D01*
X106187992Y-39530877D01*
X106045460Y-39494111D01*
X105786226Y-39449135D01*
X105545930Y-39404151D01*
X105244829Y-39351285D01*
X105081290Y-39317589D01*
X104924695Y-39286862D01*
X104851289Y-39268188D01*
X104602584Y-39267032D01*
X104578346Y-39268492D01*
X104508380Y-39301412D01*
X104455882Y-39327398D01*
X104423347Y-39337488D01*
X104389389Y-39344636D01*
X104325053Y-39361838D01*
X104268230Y-39383320D01*
X104248723Y-39391012D01*
X104260640Y-39407466D01*
X104261676Y-39424573D01*
X104260688Y-39475810D01*
X104248984Y-39534603D01*
X104236745Y-39564657D01*
X104216876Y-39597919D01*
X104205170Y-39611209D01*
X104169679Y-39661344D01*
X104147903Y-39685735D01*
X104127318Y-39722793D01*
X90680437Y-39722793D01*
X90681229Y-38258246D01*
X103731155Y-38258246D01*
X103739937Y-38301481D01*
X103759374Y-38331967D01*
X103778806Y-38357119D01*
X103791000Y-38384938D01*
X103789567Y-38530012D01*
X103828276Y-38582079D01*
X103951926Y-38698652D01*
X104023100Y-38760747D01*
X104076182Y-38825353D01*
X104098507Y-38864813D01*
X104106876Y-38905874D01*
X104106876Y-38939734D01*
X104115577Y-38948439D01*
X104143879Y-38980330D01*
X104167339Y-39027595D01*
X104190113Y-39066361D01*
X104207798Y-39081316D01*
X104224800Y-39090153D01*
X104248935Y-39080632D01*
X104282256Y-39055132D01*
X104335665Y-39019578D01*
X104392099Y-38983329D01*
X104429041Y-38961098D01*
X104466123Y-38927322D01*
X104480459Y-38893879D01*
X104501013Y-38870935D01*
X104555078Y-38845610D01*
X104631222Y-38830383D01*
X104929854Y-38829503D01*
X104943886Y-38836525D01*
X104957918Y-38862245D01*
X104987152Y-38916031D01*
X105011924Y-38936977D01*
X105164206Y-38952203D01*
X105346941Y-38982665D01*
X105483995Y-38982665D01*
X105681963Y-39013121D01*
X105819010Y-39013121D01*
X106047435Y-39043575D01*
X106336431Y-39080771D01*
X106415311Y-39088140D01*
X106500256Y-39104606D01*
X106494968Y-39126577D01*
X106500259Y-39104614D01*
X106837348Y-39177500D01*
X107392491Y-39304831D01*
X107552619Y-39334821D01*
X107943999Y-39336829D01*
X108037458Y-39320037D01*
X108141681Y-39280800D01*
X108240252Y-39243185D01*
X108346602Y-39206871D01*
X108543743Y-39167964D01*
X108783680Y-39166664D01*
X108851128Y-39173150D01*
X108955069Y-39187192D01*
X109004639Y-39199343D01*
X109045851Y-39209608D01*
X109063702Y-39198775D01*
X109072578Y-39190130D01*
X109119262Y-39067039D01*
X109136836Y-38987576D01*
X109146930Y-38884986D01*
X109145567Y-38817682D01*
X109139654Y-38765829D01*
X109134463Y-38716838D01*
X109142845Y-38690211D01*
X109151231Y-38673942D01*
X109184260Y-38648301D01*
X109224196Y-38610335D01*
X109326316Y-38524177D01*
X109359429Y-38465154D01*
X109388217Y-38427720D01*
X109467398Y-38345665D01*
X109470275Y-38318313D01*
X109478914Y-38244894D01*
X109501743Y-38149956D01*
X109500926Y-38009111D01*
X109517645Y-37856541D01*
X109517645Y-37750182D01*
X109509825Y-37689185D01*
X109491057Y-37653209D01*
X109462903Y-37629748D01*
X109425365Y-37621926D01*
X109392519Y-37598461D01*
X109354978Y-37596898D01*
X109309621Y-37587521D01*
X109262694Y-37567177D01*
X109228285Y-37542154D01*
X109203262Y-37518696D01*
X109189180Y-37481157D01*
X109167286Y-37413898D01*
X109146956Y-37346640D01*
X109107245Y-37260059D01*
X109147027Y-37347086D01*
X109123889Y-37347230D01*
X109105591Y-37332114D01*
X109078539Y-37319389D01*
X109044329Y-37296316D01*
X109015687Y-37304271D01*
X108969543Y-37320183D01*
X108905896Y-37321778D01*
X108851003Y-37312224D01*
X108806451Y-37293930D01*
X108730868Y-37254151D01*
X108604505Y-37237799D01*
X108403665Y-37217712D01*
X108287385Y-37217712D01*
X108180626Y-37245199D01*
X108100291Y-37264227D01*
X108045322Y-37277971D01*
X107955734Y-37331825D01*
X107830882Y-37388718D01*
X107753442Y-37426650D01*
X107639656Y-37510409D01*
X107506902Y-37589429D01*
X107361512Y-37658963D01*
X107192415Y-37723758D01*
X106991708Y-37772753D01*
X106817796Y-37828532D01*
X106656462Y-37869432D01*
X106304263Y-37946689D01*
X105717363Y-38021994D01*
X105583254Y-38019429D01*
X105008165Y-37986841D01*
X104929280Y-37987387D01*
X104557351Y-38021228D01*
X104511372Y-38023302D01*
X104460547Y-38047850D01*
X104413837Y-38084007D01*
X104381273Y-38096704D01*
X104328283Y-38096704D01*
X104286875Y-38081246D01*
X104251004Y-38059720D01*
X104222298Y-38027152D01*
X104198562Y-37996240D01*
X104158817Y-37978024D01*
X104088164Y-37976367D01*
X104017553Y-37955205D01*
X103922412Y-37933119D01*
X103859552Y-37918392D01*
X103808577Y-37919527D01*
X103786496Y-37923492D01*
X103766679Y-37945580D01*
X103751384Y-37977856D01*
X103732757Y-38068970D01*
X103731155Y-38258246D01*
X90681229Y-38258246D01*
X90682245Y-36378648D01*
X90700377Y-36360861D01*
X90727832Y-36353563D01*
X90754935Y-36353563D01*
X90820270Y-36363295D01*
X90906118Y-36386235D01*
X91335850Y-36385255D01*
X91551518Y-36403748D01*
X91973536Y-36404649D01*
X93370265Y-36496656D01*
X93545979Y-36555606D01*
X93826570Y-36562195D01*
X93886597Y-36601208D01*
X93929362Y-36645473D01*
X93975885Y-36672487D01*
X94173111Y-36672988D01*
X94232880Y-36627595D01*
X94284326Y-36598086D01*
X94372847Y-36597333D01*
X94456826Y-36615493D01*
X94572363Y-36614222D01*
X94786039Y-36707413D01*
X94859461Y-36709292D01*
X95100736Y-36682441D01*
X95926442Y-36790715D01*
X96012807Y-36790715D01*
X96289272Y-36824740D01*
X96411780Y-36824740D01*
X96488863Y-36808224D01*
X96581092Y-36801341D01*
X96638899Y-36809609D01*
X96702223Y-36821985D01*
X96768292Y-36850895D01*
X96838493Y-36885307D01*
X96901813Y-36911465D01*
X97647973Y-36932916D01*
X97713964Y-36933888D01*
X97769679Y-36883058D01*
X97824177Y-36798025D01*
X97839903Y-36770803D01*
X97859258Y-36716364D01*
X97873169Y-36677661D01*
X97885266Y-36661332D01*
X97902807Y-36649840D01*
X97941202Y-36650458D01*
X98014085Y-36697477D01*
X98125757Y-36698656D01*
X98289930Y-36754151D01*
X98417978Y-36778635D01*
X98417662Y-36724023D01*
X98401875Y-36629296D01*
X98374060Y-36491583D01*
X98298425Y-36164399D01*
X98260855Y-35364058D01*
X98385502Y-33362089D01*
X98595761Y-32415760D01*
X98804847Y-31814616D01*
X98934462Y-31421417D01*
X99099965Y-31035017D01*
X99198477Y-30798584D01*
X99346731Y-30508563D01*
X99441910Y-30337282D01*
X99467355Y-30284271D01*
X99561753Y-30194717D01*
X99673092Y-30126935D01*
X99757810Y-30054327D01*
X99791697Y-29993814D01*
X99830428Y-29926041D01*
X99884844Y-29842342D01*
X99944404Y-29780134D01*
X100007932Y-29719251D01*
X100078077Y-29631903D01*
X100153520Y-29535285D01*
X100201171Y-29471753D01*
X100301138Y-29373036D01*
X100340863Y-29339271D01*
X100382572Y-29311464D01*
X100442154Y-29284985D01*
X100495783Y-29267770D01*
X100567024Y-29253464D01*
X100623964Y-29208179D01*
X100677608Y-29160205D01*
X100731322Y-29116980D01*
X100800982Y-29071238D01*
X100880037Y-29045631D01*
X101054299Y-29026330D01*
X101162827Y-29025777D01*
X101332832Y-29050788D01*
G36*
X101332832Y-29050788D02*
G01*
X101460678Y-29051202D01*
X101791789Y-29084406D01*
X102122511Y-29135492D01*
X102301326Y-29160400D01*
X102429251Y-29178964D01*
X102762005Y-29226516D01*
X103024660Y-29279402D01*
X103163912Y-29311579D01*
X103524763Y-29347196D01*
X103693417Y-29360273D01*
X104003193Y-29478678D01*
X104082223Y-29497798D01*
X104237609Y-29528878D01*
X104389427Y-29566066D01*
X104465254Y-29573369D01*
X104704809Y-29564726D01*
X104723328Y-29570947D01*
X104753290Y-29593416D01*
X104805778Y-29639378D01*
X104843766Y-29676776D01*
X104907937Y-29708725D01*
X104929168Y-29709344D01*
X105032075Y-29692629D01*
X105083035Y-29690988D01*
X105107247Y-29697254D01*
X105115375Y-29701004D01*
X105128813Y-29713037D01*
X105147732Y-29741584D01*
X105166099Y-29777083D01*
X105173548Y-29798184D01*
X105189428Y-29811520D01*
X105370052Y-29905143D01*
X105395735Y-29915916D01*
X105413137Y-29928347D01*
X105535697Y-30097341D01*
X105588809Y-30151562D01*
X105629748Y-30180331D01*
X105667368Y-30193600D01*
X105719367Y-30223479D01*
X105762526Y-30253358D01*
X105930334Y-30413945D01*
X106077334Y-30547664D01*
X106310345Y-30785407D01*
X106409837Y-30890296D01*
X106562252Y-31085402D01*
X106702546Y-31296031D01*
X106857625Y-31457978D01*
X106912621Y-31505081D01*
X106935880Y-31545270D01*
X106998295Y-31621872D01*
X107067230Y-31675014D01*
X107103981Y-31702849D01*
X107185093Y-31777658D01*
X107239428Y-31815462D01*
X107357358Y-31933928D01*
X107398735Y-31974500D01*
X107440933Y-32002496D01*
X107457157Y-32016289D01*
X107475826Y-32024406D01*
X107589140Y-32043744D01*
X107711981Y-32059337D01*
X107827435Y-32086650D01*
X107887546Y-32100575D01*
X107916971Y-32108801D01*
X107934377Y-32120194D01*
X107946080Y-32128102D01*
X107982201Y-32177602D01*
X108020911Y-32228343D01*
X108094570Y-32298245D01*
X108140056Y-32324553D01*
X108157339Y-32342217D01*
X108207839Y-32451158D01*
X108283960Y-32522917D01*
X108469731Y-32675662D01*
X108498742Y-32706228D01*
X108556246Y-32766064D01*
X108573465Y-32983736D01*
X108522842Y-33032226D01*
X108444998Y-33122650D01*
X108433610Y-33134255D01*
X108408518Y-33176389D01*
X108373474Y-33223524D01*
X108337815Y-33285161D01*
X108339027Y-33338339D01*
X108420608Y-33387898D01*
X108557191Y-33486629D01*
X108670829Y-33597381D01*
X108776760Y-33675387D01*
X108903460Y-33743301D01*
X109264236Y-33826772D01*
X109334762Y-33827797D01*
X109360829Y-33801735D01*
X109366962Y-33763403D01*
X109381778Y-33706165D01*
X109409716Y-33639791D01*
X109452030Y-33574688D01*
X109551299Y-33449384D01*
X109701570Y-33335815D01*
X109751450Y-33305876D01*
X109886143Y-33255991D01*
X109972817Y-33227309D01*
X110067351Y-33203568D01*
X110167705Y-33202696D01*
X110192134Y-33218401D01*
X110224417Y-33251563D01*
X110259326Y-33270756D01*
X110574325Y-33270756D01*
X110599630Y-33257672D01*
X110626683Y-33247198D01*
X110673184Y-33250515D01*
X110729761Y-33260019D01*
X110798425Y-33280314D01*
X110950132Y-33330615D01*
X111036510Y-33374034D01*
X111163984Y-33465554D01*
X111304147Y-33612801D01*
X111352017Y-33691787D01*
X111389521Y-33771583D01*
X111401490Y-33841002D01*
X111401490Y-33960685D01*
X111377283Y-34059346D01*
X111365758Y-34094915D01*
X111364255Y-34167059D01*
X111377837Y-34187725D01*
X111416598Y-34214524D01*
X111442256Y-34228778D01*
X111450238Y-34296058D01*
X111443668Y-34489431D01*
X111425262Y-34525699D01*
X111417140Y-34597160D01*
X107707301Y-35571557D01*
X107693983Y-35563866D01*
X107678689Y-35561761D01*
X107604669Y-35562129D01*
X107539244Y-35547412D01*
X107508437Y-35532414D01*
X107347338Y-35427450D01*
X107219750Y-35344618D01*
X107102798Y-35254755D01*
X106980954Y-35196106D01*
X106861934Y-35135796D01*
X106768734Y-35078142D01*
X106678405Y-35022322D01*
X106637159Y-34992267D01*
X106528598Y-34922868D01*
X106415485Y-34873557D01*
X106324607Y-34827156D01*
X106272195Y-34788719D01*
X106187993Y-34739676D01*
X106106576Y-34686475D01*
X105968073Y-34685290D01*
X105847623Y-34665407D01*
X105759274Y-34641224D01*
X105666813Y-34611989D01*
X105610378Y-34583769D01*
X105550639Y-34555506D01*
X105476129Y-34534307D01*
X105400977Y-34525312D01*
X105255364Y-34494944D01*
X105225470Y-34488335D01*
X105138337Y-34459537D01*
X105063760Y-34427085D01*
X104975027Y-34367662D01*
X104792692Y-34229278D01*
X104754433Y-34206486D01*
X104680233Y-34142125D01*
X104630174Y-34110036D01*
X104599375Y-34083083D01*
X104518519Y-34004799D01*
X104469740Y-33966291D01*
X104397868Y-33904684D01*
X104342683Y-33862327D01*
X104204065Y-33866184D01*
X104011820Y-33892801D01*
X103912560Y-33909815D01*
X103852432Y-33910385D01*
X103737298Y-33927401D01*
X103552022Y-33927493D01*
X103434890Y-33913717D01*
X103327659Y-33893701D01*
X103099470Y-33894079D01*
X103098356Y-33943526D01*
X103109290Y-33983638D01*
X103138463Y-34048226D01*
X103164780Y-34122286D01*
X103211009Y-34247535D01*
X103231241Y-34335048D01*
X103232318Y-34407216D01*
X103199775Y-34566504D01*
X103200488Y-35044092D01*
X103190946Y-35121539D01*
X103131873Y-35225082D01*
X103065691Y-35615566D01*
X103065691Y-35722835D01*
X103144158Y-35794349D01*
X103213679Y-35875798D01*
X103245462Y-35923469D01*
X103302372Y-36045743D01*
X103334076Y-36087857D01*
X103349689Y-36145578D01*
X103350631Y-36167352D01*
X103341468Y-36208958D01*
X103318022Y-36235748D01*
X103289003Y-36267005D01*
X103238757Y-36317248D01*
X103213086Y-36387579D01*
X103195215Y-36457915D01*
X103177861Y-36498236D01*
X103148146Y-36529933D01*
X103130974Y-36556342D01*
X103128990Y-36576818D01*
X103144842Y-36607853D01*
X103165319Y-36634922D01*
X103268692Y-36773331D01*
X103342478Y-36862030D01*
X103428821Y-36956221D01*
X103488828Y-37036495D01*
X103582160Y-37124862D01*
X103619889Y-37175498D01*
X103657622Y-37238050D01*
X103707269Y-37284717D01*
X103726863Y-37362568D01*
X103727888Y-37398537D01*
X103739198Y-37427323D01*
X103758730Y-37503374D01*
X103758730Y-37548598D01*
X103831694Y-37542426D01*
X103876918Y-37535233D01*
X103943721Y-37535233D01*
X103985859Y-37539345D01*
X103987917Y-37553732D01*
X104000246Y-37577373D01*
X104004358Y-37598950D01*
X104040337Y-37651372D01*
X104113610Y-37677580D01*
X104190809Y-37700462D01*
X104288438Y-37725786D01*
X104461490Y-37725661D01*
X104499707Y-37713835D01*
X104595662Y-37678920D01*
X104723844Y-37648927D01*
X105081348Y-37606454D01*
X105517408Y-37550153D01*
X105759550Y-37518454D01*
X106037515Y-37456912D01*
X106155565Y-37419929D01*
X106209612Y-37405705D01*
X106348999Y-37400019D01*
X106568032Y-37350231D01*
X107235855Y-37214661D01*
X107479194Y-37156452D01*
X107783070Y-37092409D01*
X108112686Y-37036005D01*
X108668018Y-37037796D01*
X108836953Y-37000062D01*
X108831554Y-36985678D01*
X108829764Y-36971303D01*
X108847736Y-36964116D01*
X108959268Y-36960146D01*
X108963153Y-36940862D01*
X108958579Y-36929426D01*
X108879889Y-36853277D01*
X108785977Y-36777130D01*
X108694601Y-36728907D01*
X108641298Y-36706065D01*
X108580379Y-36652757D01*
X108519464Y-36601995D01*
X108433162Y-36495388D01*
X108325207Y-36331914D01*
X108260116Y-36293451D01*
X108171360Y-36228361D01*
X108100359Y-36178066D01*
X108011597Y-36086349D01*
X107958344Y-36006465D01*
X107899174Y-35867413D01*
X107844353Y-35784747D01*
X107768216Y-35647696D01*
X107707301Y-35571557D01*
X111417114Y-34597190D01*
X111441868Y-34626890D01*
X111611968Y-34815619D01*
X111673292Y-34878188D01*
X111727104Y-34934510D01*
X111767150Y-35005837D01*
X111804696Y-35099694D01*
X111824720Y-35226094D01*
X111895337Y-35457851D01*
X111910264Y-35571080D01*
X111910264Y-35643253D01*
X111959899Y-35894116D01*
X111975623Y-36000363D01*
X111978544Y-36163774D01*
X111996616Y-36251126D01*
X111993602Y-36353542D01*
X111975529Y-36431863D01*
X111945411Y-36537292D01*
X111959452Y-36784473D01*
X111940719Y-36908679D01*
X111918048Y-36992465D01*
X111862223Y-37088461D01*
X111841345Y-37131814D01*
X111858210Y-37216901D01*
X111857409Y-37317250D01*
X111832455Y-37442586D01*
X111819806Y-37482434D01*
X111804325Y-37507621D01*
X111742756Y-37578204D01*
X111676682Y-37662296D01*
X111676682Y-37783932D01*
X111739759Y-37785429D01*
X111799821Y-37795945D01*
X111826848Y-37825979D01*
X111862890Y-37850007D01*
X111902341Y-37944251D01*
X111930519Y-37973464D01*
X111950348Y-37988072D01*
X111979561Y-37999552D01*
X112007739Y-38012072D01*
X112027556Y-38032941D01*
X112067223Y-38103448D01*
X112092568Y-38166787D01*
X112090753Y-38225307D01*
X112082107Y-38278648D01*
X112082107Y-38306046D01*
X112084986Y-38324788D01*
X112135445Y-38415619D01*
X112155497Y-38490906D01*
X112167258Y-38537962D01*
X112167258Y-38643830D01*
X112184373Y-38739013D01*
X112179697Y-39030804D01*
X112213485Y-39170279D01*
X112234059Y-39252590D01*
X112246221Y-39346127D01*
X112245460Y-39395603D01*
X112260426Y-39423772D01*
X112300313Y-39524544D01*
X112319211Y-39610619D01*
X112314446Y-39858167D01*
X112321993Y-39879132D01*
X112328703Y-39895067D01*
X112344632Y-39905132D01*
X112381537Y-39910159D01*
X112463728Y-39926935D01*
X112516567Y-39942870D01*
X112583660Y-39943711D01*
X112732108Y-39924421D01*
X112939851Y-39924472D01*
X113026764Y-39936111D01*
X113124538Y-39967930D01*
X113185841Y-39991982D01*
X113294285Y-40042192D01*
X113518637Y-40042203D01*
X113573393Y-40053291D01*
X113630217Y-40062303D01*
X113676657Y-40089332D01*
X113718931Y-40117742D01*
X113749428Y-40155169D01*
X113768828Y-40182201D01*
X113851644Y-40310782D01*
X113876837Y-40347010D01*
X114020145Y-40548574D01*
X114031163Y-40573770D01*
X114135673Y-40849246D01*
X114159987Y-40966733D01*
X114179257Y-41708500D01*
X114194488Y-42363309D01*
X114047351Y-43358837D01*
X114000034Y-43746217D01*
X113886834Y-44314249D01*
X113879823Y-44355969D01*
X113853886Y-44485073D01*
X113835953Y-44636833D01*
X113825038Y-44681181D01*
X113806757Y-44758124D01*
X113789222Y-44799679D01*
X113761902Y-44906477D01*
X113734586Y-45010790D01*
X113597445Y-45411577D01*
X113573399Y-45465224D01*
X113541702Y-45541912D01*
X113530726Y-45567193D01*
X113502103Y-45625868D01*
X113470616Y-45669760D01*
X113444399Y-45724341D01*
X113423976Y-45758075D01*
X113393647Y-45804801D01*
X113372109Y-45853653D01*
X113359970Y-45884276D01*
X113343870Y-45910933D01*
X113316940Y-45935480D01*
X113239864Y-45973416D01*
X113177281Y-45988067D01*
X113130682Y-46002375D01*
X113104721Y-46018020D01*
X113080756Y-46037324D01*
X113057198Y-46050052D01*
X113046845Y-46054516D01*
X113024795Y-46057654D01*
X113008158Y-46061835D01*
X112977751Y-46073600D01*
X112962538Y-46083744D01*
X112939532Y-46097694D01*
X112936088Y-46105127D01*
X112903310Y-46119699D01*
X112528176Y-46117875D01*
X112430322Y-46101555D01*
X112372040Y-46077078D01*
X112257806Y-46048517D01*
X112170385Y-46043274D01*
X112047996Y-46019953D01*
X111751302Y-45950076D01*
X111386298Y-45897098D01*
X110763101Y-45802920D01*
X110395073Y-45765460D01*
X110290091Y-45750802D01*
X110190724Y-45738312D01*
X110140165Y-45726833D01*
X110099034Y-45720812D01*
X110053869Y-45728093D01*
X109999515Y-45747231D01*
X109935963Y-45774407D01*
X109853961Y-45799157D01*
X109818262Y-45807210D01*
X109778004Y-45808818D01*
X109662518Y-45797319D01*
X109617633Y-45790961D01*
X109545726Y-45779443D01*
X109481376Y-45759176D01*
X109396084Y-45727231D01*
X109369137Y-45711062D01*
X109316323Y-45698670D01*
X109236275Y-45673796D01*
X109170997Y-45660001D01*
X109123295Y-45643542D01*
X109103279Y-45632599D01*
X109078377Y-45618404D01*
X109013664Y-45619098D01*
X108984099Y-45609556D01*
X108959239Y-45602348D01*
X108935881Y-45584226D01*
X108896788Y-45561825D01*
X108842920Y-45538465D01*
X108783332Y-45512252D01*
X108726603Y-45485549D01*
X108671344Y-45456535D01*
X108649129Y-45442963D01*
X108609330Y-45416122D01*
X108580332Y-45399148D01*
X108535285Y-45381867D01*
X108490748Y-45352841D01*
X108431924Y-45329967D01*
X108378450Y-45303818D01*
X108331968Y-45289349D01*
X108241982Y-45273404D01*
X108190639Y-45249086D01*
X108149483Y-45240521D01*
X108089751Y-45220907D01*
X108037765Y-45193098D01*
X107985789Y-45170755D01*
X107896398Y-45125606D01*
X107769304Y-45058205D01*
X107720159Y-45035030D01*
X107692071Y-45029415D01*
X107630983Y-44998525D01*
X107488595Y-44914823D01*
X107419486Y-44866897D01*
X107393255Y-44847229D01*
X107360468Y-44827555D01*
X107331211Y-44815444D01*
X107294389Y-44801824D01*
X107255544Y-44782659D01*
X107209161Y-44751187D01*
X107178955Y-44733732D01*
X107151884Y-44724781D01*
X107104676Y-44717178D01*
X107071344Y-44707784D01*
X106978150Y-44667170D01*
X106935771Y-44643760D01*
X106869052Y-44618241D01*
X106797647Y-44605132D01*
X106733234Y-44606966D01*
X106591466Y-44590248D01*
X106517617Y-44590248D01*
X106500910Y-44599952D01*
X106485816Y-44630144D01*
X106486039Y-44743446D01*
X106486039Y-44840358D01*
X106497148Y-44894054D01*
X106491559Y-44955283D01*
X106482963Y-44982812D01*
X106474357Y-45003458D01*
X106459216Y-45023068D01*
X106445448Y-45038898D01*
X106401442Y-45064896D01*
X106346487Y-45078250D01*
X106263898Y-45078870D01*
X106158903Y-45078684D01*
X106112544Y-45090243D01*
X106065431Y-45104322D01*
X106045451Y-45112295D01*
X106027977Y-45122447D01*
X106020222Y-45127363D01*
X105962937Y-45180468D01*
X105920847Y-45230008D01*
X105914401Y-45243573D01*
X105885381Y-45287104D01*
X105840603Y-45338814D01*
X105777048Y-45389099D01*
X105714050Y-45428336D01*
X105639534Y-45441847D01*
X105575032Y-45448397D01*
X105528169Y-45464020D01*
X105459124Y-45503829D01*
X105386558Y-45566320D01*
X105333431Y-45602205D01*
X105290266Y-45637426D01*
X105245113Y-45679108D01*
X105207406Y-45727731D01*
X105143070Y-45808703D01*
X105125639Y-45843142D01*
X105119966Y-45882463D01*
X105120978Y-45970073D01*
X105120978Y-46052146D01*
X105119564Y-46090353D01*
X105070757Y-46263748D01*
X105054634Y-46282550D01*
X105004597Y-46342672D01*
X105001574Y-46389684D01*
X104990450Y-46436855D01*
X104977244Y-46454029D01*
X104877039Y-46560033D01*
X104806504Y-46625466D01*
X104755529Y-46671540D01*
X104735922Y-46698983D01*
X104707988Y-46797987D01*
X104670420Y-46929822D01*
X104650991Y-46986751D01*
X104638384Y-47044362D01*
X104615049Y-47122877D01*
X104602147Y-47168501D01*
X104595233Y-47184171D01*
X104574488Y-47201225D01*
X104553289Y-47209984D01*
X104521486Y-47217818D01*
X104498908Y-47233030D01*
X104468204Y-47289857D01*
X104449579Y-47376400D01*
X104449579Y-47442127D01*
X104422188Y-47519907D01*
X104399188Y-47582348D01*
X104375471Y-47704844D01*
X104369875Y-47750486D01*
X104356408Y-47798667D01*
X104297098Y-47867134D01*
X104184462Y-47990302D01*
X104145611Y-48017100D01*
X103995904Y-48186038D01*
X103885707Y-48301606D01*
X103707557Y-48450724D01*
X103602368Y-48517087D01*
X103488701Y-48566505D01*
X103314930Y-48653719D01*
X103189361Y-48705821D01*
X103097141Y-48741576D01*
X103003761Y-48768025D01*
X102929465Y-48768025D01*
X102832877Y-48783820D01*
X102726065Y-48804245D01*
X102646198Y-48832114D01*
X102545893Y-48861828D01*
X102437110Y-48866215D01*
X102350337Y-48885128D01*
X102195919Y-48884269D01*
X102076965Y-48882005D01*
X101829070Y-48854875D01*
X101781282Y-48845527D01*
X101630623Y-48812796D01*
X101569838Y-48775912D01*
X101508475Y-48749811D01*
X101430473Y-48736502D01*
X101385005Y-48744636D01*
X101332133Y-48750915D01*
X101331767Y-48750915D01*
X101322053Y-48785846D01*
X101310014Y-48801663D01*
X101285574Y-48819186D01*
X101204200Y-48840450D01*
X100985662Y-48885090D01*
X100820745Y-48904918D01*
X100715730Y-48932242D01*
X100554922Y-48974783D01*
X100517922Y-48973934D01*
X100470692Y-48946687D01*
X100442590Y-48936331D01*
X100329882Y-48936331D01*
X100253223Y-48950189D01*
X100194260Y-48951584D01*
X100136694Y-48947845D01*
X100110480Y-48938483D01*
X100085676Y-48916019D01*
X100058528Y-48893558D01*
X100015937Y-48853772D01*
X99956673Y-48784559D01*
X99886149Y-48702969D01*
X99837745Y-48645576D01*
X99788650Y-48611009D01*
X99754078Y-48606860D01*
X99717432Y-48595796D01*
X99687665Y-48581098D01*
X99658436Y-48561163D01*
X99571709Y-48561621D01*
X99447872Y-48548173D01*
X99302280Y-48513914D01*
X99198787Y-48487747D01*
X99094710Y-48452061D01*
X99009653Y-48421726D01*
X98986458Y-48412212D01*
X98890879Y-48411737D01*
X98825090Y-48429535D01*
X98724457Y-48464370D01*
X98654018Y-48477529D01*
X98573265Y-48475401D01*
X98517154Y-48463668D01*
X98462832Y-48447857D01*
X98401868Y-48425059D01*
X98266539Y-48359674D01*
X98129692Y-48294291D01*
X98030853Y-48233468D01*
X97939621Y-48168087D01*
X97834700Y-48102703D01*
X97772360Y-48067725D01*
X97704442Y-48043071D01*
X97613274Y-48043968D01*
X97518541Y-48059756D01*
X97433372Y-48054655D01*
X97105587Y-47995174D01*
X96942131Y-47950498D01*
X96804422Y-47907928D01*
X96509816Y-47796654D01*
X96303107Y-47710460D01*
X96091289Y-47628658D01*
X95874872Y-47562734D01*
X95732491Y-47506356D01*
X95473951Y-47429422D01*
X95344167Y-47390042D01*
X95200161Y-47342583D01*
X95133989Y-47321843D01*
X95001122Y-47282492D01*
X94912691Y-47283593D01*
X94860518Y-47300066D01*
X94778685Y-47335214D01*
X94598700Y-47400032D01*
X94433532Y-47449392D01*
X94333410Y-47472870D01*
X94198011Y-47495214D01*
X94153669Y-47506073D01*
X93961057Y-47506911D01*
X93896902Y-47498468D01*
X93787722Y-47484957D01*
X93652166Y-47451340D01*
X93535202Y-47412882D01*
X93425186Y-47367494D01*
X93160293Y-47242049D01*
X93080862Y-47201535D01*
X92843874Y-47083153D01*
X92721827Y-47016367D01*
X92611797Y-46959719D01*
X92579431Y-46939374D01*
X92521873Y-46915102D01*
X92348297Y-46889922D01*
X92235622Y-46880253D01*
X92170281Y-46871424D01*
X91959564Y-46828819D01*
X91823324Y-46809596D01*
X91683151Y-46778593D01*
X91633851Y-46776786D01*
X91523360Y-46750045D01*
X91377709Y-46734132D01*
X91302059Y-46730247D01*
X91239252Y-46740954D01*
X91055482Y-46795435D01*
X90842529Y-46851088D01*
X90741482Y-46881786D01*
X90697563Y-46879850D01*
X90676576Y-46861967D01*
X90680437Y-39722793D01*
X104127318Y-39722793D01*
X104127318Y-39750933D01*
X104148800Y-39806993D01*
X104160385Y-39866564D01*
X104161109Y-40028956D01*
X104173091Y-40061464D01*
X104198758Y-40110230D01*
X104262892Y-40175251D01*
X104294726Y-40223011D01*
X104309483Y-40245527D01*
X104374692Y-40318345D01*
X104463813Y-40395510D01*
X104850405Y-40396663D01*
X104967350Y-40414103D01*
X105006188Y-40412750D01*
X105143283Y-40390594D01*
X105242980Y-40379519D01*
X105338535Y-40379519D01*
X105384231Y-40361512D01*
X105445160Y-40342128D01*
X105519939Y-40329665D01*
X105690267Y-40328276D01*
X105932720Y-40360013D01*
X106056277Y-40382340D01*
X106152297Y-40397230D01*
X106183559Y-40397230D01*
X106232686Y-40348106D01*
X106255010Y-40308658D01*
X106287022Y-40228270D01*
X106313024Y-40142054D01*
X106340893Y-40024371D01*
X106363608Y-39889131D01*
X106374283Y-39746937D01*
X106381759Y-39696358D01*
X106379457Y-39606257D01*
X106363678Y-39580319D01*
X106314809Y-39556469D01*
X106187992Y-39530877D01*
X106045460Y-39494111D01*
X105786226Y-39449135D01*
X105545930Y-39404151D01*
X105244829Y-39351285D01*
X105081290Y-39317589D01*
X104924695Y-39286862D01*
X104851289Y-39268188D01*
X104602584Y-39267032D01*
X104578346Y-39268492D01*
X104508380Y-39301412D01*
X104455882Y-39327398D01*
X104423347Y-39337488D01*
X104389389Y-39344636D01*
X104325053Y-39361838D01*
X104268230Y-39383320D01*
X104248723Y-39391012D01*
X104260640Y-39407466D01*
X104261676Y-39424573D01*
X104260688Y-39475810D01*
X104248984Y-39534603D01*
X104236745Y-39564657D01*
X104216876Y-39597919D01*
X104205170Y-39611209D01*
X104169679Y-39661344D01*
X104147903Y-39685735D01*
X104127318Y-39722793D01*
X90680437Y-39722793D01*
X90681229Y-38258246D01*
X103731155Y-38258246D01*
X103739937Y-38301481D01*
X103759374Y-38331967D01*
X103778806Y-38357119D01*
X103791000Y-38384938D01*
X103789567Y-38530012D01*
X103828276Y-38582079D01*
X103951926Y-38698652D01*
X104023100Y-38760747D01*
X104076182Y-38825353D01*
X104098507Y-38864813D01*
X104106876Y-38905874D01*
X104106876Y-38939734D01*
X104115577Y-38948439D01*
X104143879Y-38980330D01*
X104167339Y-39027595D01*
X104190113Y-39066361D01*
X104207798Y-39081316D01*
X104224800Y-39090153D01*
X104248935Y-39080632D01*
X104282256Y-39055132D01*
X104335665Y-39019578D01*
X104392099Y-38983329D01*
X104429041Y-38961098D01*
X104466123Y-38927322D01*
X104480459Y-38893879D01*
X104501013Y-38870935D01*
X104555078Y-38845610D01*
X104631222Y-38830383D01*
X104929854Y-38829503D01*
X104943886Y-38836525D01*
X104957918Y-38862245D01*
X104987152Y-38916031D01*
X105011924Y-38936977D01*
X105164206Y-38952203D01*
X105346941Y-38982665D01*
X105483995Y-38982665D01*
X105681963Y-39013121D01*
X105819010Y-39013121D01*
X106047435Y-39043575D01*
X106336431Y-39080771D01*
X106415311Y-39088140D01*
X106500256Y-39104606D01*
X106494968Y-39126577D01*
X106500259Y-39104614D01*
X106837348Y-39177500D01*
X107392491Y-39304831D01*
X107552619Y-39334821D01*
X107943999Y-39336829D01*
X108037458Y-39320037D01*
X108141681Y-39280800D01*
X108240252Y-39243185D01*
X108346602Y-39206871D01*
X108543743Y-39167964D01*
X108783680Y-39166664D01*
X108851128Y-39173150D01*
X108955069Y-39187192D01*
X109004639Y-39199343D01*
X109045851Y-39209608D01*
X109063702Y-39198775D01*
X109072578Y-39190130D01*
X109119262Y-39067039D01*
X109136836Y-38987576D01*
X109146930Y-38884986D01*
X109145567Y-38817682D01*
X109139654Y-38765829D01*
X109134463Y-38716838D01*
X109142845Y-38690211D01*
X109151231Y-38673942D01*
X109184260Y-38648301D01*
X109224196Y-38610335D01*
X109326316Y-38524177D01*
X109359429Y-38465154D01*
X109388217Y-38427720D01*
X109467398Y-38345665D01*
X109470275Y-38318313D01*
X109478914Y-38244894D01*
X109501743Y-38149956D01*
X109500926Y-38009111D01*
X109517645Y-37856541D01*
X109517645Y-37750182D01*
X109509825Y-37689185D01*
X109491057Y-37653209D01*
X109462903Y-37629748D01*
X109425365Y-37621926D01*
X109392519Y-37598461D01*
X109354978Y-37596898D01*
X109309621Y-37587521D01*
X109262694Y-37567177D01*
X109228285Y-37542154D01*
X109203262Y-37518696D01*
X109189180Y-37481157D01*
X109167286Y-37413898D01*
X109146956Y-37346640D01*
X109107245Y-37260059D01*
X109147027Y-37347086D01*
X109123889Y-37347230D01*
X109105591Y-37332114D01*
X109078539Y-37319389D01*
X109044329Y-37296316D01*
X109015687Y-37304271D01*
X108969543Y-37320183D01*
X108905896Y-37321778D01*
X108851003Y-37312224D01*
X108806451Y-37293930D01*
X108730868Y-37254151D01*
X108604505Y-37237799D01*
X108403665Y-37217712D01*
X108287385Y-37217712D01*
X108180626Y-37245199D01*
X108100291Y-37264227D01*
X108045322Y-37277971D01*
X107955734Y-37331825D01*
X107830882Y-37388718D01*
X107753442Y-37426650D01*
X107639656Y-37510409D01*
X107506902Y-37589429D01*
X107361512Y-37658963D01*
X107192415Y-37723758D01*
X106991708Y-37772753D01*
X106817796Y-37828532D01*
X106656462Y-37869432D01*
X106304263Y-37946689D01*
X105717363Y-38021994D01*
X105583254Y-38019429D01*
X105008165Y-37986841D01*
X104929280Y-37987387D01*
X104557351Y-38021228D01*
X104511372Y-38023302D01*
X104460547Y-38047850D01*
X104413837Y-38084007D01*
X104381273Y-38096704D01*
X104328283Y-38096704D01*
X104286875Y-38081246D01*
X104251004Y-38059720D01*
X104222298Y-38027152D01*
X104198562Y-37996240D01*
X104158817Y-37978024D01*
X104088164Y-37976367D01*
X104017553Y-37955205D01*
X103922412Y-37933119D01*
X103859552Y-37918392D01*
X103808577Y-37919527D01*
X103786496Y-37923492D01*
X103766679Y-37945580D01*
X103751384Y-37977856D01*
X103732757Y-38068970D01*
X103731155Y-38258246D01*
X90681229Y-38258246D01*
X90682245Y-36378648D01*
X90700377Y-36360861D01*
X90727832Y-36353563D01*
X90754935Y-36353563D01*
X90820270Y-36363295D01*
X90906118Y-36386235D01*
X91335850Y-36385255D01*
X91551518Y-36403748D01*
X91973536Y-36404649D01*
X93370265Y-36496656D01*
X93545979Y-36555606D01*
X93826570Y-36562195D01*
X93886597Y-36601208D01*
X93929362Y-36645473D01*
X93975885Y-36672487D01*
X94173111Y-36672988D01*
X94232880Y-36627595D01*
X94284326Y-36598086D01*
X94372847Y-36597333D01*
X94456826Y-36615493D01*
X94572363Y-36614222D01*
X94786039Y-36707413D01*
X94859461Y-36709292D01*
X95100736Y-36682441D01*
X95926442Y-36790715D01*
X96012807Y-36790715D01*
X96289272Y-36824740D01*
X96411780Y-36824740D01*
X96488863Y-36808224D01*
X96581092Y-36801341D01*
X96638899Y-36809609D01*
X96702223Y-36821985D01*
X96768292Y-36850895D01*
X96838493Y-36885307D01*
X96901813Y-36911465D01*
X97647973Y-36932916D01*
X97713964Y-36933888D01*
X97769679Y-36883058D01*
X97824177Y-36798025D01*
X97839903Y-36770803D01*
X97859258Y-36716364D01*
X97873169Y-36677661D01*
X97885266Y-36661332D01*
X97902807Y-36649840D01*
X97941202Y-36650458D01*
X98014085Y-36697477D01*
X98125757Y-36698656D01*
X98289930Y-36754151D01*
X98417978Y-36778635D01*
X98417662Y-36724023D01*
X98401875Y-36629296D01*
X98374060Y-36491583D01*
X98298425Y-36164399D01*
X98260855Y-35364058D01*
X98385502Y-33362089D01*
X98595761Y-32415760D01*
X98804847Y-31814616D01*
X98934462Y-31421417D01*
X99099965Y-31035017D01*
X99198477Y-30798584D01*
X99346731Y-30508563D01*
X99441910Y-30337282D01*
X99467355Y-30284271D01*
X99561753Y-30194717D01*
X99673092Y-30126935D01*
X99757810Y-30054327D01*
X99791697Y-29993814D01*
X99830428Y-29926041D01*
X99884844Y-29842342D01*
X99944404Y-29780134D01*
X100007932Y-29719251D01*
X100078077Y-29631903D01*
X100153520Y-29535285D01*
X100201171Y-29471753D01*
X100301138Y-29373036D01*
X100340863Y-29339271D01*
X100382572Y-29311464D01*
X100442154Y-29284985D01*
X100495783Y-29267770D01*
X100567024Y-29253464D01*
X100623964Y-29208179D01*
X100677608Y-29160205D01*
X100731322Y-29116980D01*
X100800982Y-29071238D01*
X100880037Y-29045631D01*
X101054299Y-29026330D01*
X101162827Y-29025777D01*
X101332832Y-29050788D01*
G37*
D11*
X100470568Y-55047157D02*
X100919571Y-55047157D01*
X99976665Y-55361459D02*
X100470568Y-55047157D01*
X100470568Y-55047157D02*
X99976665Y-54732855D01*
X100919571Y-53924650D02*
X100919571Y-54463453D01*
X100919571Y-54194052D02*
X99976665Y-54194052D01*
X99976665Y-54194052D02*
X100111366Y-54283852D01*
X100111366Y-54283852D02*
X100201166Y-54373653D01*
X100201166Y-54373653D02*
X100246067Y-54463453D01*
X96553333Y-58499580D02*
X96505714Y-58547200D01*
X96505714Y-58547200D02*
X96362857Y-58594819D01*
X96362857Y-58594819D02*
X96267619Y-58594819D01*
X96267619Y-58594819D02*
X96124762Y-58547200D01*
X96124762Y-58547200D02*
X96029524Y-58451961D01*
X96029524Y-58451961D02*
X95981905Y-58356723D01*
X95981905Y-58356723D02*
X95934286Y-58166247D01*
X95934286Y-58166247D02*
X95934286Y-58023390D01*
X95934286Y-58023390D02*
X95981905Y-57832914D01*
X95981905Y-57832914D02*
X96029524Y-57737676D01*
X96029524Y-57737676D02*
X96124762Y-57642438D01*
X96124762Y-57642438D02*
X96267619Y-57594819D01*
X96267619Y-57594819D02*
X96362857Y-57594819D01*
X96362857Y-57594819D02*
X96505714Y-57642438D01*
X96505714Y-57642438D02*
X96553333Y-57690057D01*
X97124762Y-58023390D02*
X97029524Y-57975771D01*
X97029524Y-57975771D02*
X96981905Y-57928152D01*
X96981905Y-57928152D02*
X96934286Y-57832914D01*
X96934286Y-57832914D02*
X96934286Y-57785295D01*
X96934286Y-57785295D02*
X96981905Y-57690057D01*
X96981905Y-57690057D02*
X97029524Y-57642438D01*
X97029524Y-57642438D02*
X97124762Y-57594819D01*
X97124762Y-57594819D02*
X97315238Y-57594819D01*
X97315238Y-57594819D02*
X97410476Y-57642438D01*
X97410476Y-57642438D02*
X97458095Y-57690057D01*
X97458095Y-57690057D02*
X97505714Y-57785295D01*
X97505714Y-57785295D02*
X97505714Y-57832914D01*
X97505714Y-57832914D02*
X97458095Y-57928152D01*
X97458095Y-57928152D02*
X97410476Y-57975771D01*
X97410476Y-57975771D02*
X97315238Y-58023390D01*
X97315238Y-58023390D02*
X97124762Y-58023390D01*
X97124762Y-58023390D02*
X97029524Y-58071009D01*
X97029524Y-58071009D02*
X96981905Y-58118628D01*
X96981905Y-58118628D02*
X96934286Y-58213866D01*
X96934286Y-58213866D02*
X96934286Y-58404342D01*
X96934286Y-58404342D02*
X96981905Y-58499580D01*
X96981905Y-58499580D02*
X97029524Y-58547200D01*
X97029524Y-58547200D02*
X97124762Y-58594819D01*
X97124762Y-58594819D02*
X97315238Y-58594819D01*
X97315238Y-58594819D02*
X97410476Y-58547200D01*
X97410476Y-58547200D02*
X97458095Y-58499580D01*
X97458095Y-58499580D02*
X97505714Y-58404342D01*
X97505714Y-58404342D02*
X97505714Y-58213866D01*
X97505714Y-58213866D02*
X97458095Y-58118628D01*
X97458095Y-58118628D02*
X97410476Y-58071009D01*
X97410476Y-58071009D02*
X97315238Y-58023390D01*
X99720666Y-29723319D02*
X99720666Y-30437604D01*
X99720666Y-30437604D02*
X99673047Y-30580461D01*
X99673047Y-30580461D02*
X99577809Y-30675700D01*
X99577809Y-30675700D02*
X99434952Y-30723319D01*
X99434952Y-30723319D02*
X99339714Y-30723319D01*
X100149238Y-29818557D02*
X100196857Y-29770938D01*
X100196857Y-29770938D02*
X100292095Y-29723319D01*
X100292095Y-29723319D02*
X100530190Y-29723319D01*
X100530190Y-29723319D02*
X100625428Y-29770938D01*
X100625428Y-29770938D02*
X100673047Y-29818557D01*
X100673047Y-29818557D02*
X100720666Y-29913795D01*
X100720666Y-29913795D02*
X100720666Y-30009033D01*
X100720666Y-30009033D02*
X100673047Y-30151890D01*
X100673047Y-30151890D02*
X100101619Y-30723319D01*
X100101619Y-30723319D02*
X100720666Y-30723319D01*
X87769580Y-49918857D02*
X87817200Y-49966476D01*
X87817200Y-49966476D02*
X87864819Y-50109333D01*
X87864819Y-50109333D02*
X87864819Y-50204571D01*
X87864819Y-50204571D02*
X87817200Y-50347428D01*
X87817200Y-50347428D02*
X87721961Y-50442666D01*
X87721961Y-50442666D02*
X87626723Y-50490285D01*
X87626723Y-50490285D02*
X87436247Y-50537904D01*
X87436247Y-50537904D02*
X87293390Y-50537904D01*
X87293390Y-50537904D02*
X87102914Y-50490285D01*
X87102914Y-50490285D02*
X87007676Y-50442666D01*
X87007676Y-50442666D02*
X86912438Y-50347428D01*
X86912438Y-50347428D02*
X86864819Y-50204571D01*
X86864819Y-50204571D02*
X86864819Y-50109333D01*
X86864819Y-50109333D02*
X86912438Y-49966476D01*
X86912438Y-49966476D02*
X86960057Y-49918857D01*
X87864819Y-48966476D02*
X87864819Y-49537904D01*
X87864819Y-49252190D02*
X86864819Y-49252190D01*
X86864819Y-49252190D02*
X87007676Y-49347428D01*
X87007676Y-49347428D02*
X87102914Y-49442666D01*
X87102914Y-49442666D02*
X87150533Y-49537904D01*
X86864819Y-48347428D02*
X86864819Y-48252190D01*
X86864819Y-48252190D02*
X86912438Y-48156952D01*
X86912438Y-48156952D02*
X86960057Y-48109333D01*
X86960057Y-48109333D02*
X87055295Y-48061714D01*
X87055295Y-48061714D02*
X87245771Y-48014095D01*
X87245771Y-48014095D02*
X87483866Y-48014095D01*
X87483866Y-48014095D02*
X87674342Y-48061714D01*
X87674342Y-48061714D02*
X87769580Y-48109333D01*
X87769580Y-48109333D02*
X87817200Y-48156952D01*
X87817200Y-48156952D02*
X87864819Y-48252190D01*
X87864819Y-48252190D02*
X87864819Y-48347428D01*
X87864819Y-48347428D02*
X87817200Y-48442666D01*
X87817200Y-48442666D02*
X87769580Y-48490285D01*
X87769580Y-48490285D02*
X87674342Y-48537904D01*
X87674342Y-48537904D02*
X87483866Y-48585523D01*
X87483866Y-48585523D02*
X87245771Y-48585523D01*
X87245771Y-48585523D02*
X87055295Y-48537904D01*
X87055295Y-48537904D02*
X86960057Y-48490285D01*
X86960057Y-48490285D02*
X86912438Y-48442666D01*
X86912438Y-48442666D02*
X86864819Y-48347428D01*
X93289580Y-58840666D02*
X93337200Y-58888285D01*
X93337200Y-58888285D02*
X93384819Y-59031142D01*
X93384819Y-59031142D02*
X93384819Y-59126380D01*
X93384819Y-59126380D02*
X93337200Y-59269237D01*
X93337200Y-59269237D02*
X93241961Y-59364475D01*
X93241961Y-59364475D02*
X93146723Y-59412094D01*
X93146723Y-59412094D02*
X92956247Y-59459713D01*
X92956247Y-59459713D02*
X92813390Y-59459713D01*
X92813390Y-59459713D02*
X92622914Y-59412094D01*
X92622914Y-59412094D02*
X92527676Y-59364475D01*
X92527676Y-59364475D02*
X92432438Y-59269237D01*
X92432438Y-59269237D02*
X92384819Y-59126380D01*
X92384819Y-59126380D02*
X92384819Y-59031142D01*
X92384819Y-59031142D02*
X92432438Y-58888285D01*
X92432438Y-58888285D02*
X92480057Y-58840666D01*
X93384819Y-57888285D02*
X93384819Y-58459713D01*
X93384819Y-58173999D02*
X92384819Y-58173999D01*
X92384819Y-58173999D02*
X92527676Y-58269237D01*
X92527676Y-58269237D02*
X92622914Y-58364475D01*
X92622914Y-58364475D02*
X92670533Y-58459713D01*
X96909580Y-77497857D02*
X96957200Y-77545476D01*
X96957200Y-77545476D02*
X97004819Y-77688333D01*
X97004819Y-77688333D02*
X97004819Y-77783571D01*
X97004819Y-77783571D02*
X96957200Y-77926428D01*
X96957200Y-77926428D02*
X96861961Y-78021666D01*
X96861961Y-78021666D02*
X96766723Y-78069285D01*
X96766723Y-78069285D02*
X96576247Y-78116904D01*
X96576247Y-78116904D02*
X96433390Y-78116904D01*
X96433390Y-78116904D02*
X96242914Y-78069285D01*
X96242914Y-78069285D02*
X96147676Y-78021666D01*
X96147676Y-78021666D02*
X96052438Y-77926428D01*
X96052438Y-77926428D02*
X96004819Y-77783571D01*
X96004819Y-77783571D02*
X96004819Y-77688333D01*
X96004819Y-77688333D02*
X96052438Y-77545476D01*
X96052438Y-77545476D02*
X96100057Y-77497857D01*
X96100057Y-77116904D02*
X96052438Y-77069285D01*
X96052438Y-77069285D02*
X96004819Y-76974047D01*
X96004819Y-76974047D02*
X96004819Y-76735952D01*
X96004819Y-76735952D02*
X96052438Y-76640714D01*
X96052438Y-76640714D02*
X96100057Y-76593095D01*
X96100057Y-76593095D02*
X96195295Y-76545476D01*
X96195295Y-76545476D02*
X96290533Y-76545476D01*
X96290533Y-76545476D02*
X96433390Y-76593095D01*
X96433390Y-76593095D02*
X97004819Y-77164523D01*
X97004819Y-77164523D02*
X97004819Y-76545476D01*
X96004819Y-75926428D02*
X96004819Y-75831190D01*
X96004819Y-75831190D02*
X96052438Y-75735952D01*
X96052438Y-75735952D02*
X96100057Y-75688333D01*
X96100057Y-75688333D02*
X96195295Y-75640714D01*
X96195295Y-75640714D02*
X96385771Y-75593095D01*
X96385771Y-75593095D02*
X96623866Y-75593095D01*
X96623866Y-75593095D02*
X96814342Y-75640714D01*
X96814342Y-75640714D02*
X96909580Y-75688333D01*
X96909580Y-75688333D02*
X96957200Y-75735952D01*
X96957200Y-75735952D02*
X97004819Y-75831190D01*
X97004819Y-75831190D02*
X97004819Y-75926428D01*
X97004819Y-75926428D02*
X96957200Y-76021666D01*
X96957200Y-76021666D02*
X96909580Y-76069285D01*
X96909580Y-76069285D02*
X96814342Y-76116904D01*
X96814342Y-76116904D02*
X96623866Y-76164523D01*
X96623866Y-76164523D02*
X96385771Y-76164523D01*
X96385771Y-76164523D02*
X96195295Y-76116904D01*
X96195295Y-76116904D02*
X96100057Y-76069285D01*
X96100057Y-76069285D02*
X96052438Y-76021666D01*
X96052438Y-76021666D02*
X96004819Y-75926428D01*
X93260819Y-31472094D02*
X92260819Y-31472094D01*
X92260819Y-31472094D02*
X92260819Y-31233999D01*
X92260819Y-31233999D02*
X92308438Y-31091142D01*
X92308438Y-31091142D02*
X92403676Y-30995904D01*
X92403676Y-30995904D02*
X92498914Y-30948285D01*
X92498914Y-30948285D02*
X92689390Y-30900666D01*
X92689390Y-30900666D02*
X92832247Y-30900666D01*
X92832247Y-30900666D02*
X93022723Y-30948285D01*
X93022723Y-30948285D02*
X93117961Y-30995904D01*
X93117961Y-30995904D02*
X93213200Y-31091142D01*
X93213200Y-31091142D02*
X93260819Y-31233999D01*
X93260819Y-31233999D02*
X93260819Y-31472094D01*
X93260819Y-29948285D02*
X93260819Y-30519713D01*
X93260819Y-30233999D02*
X92260819Y-30233999D01*
X92260819Y-30233999D02*
X92403676Y-30329237D01*
X92403676Y-30329237D02*
X92498914Y-30424475D01*
X92498914Y-30424475D02*
X92546533Y-30519713D01*
X55257580Y-31818857D02*
X55305200Y-31866476D01*
X55305200Y-31866476D02*
X55352819Y-32009333D01*
X55352819Y-32009333D02*
X55352819Y-32104571D01*
X55352819Y-32104571D02*
X55305200Y-32247428D01*
X55305200Y-32247428D02*
X55209961Y-32342666D01*
X55209961Y-32342666D02*
X55114723Y-32390285D01*
X55114723Y-32390285D02*
X54924247Y-32437904D01*
X54924247Y-32437904D02*
X54781390Y-32437904D01*
X54781390Y-32437904D02*
X54590914Y-32390285D01*
X54590914Y-32390285D02*
X54495676Y-32342666D01*
X54495676Y-32342666D02*
X54400438Y-32247428D01*
X54400438Y-32247428D02*
X54352819Y-32104571D01*
X54352819Y-32104571D02*
X54352819Y-32009333D01*
X54352819Y-32009333D02*
X54400438Y-31866476D01*
X54400438Y-31866476D02*
X54448057Y-31818857D01*
X54448057Y-31437904D02*
X54400438Y-31390285D01*
X54400438Y-31390285D02*
X54352819Y-31295047D01*
X54352819Y-31295047D02*
X54352819Y-31056952D01*
X54352819Y-31056952D02*
X54400438Y-30961714D01*
X54400438Y-30961714D02*
X54448057Y-30914095D01*
X54448057Y-30914095D02*
X54543295Y-30866476D01*
X54543295Y-30866476D02*
X54638533Y-30866476D01*
X54638533Y-30866476D02*
X54781390Y-30914095D01*
X54781390Y-30914095D02*
X55352819Y-31485523D01*
X55352819Y-31485523D02*
X55352819Y-30866476D01*
X54352819Y-30533142D02*
X54352819Y-29866476D01*
X54352819Y-29866476D02*
X55352819Y-30295047D01*
X46621580Y-31975857D02*
X46669200Y-32023476D01*
X46669200Y-32023476D02*
X46716819Y-32166333D01*
X46716819Y-32166333D02*
X46716819Y-32261571D01*
X46716819Y-32261571D02*
X46669200Y-32404428D01*
X46669200Y-32404428D02*
X46573961Y-32499666D01*
X46573961Y-32499666D02*
X46478723Y-32547285D01*
X46478723Y-32547285D02*
X46288247Y-32594904D01*
X46288247Y-32594904D02*
X46145390Y-32594904D01*
X46145390Y-32594904D02*
X45954914Y-32547285D01*
X45954914Y-32547285D02*
X45859676Y-32499666D01*
X45859676Y-32499666D02*
X45764438Y-32404428D01*
X45764438Y-32404428D02*
X45716819Y-32261571D01*
X45716819Y-32261571D02*
X45716819Y-32166333D01*
X45716819Y-32166333D02*
X45764438Y-32023476D01*
X45764438Y-32023476D02*
X45812057Y-31975857D01*
X45812057Y-31594904D02*
X45764438Y-31547285D01*
X45764438Y-31547285D02*
X45716819Y-31452047D01*
X45716819Y-31452047D02*
X45716819Y-31213952D01*
X45716819Y-31213952D02*
X45764438Y-31118714D01*
X45764438Y-31118714D02*
X45812057Y-31071095D01*
X45812057Y-31071095D02*
X45907295Y-31023476D01*
X45907295Y-31023476D02*
X46002533Y-31023476D01*
X46002533Y-31023476D02*
X46145390Y-31071095D01*
X46145390Y-31071095D02*
X46716819Y-31642523D01*
X46716819Y-31642523D02*
X46716819Y-31023476D01*
X45716819Y-30118714D02*
X45716819Y-30594904D01*
X45716819Y-30594904D02*
X46193009Y-30642523D01*
X46193009Y-30642523D02*
X46145390Y-30594904D01*
X46145390Y-30594904D02*
X46097771Y-30499666D01*
X46097771Y-30499666D02*
X46097771Y-30261571D01*
X46097771Y-30261571D02*
X46145390Y-30166333D01*
X46145390Y-30166333D02*
X46193009Y-30118714D01*
X46193009Y-30118714D02*
X46288247Y-30071095D01*
X46288247Y-30071095D02*
X46526342Y-30071095D01*
X46526342Y-30071095D02*
X46621580Y-30118714D01*
X46621580Y-30118714D02*
X46669200Y-30166333D01*
X46669200Y-30166333D02*
X46716819Y-30261571D01*
X46716819Y-30261571D02*
X46716819Y-30499666D01*
X46716819Y-30499666D02*
X46669200Y-30594904D01*
X46669200Y-30594904D02*
X46621580Y-30642523D01*
D12*
X93020617Y-76132570D02*
X93020617Y-76361142D01*
X93020617Y-76361142D02*
X92540617Y-76361142D01*
X93020617Y-75721142D02*
X93020617Y-75995428D01*
X93020617Y-75858285D02*
X92540617Y-75858285D01*
X92540617Y-75858285D02*
X92609188Y-75903999D01*
X92609188Y-75903999D02*
X92654902Y-75949714D01*
X92654902Y-75949714D02*
X92677760Y-75995428D01*
X92586331Y-75538285D02*
X92563474Y-75515428D01*
X92563474Y-75515428D02*
X92540617Y-75469714D01*
X92540617Y-75469714D02*
X92540617Y-75355428D01*
X92540617Y-75355428D02*
X92563474Y-75309714D01*
X92563474Y-75309714D02*
X92586331Y-75286856D01*
X92586331Y-75286856D02*
X92632045Y-75263999D01*
X92632045Y-75263999D02*
X92677760Y-75263999D01*
X92677760Y-75263999D02*
X92746331Y-75286856D01*
X92746331Y-75286856D02*
X93020617Y-75561142D01*
X93020617Y-75561142D02*
X93020617Y-75263999D01*
D11*
X52463580Y-33825857D02*
X52511200Y-33873476D01*
X52511200Y-33873476D02*
X52558819Y-34016333D01*
X52558819Y-34016333D02*
X52558819Y-34111571D01*
X52558819Y-34111571D02*
X52511200Y-34254428D01*
X52511200Y-34254428D02*
X52415961Y-34349666D01*
X52415961Y-34349666D02*
X52320723Y-34397285D01*
X52320723Y-34397285D02*
X52130247Y-34444904D01*
X52130247Y-34444904D02*
X51987390Y-34444904D01*
X51987390Y-34444904D02*
X51796914Y-34397285D01*
X51796914Y-34397285D02*
X51701676Y-34349666D01*
X51701676Y-34349666D02*
X51606438Y-34254428D01*
X51606438Y-34254428D02*
X51558819Y-34111571D01*
X51558819Y-34111571D02*
X51558819Y-34016333D01*
X51558819Y-34016333D02*
X51606438Y-33873476D01*
X51606438Y-33873476D02*
X51654057Y-33825857D01*
X51654057Y-33444904D02*
X51606438Y-33397285D01*
X51606438Y-33397285D02*
X51558819Y-33302047D01*
X51558819Y-33302047D02*
X51558819Y-33063952D01*
X51558819Y-33063952D02*
X51606438Y-32968714D01*
X51606438Y-32968714D02*
X51654057Y-32921095D01*
X51654057Y-32921095D02*
X51749295Y-32873476D01*
X51749295Y-32873476D02*
X51844533Y-32873476D01*
X51844533Y-32873476D02*
X51987390Y-32921095D01*
X51987390Y-32921095D02*
X52558819Y-33492523D01*
X52558819Y-33492523D02*
X52558819Y-32873476D01*
X51558819Y-32016333D02*
X51558819Y-32206809D01*
X51558819Y-32206809D02*
X51606438Y-32302047D01*
X51606438Y-32302047D02*
X51654057Y-32349666D01*
X51654057Y-32349666D02*
X51796914Y-32444904D01*
X51796914Y-32444904D02*
X51987390Y-32492523D01*
X51987390Y-32492523D02*
X52368342Y-32492523D01*
X52368342Y-32492523D02*
X52463580Y-32444904D01*
X52463580Y-32444904D02*
X52511200Y-32397285D01*
X52511200Y-32397285D02*
X52558819Y-32302047D01*
X52558819Y-32302047D02*
X52558819Y-32111571D01*
X52558819Y-32111571D02*
X52511200Y-32016333D01*
X52511200Y-32016333D02*
X52463580Y-31968714D01*
X52463580Y-31968714D02*
X52368342Y-31921095D01*
X52368342Y-31921095D02*
X52130247Y-31921095D01*
X52130247Y-31921095D02*
X52035009Y-31968714D01*
X52035009Y-31968714D02*
X51987390Y-32016333D01*
X51987390Y-32016333D02*
X51939771Y-32111571D01*
X51939771Y-32111571D02*
X51939771Y-32302047D01*
X51939771Y-32302047D02*
X51987390Y-32397285D01*
X51987390Y-32397285D02*
X52035009Y-32444904D01*
X52035009Y-32444904D02*
X52130247Y-32492523D01*
X95484819Y-52678666D02*
X95008628Y-53011999D01*
X95484819Y-53250094D02*
X94484819Y-53250094D01*
X94484819Y-53250094D02*
X94484819Y-52869142D01*
X94484819Y-52869142D02*
X94532438Y-52773904D01*
X94532438Y-52773904D02*
X94580057Y-52726285D01*
X94580057Y-52726285D02*
X94675295Y-52678666D01*
X94675295Y-52678666D02*
X94818152Y-52678666D01*
X94818152Y-52678666D02*
X94913390Y-52726285D01*
X94913390Y-52726285D02*
X94961009Y-52773904D01*
X94961009Y-52773904D02*
X95008628Y-52869142D01*
X95008628Y-52869142D02*
X95008628Y-53250094D01*
X95484819Y-51726285D02*
X95484819Y-52297713D01*
X95484819Y-52011999D02*
X94484819Y-52011999D01*
X94484819Y-52011999D02*
X94627676Y-52107237D01*
X94627676Y-52107237D02*
X94722914Y-52202475D01*
X94722914Y-52202475D02*
X94770533Y-52297713D01*
X59000819Y-31916666D02*
X58524628Y-32249999D01*
X59000819Y-32488094D02*
X58000819Y-32488094D01*
X58000819Y-32488094D02*
X58000819Y-32107142D01*
X58000819Y-32107142D02*
X58048438Y-32011904D01*
X58048438Y-32011904D02*
X58096057Y-31964285D01*
X58096057Y-31964285D02*
X58191295Y-31916666D01*
X58191295Y-31916666D02*
X58334152Y-31916666D01*
X58334152Y-31916666D02*
X58429390Y-31964285D01*
X58429390Y-31964285D02*
X58477009Y-32011904D01*
X58477009Y-32011904D02*
X58524628Y-32107142D01*
X58524628Y-32107142D02*
X58524628Y-32488094D01*
X58000819Y-31011904D02*
X58000819Y-31488094D01*
X58000819Y-31488094D02*
X58477009Y-31535713D01*
X58477009Y-31535713D02*
X58429390Y-31488094D01*
X58429390Y-31488094D02*
X58381771Y-31392856D01*
X58381771Y-31392856D02*
X58381771Y-31154761D01*
X58381771Y-31154761D02*
X58429390Y-31059523D01*
X58429390Y-31059523D02*
X58477009Y-31011904D01*
X58477009Y-31011904D02*
X58572247Y-30964285D01*
X58572247Y-30964285D02*
X58810342Y-30964285D01*
X58810342Y-30964285D02*
X58905580Y-31011904D01*
X58905580Y-31011904D02*
X58953200Y-31059523D01*
X58953200Y-31059523D02*
X59000819Y-31154761D01*
X59000819Y-31154761D02*
X59000819Y-31392856D01*
X59000819Y-31392856D02*
X58953200Y-31488094D01*
X58953200Y-31488094D02*
X58905580Y-31535713D01*
D12*
X100020617Y-74403999D02*
X100020617Y-74632571D01*
X100020617Y-74632571D02*
X99540617Y-74632571D01*
X99746331Y-74175428D02*
X99723474Y-74221143D01*
X99723474Y-74221143D02*
X99700617Y-74244000D01*
X99700617Y-74244000D02*
X99654902Y-74266857D01*
X99654902Y-74266857D02*
X99632045Y-74266857D01*
X99632045Y-74266857D02*
X99586331Y-74244000D01*
X99586331Y-74244000D02*
X99563474Y-74221143D01*
X99563474Y-74221143D02*
X99540617Y-74175428D01*
X99540617Y-74175428D02*
X99540617Y-74084000D01*
X99540617Y-74084000D02*
X99563474Y-74038286D01*
X99563474Y-74038286D02*
X99586331Y-74015428D01*
X99586331Y-74015428D02*
X99632045Y-73992571D01*
X99632045Y-73992571D02*
X99654902Y-73992571D01*
X99654902Y-73992571D02*
X99700617Y-74015428D01*
X99700617Y-74015428D02*
X99723474Y-74038286D01*
X99723474Y-74038286D02*
X99746331Y-74084000D01*
X99746331Y-74084000D02*
X99746331Y-74175428D01*
X99746331Y-74175428D02*
X99769188Y-74221143D01*
X99769188Y-74221143D02*
X99792045Y-74244000D01*
X99792045Y-74244000D02*
X99837760Y-74266857D01*
X99837760Y-74266857D02*
X99929188Y-74266857D01*
X99929188Y-74266857D02*
X99974902Y-74244000D01*
X99974902Y-74244000D02*
X99997760Y-74221143D01*
X99997760Y-74221143D02*
X100020617Y-74175428D01*
X100020617Y-74175428D02*
X100020617Y-74084000D01*
X100020617Y-74084000D02*
X99997760Y-74038286D01*
X99997760Y-74038286D02*
X99974902Y-74015428D01*
X99974902Y-74015428D02*
X99929188Y-73992571D01*
X99929188Y-73992571D02*
X99837760Y-73992571D01*
X99837760Y-73992571D02*
X99792045Y-74015428D01*
X99792045Y-74015428D02*
X99769188Y-74038286D01*
X99769188Y-74038286D02*
X99746331Y-74084000D01*
D11*
X55700819Y-36455094D02*
X54700819Y-36455094D01*
X54700819Y-36455094D02*
X54700819Y-36216999D01*
X54700819Y-36216999D02*
X54748438Y-36074142D01*
X54748438Y-36074142D02*
X54843676Y-35978904D01*
X54843676Y-35978904D02*
X54938914Y-35931285D01*
X54938914Y-35931285D02*
X55129390Y-35883666D01*
X55129390Y-35883666D02*
X55272247Y-35883666D01*
X55272247Y-35883666D02*
X55462723Y-35931285D01*
X55462723Y-35931285D02*
X55557961Y-35978904D01*
X55557961Y-35978904D02*
X55653200Y-36074142D01*
X55653200Y-36074142D02*
X55700819Y-36216999D01*
X55700819Y-36216999D02*
X55700819Y-36455094D01*
X54700819Y-35550332D02*
X54700819Y-34931285D01*
X54700819Y-34931285D02*
X55081771Y-35264618D01*
X55081771Y-35264618D02*
X55081771Y-35121761D01*
X55081771Y-35121761D02*
X55129390Y-35026523D01*
X55129390Y-35026523D02*
X55177009Y-34978904D01*
X55177009Y-34978904D02*
X55272247Y-34931285D01*
X55272247Y-34931285D02*
X55510342Y-34931285D01*
X55510342Y-34931285D02*
X55605580Y-34978904D01*
X55605580Y-34978904D02*
X55653200Y-35026523D01*
X55653200Y-35026523D02*
X55700819Y-35121761D01*
X55700819Y-35121761D02*
X55700819Y-35407475D01*
X55700819Y-35407475D02*
X55653200Y-35502713D01*
X55653200Y-35502713D02*
X55605580Y-35550332D01*
X95237142Y-66709580D02*
X95189523Y-66757200D01*
X95189523Y-66757200D02*
X95046666Y-66804819D01*
X95046666Y-66804819D02*
X94951428Y-66804819D01*
X94951428Y-66804819D02*
X94808571Y-66757200D01*
X94808571Y-66757200D02*
X94713333Y-66661961D01*
X94713333Y-66661961D02*
X94665714Y-66566723D01*
X94665714Y-66566723D02*
X94618095Y-66376247D01*
X94618095Y-66376247D02*
X94618095Y-66233390D01*
X94618095Y-66233390D02*
X94665714Y-66042914D01*
X94665714Y-66042914D02*
X94713333Y-65947676D01*
X94713333Y-65947676D02*
X94808571Y-65852438D01*
X94808571Y-65852438D02*
X94951428Y-65804819D01*
X94951428Y-65804819D02*
X95046666Y-65804819D01*
X95046666Y-65804819D02*
X95189523Y-65852438D01*
X95189523Y-65852438D02*
X95237142Y-65900057D01*
X95618095Y-65900057D02*
X95665714Y-65852438D01*
X95665714Y-65852438D02*
X95760952Y-65804819D01*
X95760952Y-65804819D02*
X95999047Y-65804819D01*
X95999047Y-65804819D02*
X96094285Y-65852438D01*
X96094285Y-65852438D02*
X96141904Y-65900057D01*
X96141904Y-65900057D02*
X96189523Y-65995295D01*
X96189523Y-65995295D02*
X96189523Y-66090533D01*
X96189523Y-66090533D02*
X96141904Y-66233390D01*
X96141904Y-66233390D02*
X95570476Y-66804819D01*
X95570476Y-66804819D02*
X96189523Y-66804819D01*
X96665714Y-66804819D02*
X96856190Y-66804819D01*
X96856190Y-66804819D02*
X96951428Y-66757200D01*
X96951428Y-66757200D02*
X96999047Y-66709580D01*
X96999047Y-66709580D02*
X97094285Y-66566723D01*
X97094285Y-66566723D02*
X97141904Y-66376247D01*
X97141904Y-66376247D02*
X97141904Y-65995295D01*
X97141904Y-65995295D02*
X97094285Y-65900057D01*
X97094285Y-65900057D02*
X97046666Y-65852438D01*
X97046666Y-65852438D02*
X96951428Y-65804819D01*
X96951428Y-65804819D02*
X96760952Y-65804819D01*
X96760952Y-65804819D02*
X96665714Y-65852438D01*
X96665714Y-65852438D02*
X96618095Y-65900057D01*
X96618095Y-65900057D02*
X96570476Y-65995295D01*
X96570476Y-65995295D02*
X96570476Y-66233390D01*
X96570476Y-66233390D02*
X96618095Y-66328628D01*
X96618095Y-66328628D02*
X96665714Y-66376247D01*
X96665714Y-66376247D02*
X96760952Y-66423866D01*
X96760952Y-66423866D02*
X96951428Y-66423866D01*
X96951428Y-66423866D02*
X97046666Y-66376247D01*
X97046666Y-66376247D02*
X97094285Y-66328628D01*
X97094285Y-66328628D02*
X97141904Y-66233390D01*
D12*
X93020617Y-78432570D02*
X93020617Y-78661142D01*
X93020617Y-78661142D02*
X92540617Y-78661142D01*
X93020617Y-78021142D02*
X93020617Y-78295428D01*
X93020617Y-78158285D02*
X92540617Y-78158285D01*
X92540617Y-78158285D02*
X92609188Y-78203999D01*
X92609188Y-78203999D02*
X92654902Y-78249714D01*
X92654902Y-78249714D02*
X92677760Y-78295428D01*
X92540617Y-77861142D02*
X92540617Y-77563999D01*
X92540617Y-77563999D02*
X92723474Y-77723999D01*
X92723474Y-77723999D02*
X92723474Y-77655428D01*
X92723474Y-77655428D02*
X92746331Y-77609714D01*
X92746331Y-77609714D02*
X92769188Y-77586856D01*
X92769188Y-77586856D02*
X92814902Y-77563999D01*
X92814902Y-77563999D02*
X92929188Y-77563999D01*
X92929188Y-77563999D02*
X92974902Y-77586856D01*
X92974902Y-77586856D02*
X92997760Y-77609714D01*
X92997760Y-77609714D02*
X93020617Y-77655428D01*
X93020617Y-77655428D02*
X93020617Y-77792571D01*
X93020617Y-77792571D02*
X92997760Y-77838285D01*
X92997760Y-77838285D02*
X92974902Y-77861142D01*
X93015817Y-67308570D02*
X93015817Y-67537142D01*
X93015817Y-67537142D02*
X92535817Y-67537142D01*
X93015817Y-66897142D02*
X93015817Y-67171428D01*
X93015817Y-67034285D02*
X92535817Y-67034285D01*
X92535817Y-67034285D02*
X92604388Y-67079999D01*
X92604388Y-67079999D02*
X92650102Y-67125714D01*
X92650102Y-67125714D02*
X92672960Y-67171428D01*
X92535817Y-66599999D02*
X92535817Y-66554285D01*
X92535817Y-66554285D02*
X92558674Y-66508571D01*
X92558674Y-66508571D02*
X92581531Y-66485714D01*
X92581531Y-66485714D02*
X92627245Y-66462856D01*
X92627245Y-66462856D02*
X92718674Y-66439999D01*
X92718674Y-66439999D02*
X92832960Y-66439999D01*
X92832960Y-66439999D02*
X92924388Y-66462856D01*
X92924388Y-66462856D02*
X92970102Y-66485714D01*
X92970102Y-66485714D02*
X92992960Y-66508571D01*
X92992960Y-66508571D02*
X93015817Y-66554285D01*
X93015817Y-66554285D02*
X93015817Y-66599999D01*
X93015817Y-66599999D02*
X92992960Y-66645714D01*
X92992960Y-66645714D02*
X92970102Y-66668571D01*
X92970102Y-66668571D02*
X92924388Y-66691428D01*
X92924388Y-66691428D02*
X92832960Y-66714285D01*
X92832960Y-66714285D02*
X92718674Y-66714285D01*
X92718674Y-66714285D02*
X92627245Y-66691428D01*
X92627245Y-66691428D02*
X92581531Y-66668571D01*
X92581531Y-66668571D02*
X92558674Y-66645714D01*
X92558674Y-66645714D02*
X92535817Y-66599999D01*
D11*
X44522819Y-29298166D02*
X44046628Y-29631499D01*
X44522819Y-29869594D02*
X43522819Y-29869594D01*
X43522819Y-29869594D02*
X43522819Y-29488642D01*
X43522819Y-29488642D02*
X43570438Y-29393404D01*
X43570438Y-29393404D02*
X43618057Y-29345785D01*
X43618057Y-29345785D02*
X43713295Y-29298166D01*
X43713295Y-29298166D02*
X43856152Y-29298166D01*
X43856152Y-29298166D02*
X43951390Y-29345785D01*
X43951390Y-29345785D02*
X43999009Y-29393404D01*
X43999009Y-29393404D02*
X44046628Y-29488642D01*
X44046628Y-29488642D02*
X44046628Y-29869594D01*
X43856152Y-28441023D02*
X44522819Y-28441023D01*
X43475200Y-28679118D02*
X44189485Y-28917213D01*
X44189485Y-28917213D02*
X44189485Y-28298166D01*
X96588333Y-57609580D02*
X96540714Y-57657200D01*
X96540714Y-57657200D02*
X96397857Y-57704819D01*
X96397857Y-57704819D02*
X96302619Y-57704819D01*
X96302619Y-57704819D02*
X96159762Y-57657200D01*
X96159762Y-57657200D02*
X96064524Y-57561961D01*
X96064524Y-57561961D02*
X96016905Y-57466723D01*
X96016905Y-57466723D02*
X95969286Y-57276247D01*
X95969286Y-57276247D02*
X95969286Y-57133390D01*
X95969286Y-57133390D02*
X96016905Y-56942914D01*
X96016905Y-56942914D02*
X96064524Y-56847676D01*
X96064524Y-56847676D02*
X96159762Y-56752438D01*
X96159762Y-56752438D02*
X96302619Y-56704819D01*
X96302619Y-56704819D02*
X96397857Y-56704819D01*
X96397857Y-56704819D02*
X96540714Y-56752438D01*
X96540714Y-56752438D02*
X96588333Y-56800057D01*
X96921667Y-56704819D02*
X97588333Y-56704819D01*
X97588333Y-56704819D02*
X97159762Y-57704819D01*
X97531580Y-50204666D02*
X97579200Y-50252285D01*
X97579200Y-50252285D02*
X97626819Y-50395142D01*
X97626819Y-50395142D02*
X97626819Y-50490380D01*
X97626819Y-50490380D02*
X97579200Y-50633237D01*
X97579200Y-50633237D02*
X97483961Y-50728475D01*
X97483961Y-50728475D02*
X97388723Y-50776094D01*
X97388723Y-50776094D02*
X97198247Y-50823713D01*
X97198247Y-50823713D02*
X97055390Y-50823713D01*
X97055390Y-50823713D02*
X96864914Y-50776094D01*
X96864914Y-50776094D02*
X96769676Y-50728475D01*
X96769676Y-50728475D02*
X96674438Y-50633237D01*
X96674438Y-50633237D02*
X96626819Y-50490380D01*
X96626819Y-50490380D02*
X96626819Y-50395142D01*
X96626819Y-50395142D02*
X96674438Y-50252285D01*
X96674438Y-50252285D02*
X96722057Y-50204666D01*
X96722057Y-49823713D02*
X96674438Y-49776094D01*
X96674438Y-49776094D02*
X96626819Y-49680856D01*
X96626819Y-49680856D02*
X96626819Y-49442761D01*
X96626819Y-49442761D02*
X96674438Y-49347523D01*
X96674438Y-49347523D02*
X96722057Y-49299904D01*
X96722057Y-49299904D02*
X96817295Y-49252285D01*
X96817295Y-49252285D02*
X96912533Y-49252285D01*
X96912533Y-49252285D02*
X97055390Y-49299904D01*
X97055390Y-49299904D02*
X97626819Y-49871332D01*
X97626819Y-49871332D02*
X97626819Y-49252285D01*
X89801580Y-49351666D02*
X89849200Y-49399285D01*
X89849200Y-49399285D02*
X89896819Y-49542142D01*
X89896819Y-49542142D02*
X89896819Y-49637380D01*
X89896819Y-49637380D02*
X89849200Y-49780237D01*
X89849200Y-49780237D02*
X89753961Y-49875475D01*
X89753961Y-49875475D02*
X89658723Y-49923094D01*
X89658723Y-49923094D02*
X89468247Y-49970713D01*
X89468247Y-49970713D02*
X89325390Y-49970713D01*
X89325390Y-49970713D02*
X89134914Y-49923094D01*
X89134914Y-49923094D02*
X89039676Y-49875475D01*
X89039676Y-49875475D02*
X88944438Y-49780237D01*
X88944438Y-49780237D02*
X88896819Y-49637380D01*
X88896819Y-49637380D02*
X88896819Y-49542142D01*
X88896819Y-49542142D02*
X88944438Y-49399285D01*
X88944438Y-49399285D02*
X88992057Y-49351666D01*
X89896819Y-48875475D02*
X89896819Y-48684999D01*
X89896819Y-48684999D02*
X89849200Y-48589761D01*
X89849200Y-48589761D02*
X89801580Y-48542142D01*
X89801580Y-48542142D02*
X89658723Y-48446904D01*
X89658723Y-48446904D02*
X89468247Y-48399285D01*
X89468247Y-48399285D02*
X89087295Y-48399285D01*
X89087295Y-48399285D02*
X88992057Y-48446904D01*
X88992057Y-48446904D02*
X88944438Y-48494523D01*
X88944438Y-48494523D02*
X88896819Y-48589761D01*
X88896819Y-48589761D02*
X88896819Y-48780237D01*
X88896819Y-48780237D02*
X88944438Y-48875475D01*
X88944438Y-48875475D02*
X88992057Y-48923094D01*
X88992057Y-48923094D02*
X89087295Y-48970713D01*
X89087295Y-48970713D02*
X89325390Y-48970713D01*
X89325390Y-48970713D02*
X89420628Y-48923094D01*
X89420628Y-48923094D02*
X89468247Y-48875475D01*
X89468247Y-48875475D02*
X89515866Y-48780237D01*
X89515866Y-48780237D02*
X89515866Y-48589761D01*
X89515866Y-48589761D02*
X89468247Y-48494523D01*
X89468247Y-48494523D02*
X89420628Y-48446904D01*
X89420628Y-48446904D02*
X89325390Y-48399285D01*
X95177142Y-62909580D02*
X95129523Y-62957200D01*
X95129523Y-62957200D02*
X94986666Y-63004819D01*
X94986666Y-63004819D02*
X94891428Y-63004819D01*
X94891428Y-63004819D02*
X94748571Y-62957200D01*
X94748571Y-62957200D02*
X94653333Y-62861961D01*
X94653333Y-62861961D02*
X94605714Y-62766723D01*
X94605714Y-62766723D02*
X94558095Y-62576247D01*
X94558095Y-62576247D02*
X94558095Y-62433390D01*
X94558095Y-62433390D02*
X94605714Y-62242914D01*
X94605714Y-62242914D02*
X94653333Y-62147676D01*
X94653333Y-62147676D02*
X94748571Y-62052438D01*
X94748571Y-62052438D02*
X94891428Y-62004819D01*
X94891428Y-62004819D02*
X94986666Y-62004819D01*
X94986666Y-62004819D02*
X95129523Y-62052438D01*
X95129523Y-62052438D02*
X95177142Y-62100057D01*
X95558095Y-62100057D02*
X95605714Y-62052438D01*
X95605714Y-62052438D02*
X95700952Y-62004819D01*
X95700952Y-62004819D02*
X95939047Y-62004819D01*
X95939047Y-62004819D02*
X96034285Y-62052438D01*
X96034285Y-62052438D02*
X96081904Y-62100057D01*
X96081904Y-62100057D02*
X96129523Y-62195295D01*
X96129523Y-62195295D02*
X96129523Y-62290533D01*
X96129523Y-62290533D02*
X96081904Y-62433390D01*
X96081904Y-62433390D02*
X95510476Y-63004819D01*
X95510476Y-63004819D02*
X96129523Y-63004819D01*
X96700952Y-62433390D02*
X96605714Y-62385771D01*
X96605714Y-62385771D02*
X96558095Y-62338152D01*
X96558095Y-62338152D02*
X96510476Y-62242914D01*
X96510476Y-62242914D02*
X96510476Y-62195295D01*
X96510476Y-62195295D02*
X96558095Y-62100057D01*
X96558095Y-62100057D02*
X96605714Y-62052438D01*
X96605714Y-62052438D02*
X96700952Y-62004819D01*
X96700952Y-62004819D02*
X96891428Y-62004819D01*
X96891428Y-62004819D02*
X96986666Y-62052438D01*
X96986666Y-62052438D02*
X97034285Y-62100057D01*
X97034285Y-62100057D02*
X97081904Y-62195295D01*
X97081904Y-62195295D02*
X97081904Y-62242914D01*
X97081904Y-62242914D02*
X97034285Y-62338152D01*
X97034285Y-62338152D02*
X96986666Y-62385771D01*
X96986666Y-62385771D02*
X96891428Y-62433390D01*
X96891428Y-62433390D02*
X96700952Y-62433390D01*
X96700952Y-62433390D02*
X96605714Y-62481009D01*
X96605714Y-62481009D02*
X96558095Y-62528628D01*
X96558095Y-62528628D02*
X96510476Y-62623866D01*
X96510476Y-62623866D02*
X96510476Y-62814342D01*
X96510476Y-62814342D02*
X96558095Y-62909580D01*
X96558095Y-62909580D02*
X96605714Y-62957200D01*
X96605714Y-62957200D02*
X96700952Y-63004819D01*
X96700952Y-63004819D02*
X96891428Y-63004819D01*
X96891428Y-63004819D02*
X96986666Y-62957200D01*
X96986666Y-62957200D02*
X97034285Y-62909580D01*
X97034285Y-62909580D02*
X97081904Y-62814342D01*
X97081904Y-62814342D02*
X97081904Y-62623866D01*
X97081904Y-62623866D02*
X97034285Y-62528628D01*
X97034285Y-62528628D02*
X96986666Y-62481009D01*
X96986666Y-62481009D02*
X96891428Y-62433390D01*
D12*
X93020617Y-73732570D02*
X93020617Y-73961142D01*
X93020617Y-73961142D02*
X92540617Y-73961142D01*
X93020617Y-73321142D02*
X93020617Y-73595428D01*
X93020617Y-73458285D02*
X92540617Y-73458285D01*
X92540617Y-73458285D02*
X92609188Y-73503999D01*
X92609188Y-73503999D02*
X92654902Y-73549714D01*
X92654902Y-73549714D02*
X92677760Y-73595428D01*
X93020617Y-72863999D02*
X93020617Y-73138285D01*
X93020617Y-73001142D02*
X92540617Y-73001142D01*
X92540617Y-73001142D02*
X92609188Y-73046856D01*
X92609188Y-73046856D02*
X92654902Y-73092571D01*
X92654902Y-73092571D02*
X92677760Y-73138285D01*
D11*
X35988666Y-26279819D02*
X35988666Y-26994104D01*
X35988666Y-26994104D02*
X35941047Y-27136961D01*
X35941047Y-27136961D02*
X35845809Y-27232200D01*
X35845809Y-27232200D02*
X35702952Y-27279819D01*
X35702952Y-27279819D02*
X35607714Y-27279819D01*
X36988666Y-27279819D02*
X36417238Y-27279819D01*
X36702952Y-27279819D02*
X36702952Y-26279819D01*
X36702952Y-26279819D02*
X36607714Y-26422676D01*
X36607714Y-26422676D02*
X36512476Y-26517914D01*
X36512476Y-26517914D02*
X36417238Y-26565533D01*
X91309580Y-70987857D02*
X91357200Y-71035476D01*
X91357200Y-71035476D02*
X91404819Y-71178333D01*
X91404819Y-71178333D02*
X91404819Y-71273571D01*
X91404819Y-71273571D02*
X91357200Y-71416428D01*
X91357200Y-71416428D02*
X91261961Y-71511666D01*
X91261961Y-71511666D02*
X91166723Y-71559285D01*
X91166723Y-71559285D02*
X90976247Y-71606904D01*
X90976247Y-71606904D02*
X90833390Y-71606904D01*
X90833390Y-71606904D02*
X90642914Y-71559285D01*
X90642914Y-71559285D02*
X90547676Y-71511666D01*
X90547676Y-71511666D02*
X90452438Y-71416428D01*
X90452438Y-71416428D02*
X90404819Y-71273571D01*
X90404819Y-71273571D02*
X90404819Y-71178333D01*
X90404819Y-71178333D02*
X90452438Y-71035476D01*
X90452438Y-71035476D02*
X90500057Y-70987857D01*
X91404819Y-70035476D02*
X91404819Y-70606904D01*
X91404819Y-70321190D02*
X90404819Y-70321190D01*
X90404819Y-70321190D02*
X90547676Y-70416428D01*
X90547676Y-70416428D02*
X90642914Y-70511666D01*
X90642914Y-70511666D02*
X90690533Y-70606904D01*
X90404819Y-69178333D02*
X90404819Y-69368809D01*
X90404819Y-69368809D02*
X90452438Y-69464047D01*
X90452438Y-69464047D02*
X90500057Y-69511666D01*
X90500057Y-69511666D02*
X90642914Y-69606904D01*
X90642914Y-69606904D02*
X90833390Y-69654523D01*
X90833390Y-69654523D02*
X91214342Y-69654523D01*
X91214342Y-69654523D02*
X91309580Y-69606904D01*
X91309580Y-69606904D02*
X91357200Y-69559285D01*
X91357200Y-69559285D02*
X91404819Y-69464047D01*
X91404819Y-69464047D02*
X91404819Y-69273571D01*
X91404819Y-69273571D02*
X91357200Y-69178333D01*
X91357200Y-69178333D02*
X91309580Y-69130714D01*
X91309580Y-69130714D02*
X91214342Y-69083095D01*
X91214342Y-69083095D02*
X90976247Y-69083095D01*
X90976247Y-69083095D02*
X90881009Y-69130714D01*
X90881009Y-69130714D02*
X90833390Y-69178333D01*
X90833390Y-69178333D02*
X90785771Y-69273571D01*
X90785771Y-69273571D02*
X90785771Y-69464047D01*
X90785771Y-69464047D02*
X90833390Y-69559285D01*
X90833390Y-69559285D02*
X90881009Y-69606904D01*
X90881009Y-69606904D02*
X90976247Y-69654523D01*
D12*
X95120617Y-66803999D02*
X95120617Y-67032571D01*
X95120617Y-67032571D02*
X94640617Y-67032571D01*
X95120617Y-66621143D02*
X95120617Y-66529714D01*
X95120617Y-66529714D02*
X95097760Y-66484000D01*
X95097760Y-66484000D02*
X95074902Y-66461143D01*
X95074902Y-66461143D02*
X95006331Y-66415428D01*
X95006331Y-66415428D02*
X94914902Y-66392571D01*
X94914902Y-66392571D02*
X94732045Y-66392571D01*
X94732045Y-66392571D02*
X94686331Y-66415428D01*
X94686331Y-66415428D02*
X94663474Y-66438286D01*
X94663474Y-66438286D02*
X94640617Y-66484000D01*
X94640617Y-66484000D02*
X94640617Y-66575428D01*
X94640617Y-66575428D02*
X94663474Y-66621143D01*
X94663474Y-66621143D02*
X94686331Y-66644000D01*
X94686331Y-66644000D02*
X94732045Y-66666857D01*
X94732045Y-66666857D02*
X94846331Y-66666857D01*
X94846331Y-66666857D02*
X94892045Y-66644000D01*
X94892045Y-66644000D02*
X94914902Y-66621143D01*
X94914902Y-66621143D02*
X94937760Y-66575428D01*
X94937760Y-66575428D02*
X94937760Y-66484000D01*
X94937760Y-66484000D02*
X94914902Y-66438286D01*
X94914902Y-66438286D02*
X94892045Y-66415428D01*
X94892045Y-66415428D02*
X94846331Y-66392571D01*
D13*
X98630000Y-54640000D02*
X98630000Y-55640000D01*
X97030000Y-54640000D02*
X97030000Y-55640000D01*
D12*
X96612164Y-58940000D02*
X96827836Y-58940000D01*
X96612164Y-59660000D02*
X96827836Y-59660000D01*
X75304000Y-24812000D02*
X75304000Y-24962000D01*
X75304000Y-24812000D02*
X85224000Y-24812000D01*
X75304000Y-34982000D02*
X75304000Y-35132000D01*
X75304000Y-35132000D02*
X85224000Y-35132000D01*
X85224000Y-24812000D02*
X85224000Y-24962000D01*
X85224000Y-34982000D02*
X85224000Y-35132000D01*
X74834000Y-24962000D02*
X74594000Y-24632000D01*
X75074000Y-24632000D01*
X74834000Y-24962000D01*
G36*
X74834000Y-24962000D02*
G01*
X74594000Y-24632000D01*
X75074000Y-24632000D01*
X74834000Y-24962000D01*
G37*
D13*
X96064000Y-12383500D02*
X96064000Y-20098500D01*
X96064000Y-25178500D02*
X96064000Y-22988500D01*
X100409000Y-27383500D02*
X98219000Y-27383500D01*
X102564000Y-12383500D02*
X96064000Y-12383500D01*
X102564000Y-12383500D02*
X102564000Y-20098500D01*
X102564000Y-25178500D02*
X102564000Y-22988500D01*
X102650000Y-72405000D02*
X102650000Y-74595000D01*
X102650000Y-85200000D02*
X102650000Y-77485000D01*
X102650000Y-85200000D02*
X109150000Y-85200000D01*
X104805000Y-70200000D02*
X106995000Y-70200000D01*
X109150000Y-72405000D02*
X109150000Y-74595000D01*
X109150000Y-85200000D02*
X109150000Y-77485000D01*
D12*
X85282000Y-52694000D02*
X86032000Y-52694000D01*
X85282000Y-53444000D02*
X85282000Y-52694000D01*
X85282000Y-58914000D02*
X85282000Y-58164000D01*
X86032000Y-58914000D02*
X85282000Y-58914000D01*
X90752000Y-52694000D02*
X91502000Y-52694000D01*
X91502000Y-52694000D02*
X91502000Y-53444000D01*
X91502000Y-58164000D02*
X91502000Y-58914000D01*
X91502000Y-58914000D02*
X90752000Y-58914000D01*
X92362000Y-57994000D02*
X92032000Y-57754000D01*
X92362000Y-57514000D01*
X92362000Y-57994000D01*
G36*
X92362000Y-57994000D02*
G01*
X92032000Y-57754000D01*
X92362000Y-57514000D01*
X92362000Y-57994000D01*
G37*
X91206000Y-31234000D02*
X91206000Y-29874000D01*
X92006000Y-29874000D02*
X91206000Y-29874000D01*
X92006000Y-31234000D02*
X92006000Y-29874000D01*
X55936000Y-30065000D02*
X55936000Y-32750000D01*
X57856000Y-30065000D02*
X55936000Y-30065000D01*
X57856000Y-32750000D02*
X57856000Y-30065000D01*
X55936000Y-34717000D02*
X55936000Y-37402000D01*
X55936000Y-37402000D02*
X57856000Y-37402000D01*
X57856000Y-37402000D02*
X57856000Y-34717000D01*
X41458000Y-32195500D02*
X41458000Y-34880500D01*
X41458000Y-34880500D02*
X43378000Y-34880500D01*
X43378000Y-34880500D02*
X43378000Y-32195500D01*
X41458000Y-27446500D02*
X41458000Y-30131500D01*
X43378000Y-27446500D02*
X41458000Y-27446500D01*
X43378000Y-30131500D02*
X43378000Y-27446500D01*
X48741500Y-28854000D02*
X50561500Y-28854000D01*
X48741500Y-28904000D02*
X48741500Y-28854000D01*
X48741500Y-31974000D02*
X48741500Y-31924000D01*
X50561500Y-28854000D02*
X50561500Y-28904000D01*
X50561500Y-30024000D02*
X50561500Y-30804000D01*
X50561500Y-31924000D02*
X50561500Y-31974000D01*
X50561500Y-31974000D02*
X48741500Y-31974000D01*
X48201500Y-28904000D02*
X47961500Y-28574000D01*
X48441500Y-28574000D01*
X48201500Y-28904000D01*
G36*
X48201500Y-28904000D02*
G01*
X47961500Y-28574000D01*
X48441500Y-28574000D01*
X48201500Y-28904000D01*
G37*
X95652000Y-49930164D02*
X95652000Y-50145836D01*
X96372000Y-49930164D02*
X96372000Y-50145836D01*
D13*
X95563500Y-78050000D02*
G75*
G02*
X95436500Y-78050000I-63500J0D01*
G01*
X95436500Y-78050000D02*
G75*
G02*
X95563500Y-78050000I63500J0D01*
G01*
D12*
X34942000Y-27825000D02*
X36322000Y-27825000D01*
X34942000Y-29205000D02*
X34942000Y-27825000D01*
X34942000Y-30475000D02*
X34942000Y-33125000D01*
X34942000Y-30475000D02*
X37702000Y-30475000D01*
X34942000Y-33125000D02*
X37702000Y-33125000D01*
X37702000Y-30475000D02*
X37702000Y-33125000D01*
M02*
